<svg xmlns="http://www.w3.org/2000/svg" viewBox="-156.128 -190.400013 312.256 380.800026">
  <polygon points="74.528,112.064013 40.800000000000004,112.06401299999999 40.800000000000004,112.06401300000002 40.800000000000004,190.400013 40.8,190.40001299999997 40.8,190.40001299999997 40.8,190.400013 0,190.400013 -40.8,190.400013 -40.8,190.40001299999997 -40.800000000000004,190.400013 -40.800000000000004,112.06401300000002 -40.800000000000004,112.06401300000002 -74.528,112.06401300000002 -74.528,112.06401300000002 -74.52799999999999,190.400013 -115.32799999999999,190.400013 -156.128,190.400013 -156.128,0 -156.128,-190.400013 -115.32799999999999,-190.400013 -74.52799999999999,-190.400013 -74.52799999999998,-112.06401299999999 -74.528,-112.064013 -40.8,-112.06401299999999 -40.8,-112.06401300000002 -40.8,-190.40001299999997 -40.8,-190.40001299999997 -40.8,-190.400013 0,-190.400013 40.8,-190.400013 40.8,-190.400013 40.8,-190.40001299999997 40.800000000000004,-190.400013 40.800000000000004,-112.06401300000002 40.800000000000004,-112.06401300000002 74.528,-112.06401300000002 74.528,-112.06401300000002 74.52799999999999,-190.400013 115.32799999999999,-190.400013 156.128,-190.400013 156.128,0 156.128,190.400013 115.32799999999999,190.400013 74.52799999999999,190.400013" />
</svg>
