<svg xmlns="http://www.w3.org/2000/svg" viewBox="11.259543273033524 3.168454517983414 132.67434677951425 179.92961309847246">
  <polygon points="76.30879999999999,24.330000000000002 78.3488,24.330000000000002 110.4448,49.35400000000001 132.67047608972862,49.35400000000002 132.67047608972857,49.35399999999999 132.67047608972857,49.35399999999997 132.67047608972857,49.35399999999997 75.15237991300536,3.168454517983414 11.259543273033524,51.67969451722828 61.2128,99.674 87.86880000000001,105.114 114.25280000000001,127.69000000000001 114.25280000000001,137.21000065 80.25280000000001,161.96200065 78.2128,161.96200065 76.4752983774552,160.5140826312127 74.4864,161.96200065 72.44640000000001,161.96200065 34.910400000000024,130.68200065000002 12.187930501255266,130.68200065000002 12.187930501255266,130.68200065000002 12.187930501255224,130.68200065 12.187930501255224,130.68200065 76.22764411717621,183.09806761645586 143.93389005254778,131.7838601707006 87.67840000000001,81.45000065 63.1984,76.55400065 40.6224,55.88200065 40.6224,46.361999999999995 70.5424,24.330000000000002 72.58239999999999,24.330000000000002 74.39238735643865,25.741176582986075" />
</svg>
