<svg xmlns="http://www.w3.org/2000/svg" viewBox="-157.364 -195.120013 306.544 385.968027">
  <polygon points="-103.76694400000002,188.497932544 -124.05379200000002,181.447689072 -139.287968,169.697284928 -148.868896,153.246721456 -152.196,132.096 -152.196,75.96994471042484 -155.22281600000002,69.986432 -157.364,54.03200000000001 -157.364,-136.368013 -153.47984000000002,-158.24986900000005 -142.61072000000001,-174.791821 -125.93168,-186.268045 -104.61776,-192.952717 -79.844,-195.120013 -2.867999999999995,-195.120013 24.297183999999994,-192.38042900000005 51.27740800000003,-189.33837964800006 73.33769600000004,-181.25889164800003 93.77686400000002,-172.628872424 110.19696000000002,-159.418376424 124.40841600000002,-145.94458057600002 134.65302400000002,-127.81197257600002 142.95011200000002,-110.23859335200001 146.48393600000003,-87.39276935199999 149.18,-66.46399999999998 146.48393600000006,-45.66796799999997 138.67337611127024,-29.20085786480491 141.31593600000002,-12.59276935199999 144.012,8.336000000000006 141.31593600000005,29.132032000000017 137.88220800000005,49.03155345600001 129.58512000000002,66.524417456 119.78006400000001,82.115460928 105.56860800000001,95.547908928 90.13641600000003,106.765193072 69.697248,115.37997707199999 49.382112,122.15822054399999 35.212,123.75477240011742 35.212,135.088 31.778272,154.987521456 21.973216,170.578564928 6.541024,181.795849072 -13.77411200000001,188.574092544 -38.227999999999994,190.848014 -79.02799999999999,190.848014" />
</svg>
