<svg xmlns="http://www.w3.org/2000/svg" viewBox="-157.364 -195.120013 308.448 385.968027">
  <polygon points="7.481055999999967,188.497932544 -2.8182813139575855,184.91862659841124 -13.77411200000001,188.574092544 -38.227999999999994,190.848014 -79.02799999999999,190.848014 -103.76694400000002,188.497932544 -124.05379200000002,181.447689072 -139.287968,169.697284928 -148.868896,153.246721456 -152.196,132.096 -152.196,75.96994471042484 -155.22281600000002,69.986432 -157.364,54.03200000000001 -157.364,-136.368013 -153.47984000000002,-158.24986900000005 -142.61072000000001,-174.791821 -125.93168,-186.268045 -104.61776,-192.952717 -79.844,-195.120013 -2.867999999999995,-195.120013 24.297183999999994,-192.38042900000005 51.27740800000003,-189.33837964800006 73.33769600000004,-181.25889164800003 93.77686400000002,-172.628872424 110.19696000000002,-159.418376424 124.40841600000002,-145.94458057600002 134.65302400000002,-127.81197257600002 142.95011200000002,-110.23859335200001 146.48393600000003,-87.39276935199999 149.18,-66.46399999999998 147.75254400000006,-50.907775999999956 143.37443200000004,-37.06188799999997 138.6227227158252,-29.519206780420102 141.31593600000002,-12.59276935199999 144.012,8.336000000000006 142.58454400000005,23.892224000000034 141.95522769851226,27.539307649044765 147.550176,37.44217599999999 151.084,60.28800000000001 133.10591419012522,60.287999999999975 133.10591419012522,60.28799999999998 124.96764800000003,73.22867692800003 121.14497312749754,79.296644525557 135.07952,103.27923199999998 143.04368,117.03590399999999 145.916,135.088 142.482272,154.987521456 132.677216,170.578564928 117.245024,181.795849072 96.92988799999998,188.574092544 72.476,190.848014 32.22,190.848014" />
</svg>
