<svg xmlns="http://www.w3.org/2000/svg" viewBox="-156.94400000000002 -195.568014 313.88800000000003 391.136028">
  <polygon points="-146.76249600000003,-47.049471999999994 -149.63481600000003,-65.10156800000001 -151.776,-81.05599999999998 -148.342272,-100.95552145599999 -144.45811200000003,-122.83737745600004 -134.65305600000002,-138.42842092800004 -123.78393600000001,-154.970372928 -108.35174400000002,-166.187657072 -91.67270400000001,-177.663881072 -71.35756799999999,-184.442124544 -50.043648,-191.126796544 -25.589760000000012,-193.400718 -0.8160000000000025,-195.568014 23.92294400000003,-193.217932544 51.08812800000002,-190.47834854400006 71.374976,-183.42810507200005 93.43526400000002,-175.34861707200002 108.66944000000001,-163.598212928 125.08953600000001,-150.387716928 134.670464,-133.937153456 144.915072,-115.804545456 148.242176,-94.65382400000001 151.776,-71.80799999999999 125.82343744152745,-71.80799999999998 134.261376,-64.04620800000001 144.505984,-45.9136 151.26899200000003,-32.544256000000004 154.80281600000004,-9.698431999999983 156.94400000000002,6.256 153.05984000000004,28.137856000000056 144.09653404482816,41.779307826069406 146.76249600000003,47.049471999999994 149.63481600000003,65.10156800000001 151.776,81.05599999999998 148.342272,100.95552145599999 144.45811200000003,122.83737745600004 134.65305600000002,138.42842092800004 123.78393600000001,154.970372928 108.35174400000002,166.187657072 91.67270400000001,177.663881072 71.35756799999999,184.442124544 50.043648,191.126796544 25.589760000000012,193.400718 0.8160000000000025,195.568014 -23.92294400000003,193.217932544 -51.08812800000002,190.47834854400006 -71.374976,183.42810507200005 -93.43526400000002,175.34861707200002 -108.66944000000001,163.598212928 -125.08953600000001,150.387716928 -134.670464,133.937153456 -144.915072,115.804545456 -148.242176,94.65382400000001 -151.776,71.80799999999999 -125.82343744152745,71.80799999999999 -125.82343744152745,71.80799999999998 -134.261376,64.04620800000001 -144.505984,45.9136 -151.26899200000003,32.544256000000004 -154.80281600000004,9.698431999999983 -156.94400000000002,-6.256 -153.05984000000004,-28.137856000000056 -144.09653404482816,-41.779307826069406" />
</svg>
