<svg xmlns="http://www.w3.org/2000/svg" viewBox="3.1522812651304704 0.1443867 145.09890774372826 185.78961329999998">
  <polygon points="63.947,75.81650035 46.233,67.41850035 44.86279999999999,65.0368 40.0008,52.7628 40.17154597668806,52.375371311778906 39.824,51.498 39.824,50.5052 40.9307,47.2344 47.628699999999995,32.0364 50.68359999999999,30.927999999999997 73.90559999999999,24.094 97.19559999999998,30.18 100.49529999749998,31.4754 108.69895062586623,49.118 140.91414368497175,49.118 125.09450646323909,14.011402232277916 74.7624,0.1443867 24.57789908002321,13.469132838127635 6.219615163973014,51.13898472557851 21.0032999975,84.6854 57.060298242153216,99.49732617186801 83.4256,104.878 103.1456,112.596 106.4452999975,113.8914 113.1092999975,128.7494 114.25679999500001,132.3092 113.0531999975,135.94380035 104.11119999750001,154.13380034999997 100.90840000000001,155.42240069999997 75.85040000000001,161.98440069999998 73.19500000000001,161.22450035 44.839,152.01050035 43.468799999999995,149.62879999999998 35.595783342064706,130.7044007 3.1522812651304704,130.7044007 20.490220894366477,170.04071813081063 75.5376,185.934 127.75409393968685,172.68648209307938 148.25118900885874,131.7854605686864 135.77227025159394,100.90238105430443 89.43751548163848,81.14342379632771 66.6024,76.57640070000001" />
</svg>
