<svg xmlns="http://www.w3.org/2000/svg" viewBox="2.0293670116772997 0.21784723294089775 152.7038730201621 185.85658687942978">
  <polygon points="46.3888,46.361999999999995 47.385408,39.78830400000001 50.575424,33.789072000000004 56.25913600000001,28.873488 64.736832,25.55073600000001 76.30879999999999,24.330000000000002 78.3488,24.330000000000002 88.94592,25.28744 97.91104000000001,28.203280000000003 104.78720000000001,33.14280000000001 109.11744000000002,40.17128000000001 110.44480000000004,49.35399999999999 148.7952609061913,49.35399999999999 146.965696,37.723279194000014 137.384768,21.272715722 122.15059200000002,9.522311578000002 101.86374400000003,2.4720681060000005 78.13390952985375,0.21784723294089775 54.710912000000015,2.3959081059999985 34.395776000000005,9.174151578 18.963584,20.391435722 9.158528000000004,35.98247919400001 6.5128691232867615,51.314895035444664 8.59712,64.41409600000001 16.56128,78.17076800000002 28.63808,88.23259200000001 43.84832000000001,95.20014400000002 61.2128,99.674 87.86880000000001,105.114 97.297408,107.56635200000001 104.67622400000002,110.82817600000003 109.97913600000001,115.12142400000002 113.18003200000003,120.66804800000004 114.25280000000001,127.69000000000001 114.25280000000001,137.21000065 112.77964800000002,145.73774465 108.47334400000001,152.62043265000003 101.50361600000002,157.71444865000004 92.04019200000005,160.87617665000002 80.25280000000001,161.96200065 78.2128,161.96200065 64.255936,160.35393665 53.837248,155.88660865000003 46.643392000000006,149.09531265000004 42.361024000000015,140.51534465000006 40.676800000000014,130.68200065000002 2.0293670116772997,130.68200065 2.0293670116772997,130.68200065 4.090623999999998,144.007824 14.335232000000003,162.140432 30.755328000000002,175.350928 52.81561600000001,183.43041600000004 79.0331871793776,186.07443411237068 102.71456,184.002704 124.02848,177.318032 140.70752000000002,165.841808 151.57664000000003,149.29985600000003 154.7332400318394,131.5167916189479 153.31961600000002,120.98356865000001 146.556608,107.61422465000001 134.66259200000002,96.67329665 117.12838400000004,88.00411265000002 93.4448,81.45000065 68.9648,76.55400065 60.03667200000001,73.88187265000002 53.615296,70.25665665000001 49.400384,65.90030465000001 47.09164800000002,61.03476865000002 46.3888,55.88200065" />
</svg>
