<svg xmlns="http://www.w3.org/2000/svg" viewBox="2.0293670116772997 0.30284361648182717 147.9667966238772 185.77159049588886">
  <polygon points="55.8569024,73.29826922120002 49.43552639999999,69.6730532212 48.72495359999999,68.99936342880001 44.51004160000001,64.64301142880001 42.20130560000001,59.77747542880002 41.786451200000016,58.89880646760002 41.0836032,53.7460384676 40.9488,52.6996 41.0836032,51.6597984 42.0802112,45.08610240000001 42.495065600000004,44.21145920000001 45.685081600000004,38.2122272 46.3956544,37.5406048 50.440905585515445,34.04205103733554 50.575424,33.789072000000004 56.25913600000001,28.873488 64.736832,25.55073600000001 76.30879999999999,24.330000000000002 78.3488,24.330000000000002 88.94592,25.28744 97.91104000000001,28.203280000000003 104.78720000000001,33.14280000000001 109.11744000000002,40.17128000000001 110.44480000000004,49.35399999999999 143.8260606033177,49.35399999999999 141.6963518160826,35.815235554642776 132.62725068987982,20.243484706438288 118.15096317794286,9.077654091773011 98.80078333888503,2.352928836654833 77.21985331299078,0.30284361648182717 54.710912000000015,2.3959081059999985 34.395776000000005,9.174151578 18.963584,20.391435722 9.158528000000004,35.98247919400001 6.5128691232867615,51.314895035444664 8.59712,64.41409600000001 16.56128,78.17076800000002 28.63808,88.23259200000001 43.84832000000001,95.20014400000002 61.2128,99.674 87.86880000000001,105.114 97.297408,107.56635200000001 104.67622400000002,110.82817600000003 109.97913600000001,115.12142400000002 113.18003200000003,120.66804800000004 114.25280000000001,127.69000000000001 114.25280000000001,137.21000065 112.77964800000002,145.73774465 108.47334400000001,152.62043265000003 101.50361600000002,157.71444865000004 92.04019200000005,160.87617665000002 80.25280000000001,161.96200065 76.40400000000001,161.96200065 75.0549888,161.8098981824 61.09812480000001,160.2018341824 60.076166400000005,159.77033322120002 49.657478399999995,155.30300522120004 42.4636224,148.51170922120005 41.7530496,147.83801942880004 37.470681600000006,139.25805142880006 37.05582720000001,138.37938246760007 35.737444034073306,130.68200065000002 2.0293670116772997,130.68200065 2.0293670116772997,130.68200065 4.090623999999998,144.007824 14.335232000000003,162.140432 30.755328000000002,175.350928 52.81561600000001,183.43041600000004 79.0331871793776,186.07443411237068 102.71456,184.002704 124.02848,177.318032 137.08632862434885,168.33341443381408 146.33060794833946,154.26434307826318 149.9961636355545,133.61401927398626 148.0251182432924,118.92732738774089 141.6852410648118,106.39444277236602 130.48282240000003,96.0896932212 113.6316742306933,87.75822458053013 90.2869888,81.2978981824 65.8069888,76.4018981824 56.878860800000005,73.72977018240002" />
</svg>
