<svg xmlns="http://www.w3.org/2000/svg" viewBox="2.5178226822363987 0.601088863182893 143.6019640268827 181.89797940793508">
  <polygon points="75.62639999999999,21.14666666666667 78.34639999999999,21.14666666666667 88.94351999999999,22.104106666666667 97.90864,25.01994666666667 104.7848,29.95946666666667 109.11504000000001,36.98794666666668 110.4424,46.17066666666665 139.92514787492178,46.170666666666655 139.9251478749218,46.17066666666667 139.92514787492178,46.170666666666655 139.92514787492178,46.170666666666655 138.59476266666667,37.71327941066668 129.01383466666667,21.26271593866667 113.77965866666669,9.512311794666669 93.4928106666667,2.4620683226666675 73.90256773454281,0.601088863182893 54.70851200000001,2.3859083226666655 34.393376,9.164151794666667 18.961184000000003,20.38143593866667 9.156128000000002,35.97247941066667 6.77315883104901,49.78252671392619 8.594719999999999,61.23076266666668 16.558880000000002,74.98743466666669 28.63568,85.04925866666667 43.84592000000001,92.01681066666669 61.2104,96.49066666666667 87.8664,101.93066666666667 97.295008,104.38301866666667 104.67382400000001,107.64484266666669 109.976736,111.93809066666668 113.17763200000002,117.4847146666667 114.2504,124.50666666666667 114.2504,137.20000086666667 112.77724800000001,145.72774486666665 108.470944,152.61043286666668 101.50121600000001,157.7044488666667 92.03779200000004,160.86617686666668 80.2504,161.95200086666665 77.5304,161.95200086666665 75.32290800837221,161.69766089444758 72.56186666666667,161.95200086666665 69.84186666666668,161.95200086666665 55.88500266666668,160.34393686666667 45.46631466666666,155.8766088666667 38.272458666666665,149.0853128666667 33.990090666666674,140.50534486666672 32.3058666666667,130.67200086666665 2.5178226822364023,130.67200086666665 2.5178226822364023,130.67200086666665 2.5178226822363987,130.67200086666662 2.5178226822364023,130.67200086666665 4.0882239999999985,140.8244906666667 14.332832000000002,158.9570986666667 30.752928000000004,172.1675946666667 52.81321600000001,180.24708266666673 75.14346880855526,182.49906827111798 94.34362666666668,180.81937066666669 115.65754666666668,174.13469866666668 132.33658666666668,162.65847466666668 143.20570666666669,146.11652266666673 146.1197867091191,129.69972215859968 144.94868266666668,120.97356886666667 138.18567466666667,107.60422486666667 126.29165866666669,96.66329686666666 108.75745066666671,87.99411286666668 85.07386666666667,81.44000086666667 60.59386666666667,76.54400086666666 51.66573866666667,73.87187286666668 45.24436266666666,70.24665686666667 41.029450666666676,65.89030486666667 38.72071466666668,61.02476886666668 38.01786666666666,55.87200086666667 38.01786666666666,43.178666666666665 39.01447466666667,36.604970666666674 42.20449066666667,30.605738666666667 47.88820266666667,25.690154666666665 56.36589866666668,22.367402666666678 67.93786666666666,21.14666666666667 70.65786666666666,21.14666666666667 73.33420886450222,21.38847171123497" />
</svg>
