<svg xmlns="http://www.w3.org/2000/svg" viewBox="2.5178226822363987 0.3531294886424364 144.30251862228752 182.16037984993955">
  <polygon points="53.78124586666667,73.09373496160002 47.35986986666666,69.46851896160001 46.41243946666666,68.57026590506668 42.19752746666667,64.21391390506668 39.88879146666668,59.348377905066684 39.335652266666685,58.176819290133345 38.63280426666667,53.02405129013333 38.453066666666665,51.6288 38.548230399999994,50.5917184 38.96358599843074,47.8520038522723 38.32613333333333,43.178666666666665 39.32274133333333,36.604970666666674 42.51275733333333,30.605738666666667 48.19646933333334,25.690154666666665 56.67416533333334,22.367402666666678 68.24613333333333,21.14666666666667 70.92986666666667,21.14666666666667 73.45969378067922,21.37523420879509 75.62639999999999,21.14666666666667 78.34639999999999,21.14666666666667 88.94351999999999,22.104106666666667 97.90864,25.01994666666667 104.7848,29.95946666666667 109.11504000000001,36.98794666666668 110.44240000000002,46.17066666666667 140.98808080442365,46.17066666666667 140.98808080442365,46.17066666666667 140.98808080442362,46.170666666666655 140.98808080442362,46.170666666666655 139.2575037547768,35.169221224856855 130.35901158650654,19.890407917917816 116.13535357059057,8.919435146364052 97.09739645184665,2.3032159635397726 76.56913775065438,0.3531294886424364 54.70851200000001,2.3859083226666655 34.393376,9.164151794666667 18.961184000000003,20.38143593866667 9.156128000000002,35.97247941066667 6.77315883104901,49.78252671392619 8.594719999999999,61.23076266666668 16.558880000000002,74.98743466666669 28.63568,85.04925866666667 43.84592000000001,92.01681066666669 61.2104,96.49066666666667 87.8664,101.93066666666667 97.295008,104.38301866666667 104.67382400000001,107.64484266666669 109.976736,111.93809066666668 113.17763200000002,117.4847146666667 114.2504,124.50666666666667 114.2504,137.20000086666667 112.77724800000001,145.72774486666665 108.470944,152.61043286666668 101.50121600000001,157.7044488666667 92.03779200000004,160.86617686666668 80.2504,161.95200086666665 75.11866666666667,161.95200086666665 73.31998506666667,161.74919757653333 59.36312106666667,160.14113357653335 58.000509866666675,159.5657989616 47.581821866666665,155.09847096160001 40.38796586666667,148.30717496160003 39.44053546666667,147.4089219050667 35.158167466666676,138.82895390506673 34.60502826666668,137.6573952901334 33.40859204543116,130.67200086666665 2.5178226822364023,130.67200086666665 2.5178226822363987,130.67200086666662 4.0882239999999985,140.8244906666667 14.332832000000002,158.9570986666667 30.752928000000004,172.1675946666667 52.81321600000001,180.24708266666673 75.28666363478274,182.51350933858197 94.65189333333335,180.81937066666669 115.96581333333334,174.13469866666668 132.64485333333334,162.65847466666668 143.51397333333335,146.11652266666673 146.8203413045239,127.48972360880084 145.577885657723,118.23191385032082 139.37905208641587,105.97784902982174 128.40716586666667,95.8851589616 111.78370430759097,87.66626210737343 88.55198506666667,81.23719757653333 64.07198506666667,76.34119757653333 55.14385706666667,73.66906957653335" />
</svg>
