<svg xmlns="http://www.w3.org/2000/svg" viewBox="-172.096 -195.120013 328.3039999 385.968027">
  <polygon points="4.10124799999997,188.465292544 -10.91174080757697,183.2090154332722 -17.61088001040001,186.613516544 -47.24799999999999,190.848014 -88.04799999999999,190.848014 -111.22675200000002,188.465292544 -132.016256,181.186569072 -149.267584,168.81600492799998 -161.83180800000002,151.157761456 -168.56,128.016 -168.56,102.72 -172.096,102.72 -172.096,82.864 -172.096,-107.536013 -168.42726400000006,-138.78772500000005 -157.76051200000003,-163.27642900000004 -140.60492800000003,-180.89767700000002 -117.469696,-191.54702100000003 -88.86399999999999,-195.120013 -48.06399999999999,-195.120013 -16.775296010400012,-190.81806100000006 -10.541351929545174,-187.68058795643398 -2.1416960000000103,-191.54702100000003 26.464,-195.120013 67.264,-195.120013 98.55270398959998,-190.81806100000006 123.3656319648,-178.32999700000002 141.42860793519998,-158.282509 152.4674559104,-131.302285 156.2079999,-98.016013 156.2079999,92.384 152.1606399104,126.64729745599999 140.5407999352,154.069252928 122.1318399648,174.205961072 97.71711998959998,186.613516544 68.08,190.848014 27.28,190.848014" />
</svg>
