<svg xmlns="http://www.w3.org/2000/svg" viewBox="0 0 158 196">
  <path fill="#C1C1C1" d="M79.988 195.72C30.756 195.72 0.564 172.6 0.564 130.712H42.724C43.54 147.848 53.876 161.992 80.26 161.992C101.748 161.992 114.26 152.744 114.26 137.24C114.26 124.184 105.284 118.2 87.876 114.664L61.22 109.224C31.028 103.512 5.732 89.912 5.732 55.912C5.732 19.192 35.38 0.151986 79.172 0.151986C123.78 0.151986 152.34 19.736 152.34 58.904H110.452C110.996 41.768 97.124 33.88 78.356 33.88C56.324 33.88 48.436 44.76 48.436 55.912C48.436 64.616 53.876 73.048 71.012 76.584L95.492 81.48C140.372 90.728 157.508 108.136 157.508 136.968C157.508 178.04 123.508 195.72 79.988 195.72Z" />
  <path paint-order="stroke" fill="rgb(102 124.58667348217419 255)" stroke="#080664" stroke-opacity="0.9176470588235294" stroke-width="22.5" stroke-linejoin="round" transform="translate(100.80134400848495 103.95493790831227) scale(0.06666666666666667 0.06666666666666667)" d="M0.624 191L69.44 0.599987H121.936L190.752 191H148.048L135.808 155.368H55.568L43.328 191H0.624ZM65.904 125.176H125.472L96.912 42.216H94.464L65.904 125.176Z" />
  <path paint-order="stroke" fill="rgb(102 255 203.22187540303133)" stroke="#080664" stroke-opacity="0.9176470588235294" stroke-width="22.5" stroke-linejoin="round" transform="translate(9.624776798177376 147.63422226374888) scale(0.06666666666666667 0.06666666666666667)" d="M0.144 191V0.599987H77.12C127.712 0.599987 149.744 26.984 149.744 64.248C149.744 101.24 127.712 127.624 77.12 127.624H40.944V191H0.144ZM40.944 92.264H75.76C98.064 92.264 107.856 81.112 107.856 64.248C107.856 47.112 98.064 35.96 75.76 35.96H40.944V92.264Z" />
  <path paint-order="stroke" fill="rgb(132.35466918640145 102 255)" stroke="#080664" stroke-opacity="0.9176470588235294" stroke-width="22.5" stroke-linejoin="round" transform="translate(76.44141228474614 168.2164216695257) scale(0.06666666666666667 0.06666666666666667)" d="M79.988 195.72C30.756 195.72 0.564 172.6 0.564 130.712H42.724C43.54 147.848 53.876 161.992 80.26 161.992C101.748 161.992 114.26 152.744 114.26 137.24C114.26 124.184 105.284 118.2 87.876 114.664L61.22 109.224C31.028 103.512 5.732 89.912 5.732 55.912C5.732 19.192 35.38 0.151986 79.172 0.151986C123.78 0.151986 152.34 19.736 152.34 58.904H110.452C110.996 41.768 97.124 33.88 78.356 33.88C56.324 33.88 48.436 44.76 48.436 55.912C48.436 64.616 53.876 73.048 71.012 76.584L95.492 81.48C140.372 90.728 157.508 108.136 157.508 136.968C157.508 178.04 123.508 195.72 79.988 195.72Z" />
  <path paint-order="stroke" fill="rgb(255 110.43698985418082 102)" stroke="#080664" stroke-opacity="0.9176470588235294" stroke-width="22.5" stroke-linejoin="round" transform="translate(103.81811577098969 32.36528062472301) scale(0.06666666666666667 0.06666666666666667)" d="M89.008 195.72C31.616 195.72 0.0640001 159 0.0640001 98.616C0.0640001 36.056 34.88 0.151986 88.192 0.151986C128.176 0.151986 162.992 19.736 168.704 62.984H128.448C122.736 40.68 103.968 35.24 88.192 35.24C53.92 35.24 41.408 62.44 41.408 97.256C41.408 132.888 54.736 160.632 89.008 160.632C109.136 160.632 131.712 151.112 131.712 120.92H94.992V88.28H172.24V108.136C172.24 165.8 140.96 195.72 89.008 195.72Z" />
  <path paint-order="stroke" fill="rgb(102 255 137.95665935264938)" stroke="#080664" stroke-opacity="0.9176470588235294" stroke-width="22.5" stroke-linejoin="round" transform="translate(58.471020576335576 4.764299290117123) scale(0.06666666666666667 0.06666666666666667)" d="M115.472 191V112.664H40.944V191H0.144V0.599987H40.944V78.936H115.472V0.599987H156.272V191H115.472Z" />
  <path paint-order="stroke" fill="rgb(255 224.58201288133768 102)" stroke="#080664" stroke-opacity="0.9176470588235294" stroke-width="22.5" stroke-linejoin="round" transform="translate(80.08919184565043 18.161848743564082) scale(0.06666666666666667 0.06666666666666667)" d="M0.624 191L69.44 0.599987H121.936L190.752 191H148.048L135.808 155.368H55.568L43.328 191H0.624ZM65.904 125.176H125.472L96.912 42.216H94.464L65.904 125.176Z" />
  <path paint-order="stroke" fill="rgb(255 242.83261187602216 102)" stroke="#080664" stroke-opacity="0.9176470588235294" stroke-width="22.5" stroke-linejoin="round" transform="translate(55.810144760706805 20.345127217839167) scale(0.06666666666666667 0.06666666666666667)" d="M89.008 195.72C31.616 195.72 0.0640001 159 0.0640001 98.616C0.0640001 36.056 34.88 0.151986 88.192 0.151986C128.176 0.151986 162.992 19.736 168.704 62.984H128.448C122.736 40.68 103.968 35.24 88.192 35.24C53.92 35.24 41.408 62.44 41.408 97.256C41.408 132.888 54.736 160.632 89.008 160.632C109.136 160.632 131.712 151.112 131.712 120.92H94.992V88.28H172.24V108.136C172.24 165.8 140.96 195.72 89.008 195.72Z" />
  <path paint-order="stroke" fill="rgb(255 227.80333694082103 102)" stroke="#080664" stroke-opacity="0.9176470588235294" stroke-width="22.5" stroke-linejoin="round" transform="translate(115.37258929250127 167.43507073024549) scale(0.06666666666666667 0.06666666666666667)" d="M0.624 191L69.44 0.599987H121.936L190.752 191H148.048L135.808 155.368H55.568L43.328 191H0.624ZM65.904 125.176H125.472L96.912 42.216H94.464L65.904 125.176Z" />
  <path paint-order="stroke" fill="rgb(102 255 251.0139862721669)" stroke="#080664" stroke-opacity="0.9176470588235294" stroke-width="22.5" stroke-linejoin="round" transform="translate(42.286543634764406 17.820849764773563) scale(0.06666666666666667 0.06666666666666667)" d="M115.472 191V112.664H40.944V191H0.144V0.599987H40.944V78.936H115.472V0.599987H156.272V191H115.472Z" />
  <path paint-order="stroke" fill="rgb(102 255 189.4044431805561)" stroke="#080664" stroke-opacity="0.9176470588235294" stroke-width="22.5" stroke-linejoin="round" transform="translate(63.198888299699426 163.8339706080036) scale(0.06666666666666667 0.06666666666666667)" d="M115.472 191V112.664H40.944V191H0.144V0.599987H40.944V78.936H115.472V0.599987H156.272V191H115.472Z" />
  <path paint-order="stroke" fill="rgb(120.2109429886823 102 255)" stroke="#080664" stroke-opacity="0.9176470588235294" stroke-width="22.5" stroke-linejoin="round" transform="translate(30.2184284811637 27.807809264950876) scale(0.06666666666666667 0.06666666666666667)" d="M0.624 191L69.44 0.599987H121.936L190.752 191H148.048L135.808 155.368H55.568L43.328 191H0.624ZM65.904 125.176H125.472L96.912 42.216H94.464L65.904 125.176Z" />
  <path paint-order="stroke" fill="rgb(109.70436343528952 102 255)" stroke="#080664" stroke-opacity="0.9176470588235294" stroke-width="22.5" stroke-linejoin="round" transform="translate(24.327338678186816 64.86324152417656) scale(0.06666666666666667 0.06666666666666667)" d="M115.472 191V112.664H40.944V191H0.144V0.599987H40.944V78.936H115.472V0.599987H156.272V191H115.472Z" />
  <path paint-order="stroke" fill="rgb(255 102 119.96980365850926)" stroke="#080664" stroke-opacity="0.9176470588235294" stroke-width="22.5" stroke-linejoin="round" transform="translate(16.223323649091014 28.334645581486587) scale(0.06666666666666667 0.06666666666666667)" d="M79.988 195.72C30.756 195.72 0.564 172.6 0.564 130.712H42.724C43.54 147.848 53.876 161.992 80.26 161.992C101.748 161.992 114.26 152.744 114.26 137.24C114.26 124.184 105.284 118.2 87.876 114.664L61.22 109.224C31.028 103.512 5.732 89.912 5.732 55.912C5.732 19.192 35.38 0.151986 79.172 0.151986C123.78 0.151986 152.34 19.736 152.34 58.904H110.452C110.996 41.768 97.124 33.88 78.356 33.88C56.324 33.88 48.436 44.76 48.436 55.912C48.436 64.616 53.876 73.048 71.012 76.584L95.492 81.48C140.372 90.728 157.508 108.136 157.508 136.968C157.508 178.04 123.508 195.72 79.988 195.72Z" />
  <path paint-order="stroke" fill="rgb(102 255 113.45728722204593)" stroke="#080664" stroke-opacity="0.9176470588235294" stroke-width="22.5" stroke-linejoin="round" transform="translate(52.68005335311907 173.35426038024406) scale(0.06666666666666667 0.06666666666666667)" d="M0.144 191V0.599987H40.944V191H0.144Z" />
  <path paint-order="stroke" fill="rgb(102 243.7967102385868 255)" stroke="#080664" stroke-opacity="0.9176470588235294" stroke-width="22.5" stroke-linejoin="round" transform="translate(135.30944997969164 146.92791520680183) scale(0.06666666666666667 0.06666666666666667)" d="M0.144 191V0.599987H40.944V191H0.144Z" />
  <path paint-order="stroke" fill="rgb(184.44639793541643 255 102)" stroke="#080664" stroke-opacity="0.9176470588235294" stroke-width="22.5" stroke-linejoin="round" transform="translate(128.48266902720144 161.98918637219217) scale(0.06666666666666667 0.06666666666666667)" d="M115.472 191V112.664H40.944V191H0.144V0.599987H40.944V78.936H115.472V0.599987H156.272V191H115.472Z" />
  <path paint-order="stroke" fill="rgb(102 255 148.99533385908003)" stroke="#080664" stroke-opacity="0.9176470588235294" stroke-width="22.5" stroke-linejoin="round" transform="translate(114.91114166257759 33.9354175768053) scale(0.06666666666666667 0.06666666666666667)" d="M79.988 195.72C30.756 195.72 0.564 172.6 0.564 130.712H42.724C43.54 147.848 53.876 161.992 80.26 161.992C101.748 161.992 114.26 152.744 114.26 137.24C114.26 124.184 105.284 118.2 87.876 114.664L61.22 109.224C31.028 103.512 5.732 89.912 5.732 55.912C5.732 19.192 35.38 0.151986 79.172 0.151986C123.78 0.151986 152.34 19.736 152.34 58.904H110.452C110.996 41.768 97.124 33.88 78.356 33.88C56.324 33.88 48.436 44.76 48.436 55.912C48.436 64.616 53.876 73.048 71.012 76.584L95.492 81.48C140.372 90.728 157.508 108.136 157.508 136.968C157.508 178.04 123.508 195.72 79.988 195.72Z" />
  <path paint-order="stroke" fill="rgb(255 178.11508367428374 102)" stroke="#080664" stroke-opacity="0.9176470588235294" stroke-width="22.5" stroke-linejoin="round" transform="translate(123.70037057741612 19.25812115137666) scale(0.06666666666666667 0.06666666666666667)" d="M89.008 195.72C31.616 195.72 0.0640001 159 0.0640001 98.616C0.0640001 36.056 34.88 0.151986 88.192 0.151986C128.176 0.151986 162.992 19.736 168.704 62.984H128.448C122.736 40.68 103.968 35.24 88.192 35.24C53.92 35.24 41.408 62.44 41.408 97.256C41.408 132.888 54.736 160.632 89.008 160.632C109.136 160.632 131.712 151.112 131.712 120.92H94.992V88.28H172.24V108.136C172.24 165.8 140.96 195.72 89.008 195.72Z" />
  <path paint-order="stroke" fill="rgb(102 112.59752275718772 255)" stroke="#080664" stroke-opacity="0.9176470588235294" stroke-width="22.5" stroke-linejoin="round" transform="translate(135.37666949558363 32.76240884737514) scale(0.06666666666666667 0.06666666666666667)" d="M0.144 191V0.599987H77.12C127.712 0.599987 149.744 26.984 149.744 64.248C149.744 101.24 127.712 127.624 77.12 127.624H40.944V191H0.144ZM40.944 92.264H75.76C98.064 92.264 107.856 81.112 107.856 64.248C107.856 47.112 98.064 35.96 75.76 35.96H40.944V92.264Z" />
  <path paint-order="stroke" fill="rgb(102 255 187.46365829884456)" stroke="#080664" stroke-opacity="0.9176470588235294" stroke-width="22.5" stroke-linejoin="round" transform="translate(116.53680391252331 137.2355526724809) scale(0.06666666666666667 0.06666666666666667)" d="M89.008 195.72C31.616 195.72 0.0640001 159 0.0640001 98.616C0.0640001 36.056 34.88 0.151986 88.192 0.151986C128.176 0.151986 162.992 19.736 168.704 62.984H128.448C122.736 40.68 103.968 35.24 88.192 35.24C53.92 35.24 41.408 62.44 41.408 97.256C41.408 132.888 54.736 160.632 89.008 160.632C109.136 160.632 131.712 151.112 131.712 120.92H94.992V88.28H172.24V108.136C172.24 165.8 140.96 195.72 89.008 195.72Z" />
  <path paint-order="stroke" fill="rgb(255 102 212.75294956713955)" stroke="#080664" stroke-opacity="0.9176470588235294" stroke-width="22.5" stroke-linejoin="round" transform="translate(39.14030956646102 172.769116009613) scale(0.06666666666666667 0.06666666666666667)" d="M111.392 191L75.216 127.624H40.944V191H0.144V0.599987H77.12C127.712 0.599987 149.744 26.984 149.744 64.248C149.744 91.448 138.048 112.664 111.664 122.184L151.648 191H111.392ZM40.944 92.264H75.76C98.064 92.264 107.856 81.112 107.856 64.248C107.856 47.112 98.064 35.96 75.76 35.96H40.944V92.264Z" />
  <path paint-order="stroke" fill="rgb(102 214.80439759722995 255)" stroke="#080664" stroke-opacity="0.9176470588235294" stroke-width="22.5" stroke-linejoin="round" transform="translate(26.160681218581033 132.12788391343685) scale(0.06666666666666667 0.06666666666666667)" d="M0.624 191L69.44 0.599987H121.936L190.752 191H148.048L135.808 155.368H55.568L43.328 191H0.624ZM65.904 125.176H125.472L96.912 42.216H94.464L65.904 125.176Z" />
  <path paint-order="stroke" fill="rgb(102 222.77445969487553 255)" stroke="#080664" stroke-opacity="0.9176470588235294" stroke-width="22.5" stroke-linejoin="round" transform="translate(139.19021965194614 45.72670634844954) scale(0.06666666666666667 0.06666666666666667)" d="M115.472 191V112.664H40.944V191H0.144V0.599987H40.944V78.936H115.472V0.599987H156.272V191H115.472Z" />
  <path paint-order="stroke" fill="rgb(212.7930356651635 255 102)" stroke="#080664" stroke-opacity="0.9176470588235294" stroke-width="22.5" stroke-linejoin="round" transform="translate(77.92518067811784 98.2324942141485) scale(0.06666666666666667 0.06666666666666667)" d="M79.988 195.72C30.756 195.72 0.564 172.6 0.564 130.712H42.724C43.54 147.848 53.876 161.992 80.26 161.992C101.748 161.992 114.26 152.744 114.26 137.24C114.26 124.184 105.284 118.2 87.876 114.664L61.22 109.224C31.028 103.512 5.732 89.912 5.732 55.912C5.732 19.192 35.38 0.151986 79.172 0.151986C123.78 0.151986 152.34 19.736 152.34 58.904H110.452C110.996 41.768 97.124 33.88 78.356 33.88C56.324 33.88 48.436 44.76 48.436 55.912C48.436 64.616 53.876 73.048 71.012 76.584L95.492 81.48C140.372 90.728 157.508 108.136 157.508 136.968C157.508 178.04 123.508 195.72 79.988 195.72Z" />
  <path paint-order="stroke" fill="rgb(255 244.85334729143696 102)" stroke="#080664" stroke-opacity="0.9176470588235294" stroke-width="22.5" stroke-linejoin="round" transform="translate(130.58685643710137 135.3783673627112) scale(0.06666666666666667 0.06666666666666667)" d="M0.624 191L69.44 0.599987H121.936L190.752 191H148.048L135.808 155.368H55.568L43.328 191H0.624ZM65.904 125.176H125.472L96.912 42.216H94.464L65.904 125.176Z" />
  <path paint-order="stroke" fill="rgb(199.6345820648964 255 102)" stroke="#080664" stroke-opacity="0.9176470588235294" stroke-width="22.5" stroke-linejoin="round" transform="translate(65.17427905918657 179.0332539653572) scale(0.06666666666666667 0.06666666666666667)" d="M111.392 191L75.216 127.624H40.944V191H0.144V0.599987H77.12C127.712 0.599987 149.744 26.984 149.744 64.248C149.744 91.448 138.048 112.664 111.664 122.184L151.648 191H111.392ZM40.944 92.264H75.76C98.064 92.264 107.856 81.112 107.856 64.248C107.856 47.112 98.064 35.96 75.76 35.96H40.944V92.264Z" />
  <path paint-order="stroke" fill="rgb(102 162.69450781594645 255)" stroke="#080664" stroke-opacity="0.9176470588235294" stroke-width="22.5" stroke-linejoin="round" transform="translate(49.04822084521406 73.95122957893138) scale(0.06666666666666667 0.06666666666666667)" d="M79.988 195.72C30.756 195.72 0.564 172.6 0.564 130.712H42.724C43.54 147.848 53.876 161.992 80.26 161.992C101.748 161.992 114.26 152.744 114.26 137.24C114.26 124.184 105.284 118.2 87.876 114.664L61.22 109.224C31.028 103.512 5.732 89.912 5.732 55.912C5.732 19.192 35.38 0.151986 79.172 0.151986C123.78 0.151986 152.34 19.736 152.34 58.904H110.452C110.996 41.768 97.124 33.88 78.356 33.88C56.324 33.88 48.436 44.76 48.436 55.912C48.436 64.616 53.876 73.048 71.012 76.584L95.492 81.48C140.372 90.728 157.508 108.136 157.508 136.968C157.508 178.04 123.508 195.72 79.988 195.72Z" />
  <path paint-order="stroke" fill="rgb(210.84115013011998 102 255)" stroke="#080664" stroke-opacity="0.9176470588235294" stroke-width="22.5" stroke-linejoin="round" transform="translate(144.44849517601182 120.23293272133003) scale(0.06666666666666667 0.06666666666666667)" d="M111.392 191L75.216 127.624H40.944V191H0.144V0.599987H77.12C127.712 0.599987 149.744 26.984 149.744 64.248C149.744 91.448 138.048 112.664 111.664 122.184L151.648 191H111.392ZM40.944 92.264H75.76C98.064 92.264 107.856 81.112 107.856 64.248C107.856 47.112 98.064 35.96 75.76 35.96H40.944V92.264Z" />
  <path paint-order="stroke" fill="rgb(102 255 172.03770312016334)" stroke="#080664" stroke-opacity="0.9176470588235294" stroke-width="22.5" stroke-linejoin="round" transform="translate(140.59465479946934 149.14368412542865) scale(0.06666666666666667 0.06666666666666667)" d="M111.392 191L75.216 127.624H40.944V191H0.144V0.599987H77.12C127.712 0.599987 149.744 26.984 149.744 64.248C149.744 91.448 138.048 112.664 111.664 122.184L151.648 191H111.392ZM40.944 92.264H75.76C98.064 92.264 107.856 81.112 107.856 64.248C107.856 47.112 98.064 35.96 75.76 35.96H40.944V92.264Z" />
  <path paint-order="stroke" fill="rgb(102 223.65448012782 255)" stroke="#080664" stroke-opacity="0.9176470588235294" stroke-width="22.5" stroke-linejoin="round" transform="translate(39.36168737435104 151.68892196184999) scale(0.06666666666666667 0.06666666666666667)" d="M0.144 191V0.599987H77.12C127.712 0.599987 149.744 26.984 149.744 64.248C149.744 101.24 127.712 127.624 77.12 127.624H40.944V191H0.144ZM40.944 92.264H75.76C98.064 92.264 107.856 81.112 107.856 64.248C107.856 47.112 98.064 35.96 75.76 35.96H40.944V92.264Z" />
  <path paint-order="stroke" fill="rgb(241.33613758284523 102 255)" stroke="#080664" stroke-opacity="0.9176470588235294" stroke-width="22.5" stroke-linejoin="round" transform="translate(104.9534945880255 88.59221045449858) scale(0.06666666666666667 0.06666666666666667)" d="M0.144 191V0.599987H77.12C127.712 0.599987 149.744 26.984 149.744 64.248C149.744 101.24 127.712 127.624 77.12 127.624H40.944V191H0.144ZM40.944 92.264H75.76C98.064 92.264 107.856 81.112 107.856 64.248C107.856 47.112 98.064 35.96 75.76 35.96H40.944V92.264Z" />
  <path paint-order="stroke" fill="rgb(102 255 226.27519521109147)" stroke="#080664" stroke-opacity="0.9176470588235294" stroke-width="22.5" stroke-linejoin="round" transform="translate(100.79744908725131 163.74359993198163) scale(0.06666666666666667 0.06666666666666667)" d="M0.624 191L69.44 0.599987H121.936L190.752 191H148.048L135.808 155.368H55.568L43.328 191H0.624ZM65.904 125.176H125.472L96.912 42.216H94.464L65.904 125.176Z" />
  <path paint-order="stroke" fill="rgb(219.8282428433772 255 102)" stroke="#080664" stroke-opacity="0.9176470588235294" stroke-width="22.5" stroke-linejoin="round" transform="translate(36.85488131658147 56.71154025941885) scale(0.06666666666666667 0.06666666666666667)" d="M79.988 195.72C30.756 195.72 0.564 172.6 0.564 130.712H42.724C43.54 147.848 53.876 161.992 80.26 161.992C101.748 161.992 114.26 152.744 114.26 137.24C114.26 124.184 105.284 118.2 87.876 114.664L61.22 109.224C31.028 103.512 5.732 89.912 5.732 55.912C5.732 19.192 35.38 0.151986 79.172 0.151986C123.78 0.151986 152.34 19.736 152.34 58.904H110.452C110.996 41.768 97.124 33.88 78.356 33.88C56.324 33.88 48.436 44.76 48.436 55.912C48.436 64.616 53.876 73.048 71.012 76.584L95.492 81.48C140.372 90.728 157.508 108.136 157.508 136.968C157.508 178.04 123.508 195.72 79.988 195.72Z" />
  <path paint-order="stroke" fill="rgb(255 102 170.34015438194328)" stroke="#080664" stroke-opacity="0.9176470588235294" stroke-width="22.5" stroke-linejoin="round" transform="translate(125.57644824113949 35.4921114800123) scale(0.06666666666666667 0.06666666666666667)" d="M111.392 191L75.216 127.624H40.944V191H0.144V0.599987H77.12C127.712 0.599987 149.744 26.984 149.744 64.248C149.744 91.448 138.048 112.664 111.664 122.184L151.648 191H111.392ZM40.944 92.264H75.76C98.064 92.264 107.856 81.112 107.856 64.248C107.856 47.112 98.064 35.96 75.76 35.96H40.944V92.264Z" />
  <path paint-order="stroke" fill="rgb(102 255 124.2064487424132)" stroke="#080664" stroke-opacity="0.9176470588235294" stroke-width="22.5" stroke-linejoin="round" transform="translate(73.16447096012922 3.744248464794053) scale(0.06666666666666667 0.06666666666666667)" d="M89.008 195.72C31.616 195.72 0.0640001 159 0.0640001 98.616C0.0640001 36.056 34.88 0.151986 88.192 0.151986C128.176 0.151986 162.992 19.736 168.704 62.984H128.448C122.736 40.68 103.968 35.24 88.192 35.24C53.92 35.24 41.408 62.44 41.408 97.256C41.408 132.888 54.736 160.632 89.008 160.632C109.136 160.632 131.712 151.112 131.712 120.92H94.992V88.28H172.24V108.136C172.24 165.8 140.96 195.72 89.008 195.72Z" />
  <path paint-order="stroke" fill="rgb(102 196.2025963946374 255)" stroke="#080664" stroke-opacity="0.9176470588235294" stroke-width="22.5" stroke-linejoin="round" transform="translate(90.84514918173214 95.06296455708585) scale(0.06666666666666667 0.06666666666666667)" d="M89.008 195.72C31.616 195.72 0.0640001 159 0.0640001 98.616C0.0640001 36.056 34.88 0.151986 88.192 0.151986C128.176 0.151986 162.992 19.736 168.704 62.984H128.448C122.736 40.68 103.968 35.24 88.192 35.24C53.92 35.24 41.408 62.44 41.408 97.256C41.408 132.888 54.736 160.632 89.008 160.632C109.136 160.632 131.712 151.112 131.712 120.92H94.992V88.28H172.24V108.136C172.24 165.8 140.96 195.72 89.008 195.72Z" />
  <path paint-order="stroke" fill="rgb(255 102 146.32586430186512)" stroke="#080664" stroke-opacity="0.9176470588235294" stroke-width="22.5" stroke-linejoin="round" transform="translate(131.13449063953058 121.47229425743555) scale(0.06666666666666667 0.06666666666666667)" d="M79.988 195.72C30.756 195.72 0.564 172.6 0.564 130.712H42.724C43.54 147.848 53.876 161.992 80.26 161.992C101.748 161.992 114.26 152.744 114.26 137.24C114.26 124.184 105.284 118.2 87.876 114.664L61.22 109.224C31.028 103.512 5.732 89.912 5.732 55.912C5.732 19.192 35.38 0.151986 79.172 0.151986C123.78 0.151986 152.34 19.736 152.34 58.904H110.452C110.996 41.768 97.124 33.88 78.356 33.88C56.324 33.88 48.436 44.76 48.436 55.912C48.436 64.616 53.876 73.048 71.012 76.584L95.492 81.48C140.372 90.728 157.508 108.136 157.508 136.968C157.508 178.04 123.508 195.72 79.988 195.72Z" />
  <path paint-order="stroke" fill="rgb(255 102 183.97221039953615)" stroke="#080664" stroke-opacity="0.9176470588235294" stroke-width="22.5" stroke-linejoin="round" transform="translate(126.51802701215249 95.57703943483708) scale(0.06666666666666667 0.06666666666666667)" d="M89.008 195.72C31.616 195.72 0.0640001 159 0.0640001 98.616C0.0640001 36.056 34.88 0.151986 88.192 0.151986C128.176 0.151986 162.992 19.736 168.704 62.984H128.448C122.736 40.68 103.968 35.24 88.192 35.24C53.92 35.24 41.408 62.44 41.408 97.256C41.408 132.888 54.736 160.632 89.008 160.632C109.136 160.632 131.712 151.112 131.712 120.92H94.992V88.28H172.24V108.136C172.24 165.8 140.96 195.72 89.008 195.72Z" />
  <path paint-order="stroke" fill="rgb(136.0208064456334 102 255)" stroke="#080664" stroke-opacity="0.9176470588235294" stroke-width="22.5" stroke-linejoin="round" transform="translate(102.32712977807645 18.90067987394481) scale(0.06666666666666667 0.06666666666666667)" d="M0.144 191V0.599987H40.944V191H0.144Z" />
  <path paint-order="stroke" fill="rgb(168.07167246618246 102 255)" stroke="#080664" stroke-opacity="0.9176470588235294" stroke-width="22.5" stroke-linejoin="round" transform="translate(65.51503038018122 79.76927546253313) scale(0.06666666666666667 0.06666666666666667)" d="M79.988 195.72C30.756 195.72 0.564 172.6 0.564 130.712H42.724C43.54 147.848 53.876 161.992 80.26 161.992C101.748 161.992 114.26 152.744 114.26 137.24C114.26 124.184 105.284 118.2 87.876 114.664L61.22 109.224C31.028 103.512 5.732 89.912 5.732 55.912C5.732 19.192 35.38 0.151986 79.172 0.151986C123.78 0.151986 152.34 19.736 152.34 58.904H110.452C110.996 41.768 97.124 33.88 78.356 33.88C56.324 33.88 48.436 44.76 48.436 55.912C48.436 64.616 53.876 73.048 71.012 76.584L95.492 81.48C140.372 90.728 157.508 108.136 157.508 136.968C157.508 178.04 123.508 195.72 79.988 195.72Z" />
  <path paint-order="stroke" fill="rgb(176.27105341153322 255 102)" stroke="#080664" stroke-opacity="0.9176470588235294" stroke-width="22.5" stroke-linejoin="round" transform="translate(24.95432327129843 43.36819416790782) scale(0.06666666666666667 0.06666666666666667)" d="M89.008 195.72C31.616 195.72 0.0640001 159 0.0640001 98.616C0.0640001 36.056 34.88 0.151986 88.192 0.151986C128.176 0.151986 162.992 19.736 168.704 62.984H128.448C122.736 40.68 103.968 35.24 88.192 35.24C53.92 35.24 41.408 62.44 41.408 97.256C41.408 132.888 54.736 160.632 89.008 160.632C109.136 160.632 131.712 151.112 131.712 120.92H94.992V88.28H172.24V108.136C172.24 165.8 140.96 195.72 89.008 195.72Z" />
  <path paint-order="stroke" fill="rgb(139.49080906176113 255 102)" stroke="#080664" stroke-opacity="0.9176470588235294" stroke-width="22.5" stroke-linejoin="round" transform="translate(28.54969511972867 16.67744661866774) scale(0.06666666666666667 0.06666666666666667)" d="M0.144 191V0.599987H77.12C127.712 0.599987 149.744 26.984 149.744 64.248C149.744 101.24 127.712 127.624 77.12 127.624H40.944V191H0.144ZM40.944 92.264H75.76C98.064 92.264 107.856 81.112 107.856 64.248C107.856 47.112 98.064 35.96 75.76 35.96H40.944V92.264Z" />
  <path paint-order="stroke" fill="rgb(133.04469747671413 102 255)" stroke="#080664" stroke-opacity="0.9176470588235294" stroke-width="22.5" stroke-linejoin="round" transform="translate(11.962327888763102 62.67959653847862) scale(0.06666666666666667 0.06666666666666667)" d="M0.144 191V0.599987H77.12C127.712 0.599987 149.744 26.984 149.744 64.248C149.744 101.24 127.712 127.624 77.12 127.624H40.944V191H0.144ZM40.944 92.264H75.76C98.064 92.264 107.856 81.112 107.856 64.248C107.856 47.112 98.064 35.96 75.76 35.96H40.944V92.264Z" />
  <path paint-order="stroke" fill="rgb(102 198.01460552797107 255)" stroke="#080664" stroke-opacity="0.9176470588235294" stroke-width="22.5" stroke-linejoin="round" transform="translate(33.94560326335976 76.83413805099586) scale(0.06666666666666667 0.06666666666666667)" d="M0.624 191L69.44 0.599987H121.936L190.752 191H148.048L135.808 155.368H55.568L43.328 191H0.624ZM65.904 125.176H125.472L96.912 42.216H94.464L65.904 125.176Z" />
  <path paint-order="stroke" fill="rgb(102 255 217.86331338379452)" stroke="#080664" stroke-opacity="0.9176470588235294" stroke-width="22.5" stroke-linejoin="round" transform="translate(47.45257231924108 158.17972715716007) scale(0.06666666666666667 0.06666666666666667)" d="M0.624 191L69.44 0.599987H121.936L190.752 191H148.048L135.808 155.368H55.568L43.328 191H0.624ZM65.904 125.176H125.472L96.912 42.216H94.464L65.904 125.176Z" />
  <path paint-order="stroke" fill="rgb(102 184.8428669763315 255)" stroke="#080664" stroke-opacity="0.9176470588235294" stroke-width="22.5" stroke-linejoin="round" transform="translate(123.74834922665245 95.08681728255958) scale(0.06666666666666667 0.06666666666666667)" d="M0.144 191V0.599987H40.944V191H0.144Z" />
  <path paint-order="stroke" fill="rgb(211.49533804283092 255 102)" stroke="#080664" stroke-opacity="0.9176470588235294" stroke-width="22.5" stroke-linejoin="round" transform="translate(89.79891809048678 177.58899907699228) scale(0.06666666666666667 0.06666666666666667)" d="M79.988 195.72C30.756 195.72 0.564 172.6 0.564 130.712H42.724C43.54 147.848 53.876 161.992 80.26 161.992C101.748 161.992 114.26 152.744 114.26 137.24C114.26 124.184 105.284 118.2 87.876 114.664L61.22 109.224C31.028 103.512 5.732 89.912 5.732 55.912C5.732 19.192 35.38 0.151986 79.172 0.151986C123.78 0.151986 152.34 19.736 152.34 58.904H110.452C110.996 41.768 97.124 33.88 78.356 33.88C56.324 33.88 48.436 44.76 48.436 55.912C48.436 64.616 53.876 73.048 71.012 76.584L95.492 81.48C140.372 90.728 157.508 108.136 157.508 136.968C157.508 178.04 123.508 195.72 79.988 195.72Z" />
  <path paint-order="stroke" fill="rgb(102 203.71075613313582 255)" stroke="#080664" stroke-opacity="0.9176470588235294" stroke-width="22.5" stroke-linejoin="round" transform="translate(27.305403418856283 146.1540570194724) scale(0.06666666666666667 0.06666666666666667)" d="M79.988 195.72C30.756 195.72 0.564 172.6 0.564 130.712H42.724C43.54 147.848 53.876 161.992 80.26 161.992C101.748 161.992 114.26 152.744 114.26 137.24C114.26 124.184 105.284 118.2 87.876 114.664L61.22 109.224C31.028 103.512 5.732 89.912 5.732 55.912C5.732 19.192 35.38 0.151986 79.172 0.151986C123.78 0.151986 152.34 19.736 152.34 58.904H110.452C110.996 41.768 97.124 33.88 78.356 33.88C56.324 33.88 48.436 44.76 48.436 55.912C48.436 64.616 53.876 73.048 71.012 76.584L95.492 81.48C140.372 90.728 157.508 108.136 157.508 136.968C157.508 178.04 123.508 195.72 79.988 195.72Z" />
  <path paint-order="stroke" fill="rgb(255 149.57177978492123 102)" stroke="#080664" stroke-opacity="0.9176470588235294" stroke-width="22.5" stroke-linejoin="round" transform="translate(93.49170504913963 4.106361432058632) scale(0.06666666666666667 0.06666666666666667)" d="M89.008 195.72C31.616 195.72 0.0640001 159 0.0640001 98.616C0.0640001 36.056 34.88 0.151986 88.192 0.151986C128.176 0.151986 162.992 19.736 168.704 62.984H128.448C122.736 40.68 103.968 35.24 88.192 35.24C53.92 35.24 41.408 62.44 41.408 97.256C41.408 132.888 54.736 160.632 89.008 160.632C109.136 160.632 131.712 151.112 131.712 120.92H94.992V88.28H172.24V108.136C172.24 165.8 140.96 195.72 89.008 195.72Z" />
  <path paint-order="stroke" fill="rgb(182.3715366493206 102 255)" stroke="#080664" stroke-opacity="0.9176470588235294" stroke-width="22.5" stroke-linejoin="round" transform="translate(65.83776937804292 95.04934868825384) scale(0.06666666666666667 0.06666666666666667)" d="M79.988 195.72C30.756 195.72 0.564 172.6 0.564 130.712H42.724C43.54 147.848 53.876 161.992 80.26 161.992C101.748 161.992 114.26 152.744 114.26 137.24C114.26 124.184 105.284 118.2 87.876 114.664L61.22 109.224C31.028 103.512 5.732 89.912 5.732 55.912C5.732 19.192 35.38 0.151986 79.172 0.151986C123.78 0.151986 152.34 19.736 152.34 58.904H110.452C110.996 41.768 97.124 33.88 78.356 33.88C56.324 33.88 48.436 44.76 48.436 55.912C48.436 64.616 53.876 73.048 71.012 76.584L95.492 81.48C140.372 90.728 157.508 108.136 157.508 136.968C157.508 178.04 123.508 195.72 79.988 195.72Z" />
  <path paint-order="stroke" fill="rgb(255 102 245.96862377532113)" stroke="#080664" stroke-opacity="0.9176470588235294" stroke-width="22.5" stroke-linejoin="round" transform="translate(11.467125591480166 132.83987623009816) scale(0.06666666666666667 0.06666666666666667)" d="M0.144 191V0.599987H40.944V191H0.144Z" />
  <path paint-order="stroke" fill="rgb(190.01027143273657 102 255)" stroke="#080664" stroke-opacity="0.9176470588235294" stroke-width="22.5" stroke-linejoin="round" transform="translate(129.144491429947 109.0028449466498) scale(0.06666666666666667 0.06666666666666667)" d="M0.624 191L69.44 0.599987H121.936L190.752 191H148.048L135.808 155.368H55.568L43.328 191H0.624ZM65.904 125.176H125.472L96.912 42.216H94.464L65.904 125.176Z" />
  <path paint-order="stroke" fill="rgb(255 169.00447404397602 102)" stroke="#080664" stroke-opacity="0.9176470588235294" stroke-width="22.5" stroke-linejoin="round" transform="translate(109.75340579339867 16.35166201834454) scale(0.06666666666666667 0.06666666666666667)" d="M115.472 191V112.664H40.944V191H0.144V0.599987H40.944V78.936H115.472V0.599987H156.272V191H115.472Z" />
  <path paint-order="stroke" fill="rgb(255 150.62540574864826 102)" stroke="#080664" stroke-opacity="0.9176470588235294" stroke-width="22.5" stroke-linejoin="round" transform="translate(21.6037205454443 142.27558736892328) scale(0.06666666666666667 0.06666666666666667)" d="M0.144 191V0.599987H40.944V191H0.144Z" />
  <path paint-order="stroke" fill="rgb(102 176.2922661944014 255)" stroke="#080664" stroke-opacity="0.9176470588235294" stroke-width="22.5" stroke-linejoin="round" transform="translate(116.70514876209762 114.09972377679982) scale(0.06666666666666667 0.06666666666666667)" d="M79.988 195.72C30.756 195.72 0.564 172.6 0.564 130.712H42.724C43.54 147.848 53.876 161.992 80.26 161.992C101.748 161.992 114.26 152.744 114.26 137.24C114.26 124.184 105.284 118.2 87.876 114.664L61.22 109.224C31.028 103.512 5.732 89.912 5.732 55.912C5.732 19.192 35.38 0.151986 79.172 0.151986C123.78 0.151986 152.34 19.736 152.34 58.904H110.452C110.996 41.768 97.124 33.88 78.356 33.88C56.324 33.88 48.436 44.76 48.436 55.912C48.436 64.616 53.876 73.048 71.012 76.584L95.492 81.48C140.372 90.728 157.508 108.136 157.508 136.968C157.508 178.04 123.508 195.72 79.988 195.72Z" />
  <path paint-order="stroke" fill="rgb(136.6098351077478 255 102)" stroke="#080664" stroke-opacity="0.9176470588235294" stroke-width="22.5" stroke-linejoin="round" transform="translate(9.54512593062617 46.949311493586585) scale(0.06666666666666667 0.06666666666666667)" d="M79.988 195.72C30.756 195.72 0.564 172.6 0.564 130.712H42.724C43.54 147.848 53.876 161.992 80.26 161.992C101.748 161.992 114.26 152.744 114.26 137.24C114.26 124.184 105.284 118.2 87.876 114.664L61.22 109.224C31.028 103.512 5.732 89.912 5.732 55.912C5.732 19.192 35.38 0.151986 79.172 0.151986C123.78 0.151986 152.34 19.736 152.34 58.904H110.452C110.996 41.768 97.124 33.88 78.356 33.88C56.324 33.88 48.436 44.76 48.436 55.912C48.436 64.616 53.876 73.048 71.012 76.584L95.492 81.48C140.372 90.728 157.508 108.136 157.508 136.968C157.508 178.04 123.508 195.72 79.988 195.72Z" />
  <path paint-order="stroke" fill="rgb(255 102 202.65648905381212)" stroke="#080664" stroke-opacity="0.9176470588235294" stroke-width="22.5" stroke-linejoin="round" transform="translate(80.97201896622374 82.97431885871458) scale(0.06666666666666667 0.06666666666666667)" d="M89.008 195.72C31.616 195.72 0.0640001 159 0.0640001 98.616C0.0640001 36.056 34.88 0.151986 88.192 0.151986C128.176 0.151986 162.992 19.736 168.704 62.984H128.448C122.736 40.68 103.968 35.24 88.192 35.24C53.92 35.24 41.408 62.44 41.408 97.256C41.408 132.888 54.736 160.632 89.008 160.632C109.136 160.632 131.712 151.112 131.712 120.92H94.992V88.28H172.24V108.136C172.24 165.8 140.96 195.72 89.008 195.72Z" />
  <path paint-order="stroke" fill="rgb(255 202.34351893976944 102)" stroke="#080664" stroke-opacity="0.9176470588235294" stroke-width="22.5" stroke-linejoin="round" transform="translate(51.88077121735381 90.18918742782988) scale(0.06666666666666667 0.06666666666666667)" d="M115.472 191V112.664H40.944V191H0.144V0.599987H40.944V78.936H115.472V0.599987H156.272V191H115.472Z" />
  <path paint-order="stroke" fill="rgb(102 219.90464272477928 255)" stroke="#080664" stroke-opacity="0.9176470588235294" stroke-width="22.5" stroke-linejoin="round" transform="translate(25.600460669918238 161.7365063871726) scale(0.06666666666666667 0.06666666666666667)" d="M79.988 195.72C30.756 195.72 0.564 172.6 0.564 130.712H42.724C43.54 147.848 53.876 161.992 80.26 161.992C101.748 161.992 114.26 152.744 114.26 137.24C114.26 124.184 105.284 118.2 87.876 114.664L61.22 109.224C31.028 103.512 5.732 89.912 5.732 55.912C5.732 19.192 35.38 0.151986 79.172 0.151986C123.78 0.151986 152.34 19.736 152.34 58.904H110.452C110.996 41.768 97.124 33.88 78.356 33.88C56.324 33.88 48.436 44.76 48.436 55.912C48.436 64.616 53.876 73.048 71.012 76.584L95.492 81.48C140.372 90.728 157.508 108.136 157.508 136.968C157.508 178.04 123.508 195.72 79.988 195.72Z" />
  <path paint-order="stroke" fill="rgb(230.79005990409374 102 255)" stroke="#080664" stroke-opacity="0.9176470588235294" stroke-width="22.5" stroke-linejoin="round" transform="translate(111.40725833256404 98.05227357046421) scale(0.06666666666666667 0.06666666666666667)" d="M89.008 195.72C31.616 195.72 0.0640001 159 0.0640001 98.616C0.0640001 36.056 34.88 0.151986 88.192 0.151986C128.176 0.151986 162.992 19.736 168.704 62.984H128.448C122.736 40.68 103.968 35.24 88.192 35.24C53.92 35.24 41.408 62.44 41.408 97.256C41.408 132.888 54.736 160.632 89.008 160.632C109.136 160.632 131.712 151.112 131.712 120.92H94.992V88.28H172.24V108.136C172.24 165.8 140.96 195.72 89.008 195.72Z" />
</svg>
