<svg xmlns="http://www.w3.org/2000/svg" viewBox="0 0 158 196">
  <path fill="#C1C1C1" d="M79.988 195.72C30.756 195.72 0.564 172.6 0.564 130.712H42.724C43.54 147.848 53.876 161.992 80.26 161.992C101.748 161.992 114.26 152.744 114.26 137.24C114.26 124.184 105.284 118.2 87.876 114.664L61.22 109.224C31.028 103.512 5.732 89.912 5.732 55.912C5.732 19.192 35.38 0.151986 79.172 0.151986C123.78 0.151986 152.34 19.736 152.34 58.904H110.452C110.996 41.768 97.124 33.88 78.356 33.88C56.324 33.88 48.436 44.76 48.436 55.912C48.436 64.616 53.876 73.048 71.012 76.584L95.492 81.48C140.372 90.728 157.508 108.136 157.508 136.968C157.508 178.04 123.508 195.72 79.988 195.72Z" />
  <path paint-order="stroke" fill="rgb(102 124.58667348217419 255)" stroke="#080664" stroke-opacity="0.9176470588235294" stroke-width="22.5" stroke-linejoin="round" transform="translate(96.69030149688155 101.17332876882604) scale(0.06666666666666667 0.06666666666666667)" d="M0.624 191L69.44 0.599987H121.936L190.752 191H148.048L135.808 155.368H55.568L43.328 191H0.624ZM65.904 125.176H125.472L96.912 42.216H94.464L65.904 125.176Z" />
  <path paint-order="stroke" fill="rgb(102 255 203.22187540303133)" stroke="#080664" stroke-opacity="0.9176470588235294" stroke-width="22.5" stroke-linejoin="round" transform="translate(12.947714861148773 149.76866290387485) scale(0.06666666666666667 0.06666666666666667)" d="M0.144 191V0.599987H77.12C127.712 0.599987 149.744 26.984 149.744 64.248C149.744 101.24 127.712 127.624 77.12 127.624H40.944V191H0.144ZM40.944 92.264H75.76C98.064 92.264 107.856 81.112 107.856 64.248C107.856 47.112 98.064 35.96 75.76 35.96H40.944V92.264Z" />
  <path paint-order="stroke" fill="rgb(132.35466918640145 102 255)" stroke="#080664" stroke-opacity="0.9176470588235294" stroke-width="22.5" stroke-linejoin="round" transform="translate(79.04003572593432 164.54659307784894) scale(0.06666666666666667 0.06666666666666667)" d="M79.988 195.72C30.756 195.72 0.564 172.6 0.564 130.712H42.724C43.54 147.848 53.876 161.992 80.26 161.992C101.748 161.992 114.26 152.744 114.26 137.24C114.26 124.184 105.284 118.2 87.876 114.664L61.22 109.224C31.028 103.512 5.732 89.912 5.732 55.912C5.732 19.192 35.38 0.151986 79.172 0.151986C123.78 0.151986 152.34 19.736 152.34 58.904H110.452C110.996 41.768 97.124 33.88 78.356 33.88C56.324 33.88 48.436 44.76 48.436 55.912C48.436 64.616 53.876 73.048 71.012 76.584L95.492 81.48C140.372 90.728 157.508 108.136 157.508 136.968C157.508 178.04 123.508 195.72 79.988 195.72Z" />
  <path paint-order="stroke" fill="rgb(255 110.43698985418082 102)" stroke="#080664" stroke-opacity="0.9176470588235294" stroke-width="22.5" stroke-linejoin="round" transform="translate(92.30949325939591 21.194219175327024) scale(0.06666666666666667 0.06666666666666667)" d="M89.008 195.72C31.616 195.72 0.0640001 159 0.0640001 98.616C0.0640001 36.056 34.88 0.151986 88.192 0.151986C128.176 0.151986 162.992 19.736 168.704 62.984H128.448C122.736 40.68 103.968 35.24 88.192 35.24C53.92 35.24 41.408 62.44 41.408 97.256C41.408 132.888 54.736 160.632 89.008 160.632C109.136 160.632 131.712 151.112 131.712 120.92H94.992V88.28H172.24V108.136C172.24 165.8 140.96 195.72 89.008 195.72Z" />
  <path paint-order="stroke" fill="rgb(102 255 137.95665935264938)" stroke="#080664" stroke-opacity="0.9176470588235294" stroke-width="22.5" stroke-linejoin="round" transform="translate(56.524953828728094 5.105438127718799) scale(0.06666666666666667 0.06666666666666667)" d="M115.472 191V112.664H40.944V191H0.144V0.599987H40.944V78.936H115.472V0.599987H156.272V191H115.472Z" />
  <path paint-order="stroke" fill="rgb(255 224.58201288133768 102)" stroke="#080664" stroke-opacity="0.9176470588235294" stroke-width="22.5" stroke-linejoin="round" transform="translate(69.74713440238902 18.152219624539256) scale(0.06666666666666667 0.06666666666666667)" d="M0.624 191L69.44 0.599987H121.936L190.752 191H148.048L135.808 155.368H55.568L43.328 191H0.624ZM65.904 125.176H125.472L96.912 42.216H94.464L65.904 125.176Z" />
  <path paint-order="stroke" fill="rgb(255 242.83261187602216 102)" stroke="#080664" stroke-opacity="0.9176470588235294" stroke-width="22.5" stroke-linejoin="round" transform="translate(55.817718215461554 20.398032915177875) scale(0.06666666666666667 0.06666666666666667)" d="M89.008 195.72C31.616 195.72 0.0640001 159 0.0640001 98.616C0.0640001 36.056 34.88 0.151986 88.192 0.151986C128.176 0.151986 162.992 19.736 168.704 62.984H128.448C122.736 40.68 103.968 35.24 88.192 35.24C53.92 35.24 41.408 62.44 41.408 97.256C41.408 132.888 54.736 160.632 89.008 160.632C109.136 160.632 131.712 151.112 131.712 120.92H94.992V88.28H172.24V108.136C172.24 165.8 140.96 195.72 89.008 195.72Z" />
  <path paint-order="stroke" fill="rgb(255 227.80333694082103 102)" stroke="#080664" stroke-opacity="0.9176470588235294" stroke-width="22.5" stroke-linejoin="round" transform="translate(103.98582648690663 173.92875367579651) scale(0.06666666666666667 0.06666666666666667)" d="M0.624 191L69.44 0.599987H121.936L190.752 191H148.048L135.808 155.368H55.568L43.328 191H0.624ZM65.904 125.176H125.472L96.912 42.216H94.464L65.904 125.176Z" />
  <path paint-order="stroke" fill="rgb(102 255 251.0139862721669)" stroke="#080664" stroke-opacity="0.9176470588235294" stroke-width="22.5" stroke-linejoin="round" transform="translate(42.473670840155954 16.453861428492537) scale(0.06666666666666667 0.06666666666666667)" d="M115.472 191V112.664H40.944V191H0.144V0.599987H40.944V78.936H115.472V0.599987H156.272V191H115.472Z" />
  <path paint-order="stroke" fill="rgb(102 255 189.4044431805561)" stroke="#080664" stroke-opacity="0.9176470588235294" stroke-width="22.5" stroke-linejoin="round" transform="translate(65.14716805585307 164.18910203029725) scale(0.06666666666666667 0.06666666666666667)" d="M115.472 191V112.664H40.944V191H0.144V0.599987H40.944V78.936H115.472V0.599987H156.272V191H115.472Z" />
  <path paint-order="stroke" fill="rgb(120.2109429886823 102 255)" stroke="#080664" stroke-opacity="0.9176470588235294" stroke-width="22.5" stroke-linejoin="round" transform="translate(31.25006653895265 29.37818208750522) scale(0.06666666666666667 0.06666666666666667)" d="M0.624 191L69.44 0.599987H121.936L190.752 191H148.048L135.808 155.368H55.568L43.328 191H0.624ZM65.904 125.176H125.472L96.912 42.216H94.464L65.904 125.176Z" />
  <path paint-order="stroke" fill="rgb(109.70436343528952 102 255)" stroke="#080664" stroke-opacity="0.9176470588235294" stroke-width="22.5" stroke-linejoin="round" transform="translate(16.658048264271965 68.64009845443498) scale(0.06666666666666667 0.06666666666666667)" d="M115.472 191V112.664H40.944V191H0.144V0.599987H40.944V78.936H115.472V0.599987H156.272V191H115.472Z" />
  <path paint-order="stroke" fill="rgb(255 102 119.96980365850926)" stroke="#080664" stroke-opacity="0.9176470588235294" stroke-width="22.5" stroke-linejoin="round" transform="translate(16.569141530989036 26.435010361153967) scale(0.06666666666666667 0.06666666666666667)" d="M79.988 195.72C30.756 195.72 0.564 172.6 0.564 130.712H42.724C43.54 147.848 53.876 161.992 80.26 161.992C101.748 161.992 114.26 152.744 114.26 137.24C114.26 124.184 105.284 118.2 87.876 114.664L61.22 109.224C31.028 103.512 5.732 89.912 5.732 55.912C5.732 19.192 35.38 0.151986 79.172 0.151986C123.78 0.151986 152.34 19.736 152.34 58.904H110.452C110.996 41.768 97.124 33.88 78.356 33.88C56.324 33.88 48.436 44.76 48.436 55.912C48.436 64.616 53.876 73.048 71.012 76.584L95.492 81.48C140.372 90.728 157.508 108.136 157.508 136.968C157.508 178.04 123.508 195.72 79.988 195.72Z" />
  <path paint-order="stroke" fill="rgb(102 255 113.45728722204593)" stroke="#080664" stroke-opacity="0.9176470588235294" stroke-width="22.5" stroke-linejoin="round" transform="translate(54.47738906533753 176.55433965429944) scale(0.06666666666666667 0.06666666666666667)" d="M0.144 191V0.599987H40.944V191H0.144Z" />
  <path paint-order="stroke" fill="rgb(102 243.7967102385868 255)" stroke="#080664" stroke-opacity="0.9176470588235294" stroke-width="22.5" stroke-linejoin="round" transform="translate(126.54906856646022 159.05298300092045) scale(0.06666666666666667 0.06666666666666667)" d="M0.144 191V0.599987H40.944V191H0.144Z" />
  <path paint-order="stroke" fill="rgb(184.44639793541643 255 102)" stroke="#080664" stroke-opacity="0.9176470588235294" stroke-width="22.5" stroke-linejoin="round" transform="translate(113.06723281949024 157.35455858014092) scale(0.06666666666666667 0.06666666666666667)" d="M115.472 191V112.664H40.944V191H0.144V0.599987H40.944V78.936H115.472V0.599987H156.272V191H115.472Z" />
  <path paint-order="stroke" fill="rgb(102 255 148.99533385908003)" stroke="#080664" stroke-opacity="0.9176470588235294" stroke-width="22.5" stroke-linejoin="round" transform="translate(107.25673558811701 25.837411300660463) scale(0.06666666666666667 0.06666666666666667)" d="M79.988 195.72C30.756 195.72 0.564 172.6 0.564 130.712H42.724C43.54 147.848 53.876 161.992 80.26 161.992C101.748 161.992 114.26 152.744 114.26 137.24C114.26 124.184 105.284 118.2 87.876 114.664L61.22 109.224C31.028 103.512 5.732 89.912 5.732 55.912C5.732 19.192 35.38 0.151986 79.172 0.151986C123.78 0.151986 152.34 19.736 152.34 58.904H110.452C110.996 41.768 97.124 33.88 78.356 33.88C56.324 33.88 48.436 44.76 48.436 55.912C48.436 64.616 53.876 73.048 71.012 76.584L95.492 81.48C140.372 90.728 157.508 108.136 157.508 136.968C157.508 178.04 123.508 195.72 79.988 195.72Z" />
  <path paint-order="stroke" fill="rgb(255 178.11508367428374 102)" stroke="#080664" stroke-opacity="0.9176470588235294" stroke-width="22.5" stroke-linejoin="round" transform="translate(119.909209316779 16.503972066596425) scale(0.06666666666666667 0.06666666666666667)" d="M89.008 195.72C31.616 195.72 0.0640001 159 0.0640001 98.616C0.0640001 36.056 34.88 0.151986 88.192 0.151986C128.176 0.151986 162.992 19.736 168.704 62.984H128.448C122.736 40.68 103.968 35.24 88.192 35.24C53.92 35.24 41.408 62.44 41.408 97.256C41.408 132.888 54.736 160.632 89.008 160.632C109.136 160.632 131.712 151.112 131.712 120.92H94.992V88.28H172.24V108.136C172.24 165.8 140.96 195.72 89.008 195.72Z" />
  <path paint-order="stroke" fill="rgb(102 112.59752275718772 255)" stroke="#080664" stroke-opacity="0.9176470588235294" stroke-width="22.5" stroke-linejoin="round" transform="translate(130.39645259020517 31.61410979741641) scale(0.06666666666666667 0.06666666666666667)" d="M0.144 191V0.599987H77.12C127.712 0.599987 149.744 26.984 149.744 64.248C149.744 101.24 127.712 127.624 77.12 127.624H40.944V191H0.144ZM40.944 92.264H75.76C98.064 92.264 107.856 81.112 107.856 64.248C107.856 47.112 98.064 35.96 75.76 35.96H40.944V92.264Z" />
  <path paint-order="stroke" fill="rgb(102 255 187.46365829884456)" stroke="#080664" stroke-opacity="0.9176470588235294" stroke-width="22.5" stroke-linejoin="round" transform="translate(116.27461135060317 123.43194900650623) scale(0.06666666666666667 0.06666666666666667)" d="M89.008 195.72C31.616 195.72 0.0640001 159 0.0640001 98.616C0.0640001 36.056 34.88 0.151986 88.192 0.151986C128.176 0.151986 162.992 19.736 168.704 62.984H128.448C122.736 40.68 103.968 35.24 88.192 35.24C53.92 35.24 41.408 62.44 41.408 97.256C41.408 132.888 54.736 160.632 89.008 160.632C109.136 160.632 131.712 151.112 131.712 120.92H94.992V88.28H172.24V108.136C172.24 165.8 140.96 195.72 89.008 195.72Z" />
  <path paint-order="stroke" fill="rgb(255 102 212.75294956713955)" stroke="#080664" stroke-opacity="0.9176470588235294" stroke-width="22.5" stroke-linejoin="round" transform="translate(36.584524545900116 169.65145272539883) scale(0.06666666666666667 0.06666666666666667)" d="M111.392 191L75.216 127.624H40.944V191H0.144V0.599987H77.12C127.712 0.599987 149.744 26.984 149.744 64.248C149.744 91.448 138.048 112.664 111.664 122.184L151.648 191H111.392ZM40.944 92.264H75.76C98.064 92.264 107.856 81.112 107.856 64.248C107.856 47.112 98.064 35.96 75.76 35.96H40.944V92.264Z" />
  <path paint-order="stroke" fill="rgb(102 214.80439759722995 255)" stroke="#080664" stroke-opacity="0.9176470588235294" stroke-width="22.5" stroke-linejoin="round" transform="translate(28.978062194788205 133.6404506704695) scale(0.06666666666666667 0.06666666666666667)" d="M0.624 191L69.44 0.599987H121.936L190.752 191H148.048L135.808 155.368H55.568L43.328 191H0.624ZM65.904 125.176H125.472L96.912 42.216H94.464L65.904 125.176Z" />
  <path paint-order="stroke" fill="rgb(102 222.77445969487553 255)" stroke="#080664" stroke-opacity="0.9176470588235294" stroke-width="22.5" stroke-linejoin="round" transform="translate(136.28066615918186 43.11876915866186) scale(0.06666666666666667 0.06666666666666667)" d="M115.472 191V112.664H40.944V191H0.144V0.599987H40.944V78.936H115.472V0.599987H156.272V191H115.472Z" />
  <path paint-order="stroke" fill="rgb(212.7930356651635 255 102)" stroke="#080664" stroke-opacity="0.9176470588235294" stroke-width="22.5" stroke-linejoin="round" transform="translate(70.514266563014 96.05345203398764) scale(0.06666666666666667 0.06666666666666667)" d="M79.988 195.72C30.756 195.72 0.564 172.6 0.564 130.712H42.724C43.54 147.848 53.876 161.992 80.26 161.992C101.748 161.992 114.26 152.744 114.26 137.24C114.26 124.184 105.284 118.2 87.876 114.664L61.22 109.224C31.028 103.512 5.732 89.912 5.732 55.912C5.732 19.192 35.38 0.151986 79.172 0.151986C123.78 0.151986 152.34 19.736 152.34 58.904H110.452C110.996 41.768 97.124 33.88 78.356 33.88C56.324 33.88 48.436 44.76 48.436 55.912C48.436 64.616 53.876 73.048 71.012 76.584L95.492 81.48C140.372 90.728 157.508 108.136 157.508 136.968C157.508 178.04 123.508 195.72 79.988 195.72Z" />
  <path paint-order="stroke" fill="rgb(255 244.85334729143696 102)" stroke="#080664" stroke-opacity="0.9176470588235294" stroke-width="22.5" stroke-linejoin="round" transform="translate(118.65308173256764 141.47779717702136) scale(0.06666666666666667 0.06666666666666667)" d="M0.624 191L69.44 0.599987H121.936L190.752 191H148.048L135.808 155.368H55.568L43.328 191H0.624ZM65.904 125.176H125.472L96.912 42.216H94.464L65.904 125.176Z" />
  <path paint-order="stroke" fill="rgb(199.6345820648964 255 102)" stroke="#080664" stroke-opacity="0.9176470588235294" stroke-width="22.5" stroke-linejoin="round" transform="translate(73.89471544185335 179.64463843573586) scale(0.06666666666666667 0.06666666666666667)" d="M111.392 191L75.216 127.624H40.944V191H0.144V0.599987H77.12C127.712 0.599987 149.744 26.984 149.744 64.248C149.744 91.448 138.048 112.664 111.664 122.184L151.648 191H111.392ZM40.944 92.264H75.76C98.064 92.264 107.856 81.112 107.856 64.248C107.856 47.112 98.064 35.96 75.76 35.96H40.944V92.264Z" />
  <path paint-order="stroke" fill="rgb(102 162.69450781594645 255)" stroke="#080664" stroke-opacity="0.9176470588235294" stroke-width="22.5" stroke-linejoin="round" transform="translate(41.79234643599967 71.99829502867954) scale(0.06666666666666667 0.06666666666666667)" d="M79.988 195.72C30.756 195.72 0.564 172.6 0.564 130.712H42.724C43.54 147.848 53.876 161.992 80.26 161.992C101.748 161.992 114.26 152.744 114.26 137.24C114.26 124.184 105.284 118.2 87.876 114.664L61.22 109.224C31.028 103.512 5.732 89.912 5.732 55.912C5.732 19.192 35.38 0.151986 79.172 0.151986C123.78 0.151986 152.34 19.736 152.34 58.904H110.452C110.996 41.768 97.124 33.88 78.356 33.88C56.324 33.88 48.436 44.76 48.436 55.912C48.436 64.616 53.876 73.048 71.012 76.584L95.492 81.48C140.372 90.728 157.508 108.136 157.508 136.968C157.508 178.04 123.508 195.72 79.988 195.72Z" />
  <path paint-order="stroke" fill="rgb(210.84115013011998 102 255)" stroke="#080664" stroke-opacity="0.9176470588235294" stroke-width="22.5" stroke-linejoin="round" transform="translate(143.23879720949182 130.5708453048446) scale(0.06666666666666667 0.06666666666666667)" d="M111.392 191L75.216 127.624H40.944V191H0.144V0.599987H77.12C127.712 0.599987 149.744 26.984 149.744 64.248C149.744 91.448 138.048 112.664 111.664 122.184L151.648 191H111.392ZM40.944 92.264H75.76C98.064 92.264 107.856 81.112 107.856 64.248C107.856 47.112 98.064 35.96 75.76 35.96H40.944V92.264Z" />
  <path paint-order="stroke" fill="rgb(102 255 172.03770312016334)" stroke="#080664" stroke-opacity="0.9176470588235294" stroke-width="22.5" stroke-linejoin="round" transform="translate(132.43155786182194 157.27417523217812) scale(0.06666666666666667 0.06666666666666667)" d="M111.392 191L75.216 127.624H40.944V191H0.144V0.599987H77.12C127.712 0.599987 149.744 26.984 149.744 64.248C149.744 91.448 138.048 112.664 111.664 122.184L151.648 191H111.392ZM40.944 92.264H75.76C98.064 92.264 107.856 81.112 107.856 64.248C107.856 47.112 98.064 35.96 75.76 35.96H40.944V92.264Z" />
  <path paint-order="stroke" fill="rgb(102 223.65448012782 255)" stroke="#080664" stroke-opacity="0.9176470588235294" stroke-width="22.5" stroke-linejoin="round" transform="translate(42.01409600657267 153.93350853642178) scale(0.06666666666666667 0.06666666666666667)" d="M0.144 191V0.599987H77.12C127.712 0.599987 149.744 26.984 149.744 64.248C149.744 101.24 127.712 127.624 77.12 127.624H40.944V191H0.144ZM40.944 92.264H75.76C98.064 92.264 107.856 81.112 107.856 64.248C107.856 47.112 98.064 35.96 75.76 35.96H40.944V92.264Z" />
  <path paint-order="stroke" fill="rgb(241.33613758284523 102 255)" stroke="#080664" stroke-opacity="0.9176470588235294" stroke-width="22.5" stroke-linejoin="round" transform="translate(96.40462837102149 86.49161982990982) scale(0.06666666666666667 0.06666666666666667)" d="M0.144 191V0.599987H77.12C127.712 0.599987 149.744 26.984 149.744 64.248C149.744 101.24 127.712 127.624 77.12 127.624H40.944V191H0.144ZM40.944 92.264H75.76C98.064 92.264 107.856 81.112 107.856 64.248C107.856 47.112 98.064 35.96 75.76 35.96H40.944V92.264Z" />
  <path paint-order="stroke" fill="rgb(102 255 226.27519521109147)" stroke="#080664" stroke-opacity="0.9176470588235294" stroke-width="22.5" stroke-linejoin="round" transform="translate(92.20200390277647 162.70233382067502) scale(0.06666666666666667 0.06666666666666667)" d="M0.624 191L69.44 0.599987H121.936L190.752 191H148.048L135.808 155.368H55.568L43.328 191H0.624ZM65.904 125.176H125.472L96.912 42.216H94.464L65.904 125.176Z" />
  <path paint-order="stroke" fill="rgb(219.8282428433772 255 102)" stroke="#080664" stroke-opacity="0.9176470588235294" stroke-width="22.5" stroke-linejoin="round" transform="translate(34.396597055489266 57.42196293299893) scale(0.06666666666666667 0.06666666666666667)" d="M79.988 195.72C30.756 195.72 0.564 172.6 0.564 130.712H42.724C43.54 147.848 53.876 161.992 80.26 161.992C101.748 161.992 114.26 152.744 114.26 137.24C114.26 124.184 105.284 118.2 87.876 114.664L61.22 109.224C31.028 103.512 5.732 89.912 5.732 55.912C5.732 19.192 35.38 0.151986 79.172 0.151986C123.78 0.151986 152.34 19.736 152.34 58.904H110.452C110.996 41.768 97.124 33.88 78.356 33.88C56.324 33.88 48.436 44.76 48.436 55.912C48.436 64.616 53.876 73.048 71.012 76.584L95.492 81.48C140.372 90.728 157.508 108.136 157.508 136.968C157.508 178.04 123.508 195.72 79.988 195.72Z" />
  <path paint-order="stroke" fill="rgb(255 102 170.34015438194328)" stroke="#080664" stroke-opacity="0.9176470588235294" stroke-width="22.5" stroke-linejoin="round" transform="translate(117.43068538307416 40.91374242355127) scale(0.06666666666666667 0.06666666666666667)" d="M111.392 191L75.216 127.624H40.944V191H0.144V0.599987H77.12C127.712 0.599987 149.744 26.984 149.744 64.248C149.744 91.448 138.048 112.664 111.664 122.184L151.648 191H111.392ZM40.944 92.264H75.76C98.064 92.264 107.856 81.112 107.856 64.248C107.856 47.112 98.064 35.96 75.76 35.96H40.944V92.264Z" />
  <path paint-order="stroke" fill="rgb(102 255 124.2064487424132)" stroke="#080664" stroke-opacity="0.9176470588235294" stroke-width="22.5" stroke-linejoin="round" transform="translate(76.98078721303973 3.488902149064926) scale(0.06666666666666667 0.06666666666666667)" d="M89.008 195.72C31.616 195.72 0.0640001 159 0.0640001 98.616C0.0640001 36.056 34.88 0.151986 88.192 0.151986C128.176 0.151986 162.992 19.736 168.704 62.984H128.448C122.736 40.68 103.968 35.24 88.192 35.24C53.92 35.24 41.408 62.44 41.408 97.256C41.408 132.888 54.736 160.632 89.008 160.632C109.136 160.632 131.712 151.112 131.712 120.92H94.992V88.28H172.24V108.136C172.24 165.8 140.96 195.72 89.008 195.72Z" />
  <path paint-order="stroke" fill="rgb(102 196.2025963946374 255)" stroke="#080664" stroke-opacity="0.9176470588235294" stroke-width="22.5" stroke-linejoin="round" transform="translate(81.9765154146909 86.41972203200615) scale(0.06666666666666667 0.06666666666666667)" d="M89.008 195.72C31.616 195.72 0.0640001 159 0.0640001 98.616C0.0640001 36.056 34.88 0.151986 88.192 0.151986C128.176 0.151986 162.992 19.736 168.704 62.984H128.448C122.736 40.68 103.968 35.24 88.192 35.24C53.92 35.24 41.408 62.44 41.408 97.256C41.408 132.888 54.736 160.632 89.008 160.632C109.136 160.632 131.712 151.112 131.712 120.92H94.992V88.28H172.24V108.136C172.24 165.8 140.96 195.72 89.008 195.72Z" />
  <path paint-order="stroke" fill="rgb(255 102 146.32586430186512)" stroke="#080664" stroke-opacity="0.9176470588235294" stroke-width="22.5" stroke-linejoin="round" transform="translate(129.75819539716363 131.2000331981066) scale(0.06666666666666667 0.06666666666666667)" d="M79.988 195.72C30.756 195.72 0.564 172.6 0.564 130.712H42.724C43.54 147.848 53.876 161.992 80.26 161.992C101.748 161.992 114.26 152.744 114.26 137.24C114.26 124.184 105.284 118.2 87.876 114.664L61.22 109.224C31.028 103.512 5.732 89.912 5.732 55.912C5.732 19.192 35.38 0.151986 79.172 0.151986C123.78 0.151986 152.34 19.736 152.34 58.904H110.452C110.996 41.768 97.124 33.88 78.356 33.88C56.324 33.88 48.436 44.76 48.436 55.912C48.436 64.616 53.876 73.048 71.012 76.584L95.492 81.48C140.372 90.728 157.508 108.136 157.508 136.968C157.508 178.04 123.508 195.72 79.988 195.72Z" />
  <path paint-order="stroke" fill="rgb(255 102 183.97221039953615)" stroke="#080664" stroke-opacity="0.9176470588235294" stroke-width="22.5" stroke-linejoin="round" transform="translate(128.30806652156934 100.80100044342583) scale(0.06666666666666667 0.06666666666666667)" d="M89.008 195.72C31.616 195.72 0.0640001 159 0.0640001 98.616C0.0640001 36.056 34.88 0.151986 88.192 0.151986C128.176 0.151986 162.992 19.736 168.704 62.984H128.448C122.736 40.68 103.968 35.24 88.192 35.24C53.92 35.24 41.408 62.44 41.408 97.256C41.408 132.888 54.736 160.632 89.008 160.632C109.136 160.632 131.712 151.112 131.712 120.92H94.992V88.28H172.24V108.136C172.24 165.8 140.96 195.72 89.008 195.72Z" />
  <path paint-order="stroke" fill="rgb(136.0208064456334 102 255)" stroke="#080664" stroke-opacity="0.9176470588235294" stroke-width="22.5" stroke-linejoin="round" transform="translate(86.59786021623981 18.733997416451434) scale(0.06666666666666667 0.06666666666666667)" d="M0.144 191V0.599987H40.944V191H0.144Z" />
  <path paint-order="stroke" fill="rgb(168.07167246618246 102 255)" stroke="#080664" stroke-opacity="0.9176470588235294" stroke-width="22.5" stroke-linejoin="round" transform="translate(54.88986663106125 76.76343236421592) scale(0.06666666666666667 0.06666666666666667)" d="M79.988 195.72C30.756 195.72 0.564 172.6 0.564 130.712H42.724C43.54 147.848 53.876 161.992 80.26 161.992C101.748 161.992 114.26 152.744 114.26 137.24C114.26 124.184 105.284 118.2 87.876 114.664L61.22 109.224C31.028 103.512 5.732 89.912 5.732 55.912C5.732 19.192 35.38 0.151986 79.172 0.151986C123.78 0.151986 152.34 19.736 152.34 58.904H110.452C110.996 41.768 97.124 33.88 78.356 33.88C56.324 33.88 48.436 44.76 48.436 55.912C48.436 64.616 53.876 73.048 71.012 76.584L95.492 81.48C140.372 90.728 157.508 108.136 157.508 136.968C157.508 178.04 123.508 195.72 79.988 195.72Z" />
  <path paint-order="stroke" fill="rgb(176.27105341153322 255 102)" stroke="#080664" stroke-opacity="0.9176470588235294" stroke-width="22.5" stroke-linejoin="round" transform="translate(23.728608795580215 44.98078820299193) scale(0.06666666666666667 0.06666666666666667)" d="M89.008 195.72C31.616 195.72 0.0640001 159 0.0640001 98.616C0.0640001 36.056 34.88 0.151986 88.192 0.151986C128.176 0.151986 162.992 19.736 168.704 62.984H128.448C122.736 40.68 103.968 35.24 88.192 35.24C53.92 35.24 41.408 62.44 41.408 97.256C41.408 132.888 54.736 160.632 89.008 160.632C109.136 160.632 131.712 151.112 131.712 120.92H94.992V88.28H172.24V108.136C172.24 165.8 140.96 195.72 89.008 195.72Z" />
  <path paint-order="stroke" fill="rgb(139.49080906176113 255 102)" stroke="#080664" stroke-opacity="0.9176470588235294" stroke-width="22.5" stroke-linejoin="round" transform="translate(29.5757678373847 16.793959993117458) scale(0.06666666666666667 0.06666666666666667)" d="M0.144 191V0.599987H77.12C127.712 0.599987 149.744 26.984 149.744 64.248C149.744 101.24 127.712 127.624 77.12 127.624H40.944V191H0.144ZM40.944 92.264H75.76C98.064 92.264 107.856 81.112 107.856 64.248C107.856 47.112 98.064 35.96 75.76 35.96H40.944V92.264Z" />
  <path paint-order="stroke" fill="rgb(133.04469747671413 102 255)" stroke="#080664" stroke-opacity="0.9176470588235294" stroke-width="22.5" stroke-linejoin="round" transform="translate(11.00495631201665 57.23303808167185) scale(0.06666666666666667 0.06666666666666667)" d="M0.144 191V0.599987H77.12C127.712 0.599987 149.744 26.984 149.744 64.248C149.744 101.24 127.712 127.624 77.12 127.624H40.944V191H0.144ZM40.944 92.264H75.76C98.064 92.264 107.856 81.112 107.856 64.248C107.856 47.112 98.064 35.96 75.76 35.96H40.944V92.264Z" />
  <path paint-order="stroke" fill="rgb(102 198.01460552797107 255)" stroke="#080664" stroke-opacity="0.9176470588235294" stroke-width="22.5" stroke-linejoin="round" transform="translate(26.328331174436098 79.26566513310637) scale(0.06666666666666667 0.06666666666666667)" d="M0.624 191L69.44 0.599987H121.936L190.752 191H148.048L135.808 155.368H55.568L43.328 191H0.624ZM65.904 125.176H125.472L96.912 42.216H94.464L65.904 125.176Z" />
  <path paint-order="stroke" fill="rgb(102 255 217.86331338379452)" stroke="#080664" stroke-opacity="0.9176470588235294" stroke-width="22.5" stroke-linejoin="round" transform="translate(49.4708246600434 161.72750912103047) scale(0.06666666666666667 0.06666666666666667)" d="M0.624 191L69.44 0.599987H121.936L190.752 191H148.048L135.808 155.368H55.568L43.328 191H0.624ZM65.904 125.176H125.472L96.912 42.216H94.464L65.904 125.176Z" />
  <path paint-order="stroke" fill="rgb(102 184.8428669763315 255)" stroke="#080664" stroke-opacity="0.9176470588235294" stroke-width="22.5" stroke-linejoin="round" transform="translate(122.56187583138897 94.34177675651539) scale(0.06666666666666667 0.06666666666666667)" d="M0.144 191V0.599987H40.944V191H0.144Z" />
  <path paint-order="stroke" fill="rgb(211.49533804283092 255 102)" stroke="#080664" stroke-opacity="0.9176470588235294" stroke-width="22.5" stroke-linejoin="round" transform="translate(87.28505809459828 178.5612664406098) scale(0.06666666666666667 0.06666666666666667)" d="M79.988 195.72C30.756 195.72 0.564 172.6 0.564 130.712H42.724C43.54 147.848 53.876 161.992 80.26 161.992C101.748 161.992 114.26 152.744 114.26 137.24C114.26 124.184 105.284 118.2 87.876 114.664L61.22 109.224C31.028 103.512 5.732 89.912 5.732 55.912C5.732 19.192 35.38 0.151986 79.172 0.151986C123.78 0.151986 152.34 19.736 152.34 58.904H110.452C110.996 41.768 97.124 33.88 78.356 33.88C56.324 33.88 48.436 44.76 48.436 55.912C48.436 64.616 53.876 73.048 71.012 76.584L95.492 81.48C140.372 90.728 157.508 108.136 157.508 136.968C157.508 178.04 123.508 195.72 79.988 195.72Z" />
  <path paint-order="stroke" fill="rgb(102 203.71075613313582 255)" stroke="#080664" stroke-opacity="0.9176470588235294" stroke-width="22.5" stroke-linejoin="round" transform="translate(28.552961397670206 149.1532698466362) scale(0.06666666666666667 0.06666666666666667)" d="M79.988 195.72C30.756 195.72 0.564 172.6 0.564 130.712H42.724C43.54 147.848 53.876 161.992 80.26 161.992C101.748 161.992 114.26 152.744 114.26 137.24C114.26 124.184 105.284 118.2 87.876 114.664L61.22 109.224C31.028 103.512 5.732 89.912 5.732 55.912C5.732 19.192 35.38 0.151986 79.172 0.151986C123.78 0.151986 152.34 19.736 152.34 58.904H110.452C110.996 41.768 97.124 33.88 78.356 33.88C56.324 33.88 48.436 44.76 48.436 55.912C48.436 64.616 53.876 73.048 71.012 76.584L95.492 81.48C140.372 90.728 157.508 108.136 157.508 136.968C157.508 178.04 123.508 195.72 79.988 195.72Z" />
  <path paint-order="stroke" fill="rgb(255 149.57177978492123 102)" stroke="#080664" stroke-opacity="0.9176470588235294" stroke-width="22.5" stroke-linejoin="round" transform="translate(91.54455408416209 5.112098807172684) scale(0.06666666666666667 0.06666666666666667)" d="M89.008 195.72C31.616 195.72 0.0640001 159 0.0640001 98.616C0.0640001 36.056 34.88 0.151986 88.192 0.151986C128.176 0.151986 162.992 19.736 168.704 62.984H128.448C122.736 40.68 103.968 35.24 88.192 35.24C53.92 35.24 41.408 62.44 41.408 97.256C41.408 132.888 54.736 160.632 89.008 160.632C109.136 160.632 131.712 151.112 131.712 120.92H94.992V88.28H172.24V108.136C172.24 165.8 140.96 195.72 89.008 195.72Z" />
  <path paint-order="stroke" fill="rgb(182.3715366493206 102 255)" stroke="#080664" stroke-opacity="0.9176470588235294" stroke-width="22.5" stroke-linejoin="round" transform="translate(55.78338982665078 92.73576997361845) scale(0.06666666666666667 0.06666666666666667)" d="M79.988 195.72C30.756 195.72 0.564 172.6 0.564 130.712H42.724C43.54 147.848 53.876 161.992 80.26 161.992C101.748 161.992 114.26 152.744 114.26 137.24C114.26 124.184 105.284 118.2 87.876 114.664L61.22 109.224C31.028 103.512 5.732 89.912 5.732 55.912C5.732 19.192 35.38 0.151986 79.172 0.151986C123.78 0.151986 152.34 19.736 152.34 58.904H110.452C110.996 41.768 97.124 33.88 78.356 33.88C56.324 33.88 48.436 44.76 48.436 55.912C48.436 64.616 53.876 73.048 71.012 76.584L95.492 81.48C140.372 90.728 157.508 108.136 157.508 136.968C157.508 178.04 123.508 195.72 79.988 195.72Z" />
  <path paint-order="stroke" fill="rgb(255 102 245.96862377532113)" stroke="#080664" stroke-opacity="0.9176470588235294" stroke-width="22.5" stroke-linejoin="round" transform="translate(10.576708418826223 133.80935075127158) scale(0.06666666666666667 0.06666666666666667)" d="M0.144 191V0.599987H40.944V191H0.144Z" />
  <path paint-order="stroke" fill="rgb(190.01027143273657 102 255)" stroke="#080664" stroke-opacity="0.9176470588235294" stroke-width="22.5" stroke-linejoin="round" transform="translate(135.33711202165097 114.84062322172103) scale(0.06666666666666667 0.06666666666666667)" d="M0.624 191L69.44 0.599987H121.936L190.752 191H148.048L135.808 155.368H55.568L43.328 191H0.624ZM65.904 125.176H125.472L96.912 42.216H94.464L65.904 125.176Z" />
  <path paint-order="stroke" fill="rgb(255 169.00447404397602 102)" stroke="#080664" stroke-opacity="0.9176470588235294" stroke-width="22.5" stroke-linejoin="round" transform="translate(106.49964336435667 10.253964261967042) scale(0.06666666666666667 0.06666666666666667)" d="M115.472 191V112.664H40.944V191H0.144V0.599987H40.944V78.936H115.472V0.599987H156.272V191H115.472Z" />
  <path paint-order="stroke" fill="rgb(255 150.62540574864826 102)" stroke="#080664" stroke-opacity="0.9176470588235294" stroke-width="22.5" stroke-linejoin="round" transform="translate(22.915257535639697 134.81843217651124) scale(0.06666666666666667 0.06666666666666667)" d="M0.144 191V0.599987H40.944V191H0.144Z" />
  <path paint-order="stroke" fill="rgb(102 176.2922661944014 255)" stroke="#080664" stroke-opacity="0.9176470588235294" stroke-width="22.5" stroke-linejoin="round" transform="translate(111.67584292688295 108.17537839981763) scale(0.06666666666666667 0.06666666666666667)" d="M79.988 195.72C30.756 195.72 0.564 172.6 0.564 130.712H42.724C43.54 147.848 53.876 161.992 80.26 161.992C101.748 161.992 114.26 152.744 114.26 137.24C114.26 124.184 105.284 118.2 87.876 114.664L61.22 109.224C31.028 103.512 5.732 89.912 5.732 55.912C5.732 19.192 35.38 0.151986 79.172 0.151986C123.78 0.151986 152.34 19.736 152.34 58.904H110.452C110.996 41.768 97.124 33.88 78.356 33.88C56.324 33.88 48.436 44.76 48.436 55.912C48.436 64.616 53.876 73.048 71.012 76.584L95.492 81.48C140.372 90.728 157.508 108.136 157.508 136.968C157.508 178.04 123.508 195.72 79.988 195.72Z" />
  <path paint-order="stroke" fill="rgb(136.6098351077478 255 102)" stroke="#080664" stroke-opacity="0.9176470588235294" stroke-width="22.5" stroke-linejoin="round" transform="translate(10.26278720806676 41.26247361422479) scale(0.06666666666666667 0.06666666666666667)" d="M79.988 195.72C30.756 195.72 0.564 172.6 0.564 130.712H42.724C43.54 147.848 53.876 161.992 80.26 161.992C101.748 161.992 114.26 152.744 114.26 137.24C114.26 124.184 105.284 118.2 87.876 114.664L61.22 109.224C31.028 103.512 5.732 89.912 5.732 55.912C5.732 19.192 35.38 0.151986 79.172 0.151986C123.78 0.151986 152.34 19.736 152.34 58.904H110.452C110.996 41.768 97.124 33.88 78.356 33.88C56.324 33.88 48.436 44.76 48.436 55.912C48.436 64.616 53.876 73.048 71.012 76.584L95.492 81.48C140.372 90.728 157.508 108.136 157.508 136.968C157.508 178.04 123.508 195.72 79.988 195.72Z" />
  <path paint-order="stroke" fill="rgb(255 102 202.65648905381212)" stroke="#080664" stroke-opacity="0.9176470588235294" stroke-width="22.5" stroke-linejoin="round" transform="translate(68.24592068316159 80.27437666070497) scale(0.06666666666666667 0.06666666666666667)" d="M89.008 195.72C31.616 195.72 0.0640001 159 0.0640001 98.616C0.0640001 36.056 34.88 0.151986 88.192 0.151986C128.176 0.151986 162.992 19.736 168.704 62.984H128.448C122.736 40.68 103.968 35.24 88.192 35.24C53.92 35.24 41.408 62.44 41.408 97.256C41.408 132.888 54.736 160.632 89.008 160.632C109.136 160.632 131.712 151.112 131.712 120.92H94.992V88.28H172.24V108.136C172.24 165.8 140.96 195.72 89.008 195.72Z" />
  <path paint-order="stroke" fill="rgb(255 202.34351893976944 102)" stroke="#080664" stroke-opacity="0.9176470588235294" stroke-width="22.5" stroke-linejoin="round" transform="translate(41.954402053402326 87.86763539129497) scale(0.06666666666666667 0.06666666666666667)" d="M115.472 191V112.664H40.944V191H0.144V0.599987H40.944V78.936H115.472V0.599987H156.272V191H115.472Z" />
  <path paint-order="stroke" fill="rgb(102 219.90464272477928 255)" stroke="#080664" stroke-opacity="0.9176470588235294" stroke-width="22.5" stroke-linejoin="round" transform="translate(23.10921532671974 164.27730698343157) scale(0.06666666666666667 0.06666666666666667)" d="M79.988 195.72C30.756 195.72 0.564 172.6 0.564 130.712H42.724C43.54 147.848 53.876 161.992 80.26 161.992C101.748 161.992 114.26 152.744 114.26 137.24C114.26 124.184 105.284 118.2 87.876 114.664L61.22 109.224C31.028 103.512 5.732 89.912 5.732 55.912C5.732 19.192 35.38 0.151986 79.172 0.151986C123.78 0.151986 152.34 19.736 152.34 58.904H110.452C110.996 41.768 97.124 33.88 78.356 33.88C56.324 33.88 48.436 44.76 48.436 55.912C48.436 64.616 53.876 73.048 71.012 76.584L95.492 81.48C140.372 90.728 157.508 108.136 157.508 136.968C157.508 178.04 123.508 195.72 79.988 195.72Z" />
  <path paint-order="stroke" fill="rgb(230.79005990409374 102 255)" stroke="#080664" stroke-opacity="0.9176470588235294" stroke-width="22.5" stroke-linejoin="round" transform="translate(108.02412648884003 90.62492048389483) scale(0.06666666666666667 0.06666666666666667)" d="M89.008 195.72C31.616 195.72 0.0640001 159 0.0640001 98.616C0.0640001 36.056 34.88 0.151986 88.192 0.151986C128.176 0.151986 162.992 19.736 168.704 62.984H128.448C122.736 40.68 103.968 35.24 88.192 35.24C53.92 35.24 41.408 62.44 41.408 97.256C41.408 132.888 54.736 160.632 89.008 160.632C109.136 160.632 131.712 151.112 131.712 120.92H94.992V88.28H172.24V108.136C172.24 165.8 140.96 195.72 89.008 195.72Z" />
</svg>
