<svg xmlns="http://www.w3.org/2000/svg" viewBox="0 0 158 196">
  <path fill="#C1C1C1" d="M79.988 195.72C30.756 195.72 0.564 172.6 0.564 130.712H42.724C43.54 147.848 53.876 161.992 80.26 161.992C101.748 161.992 114.26 152.744 114.26 137.24C114.26 124.184 105.284 118.2 87.876 114.664L61.22 109.224C31.028 103.512 5.732 89.912 5.732 55.912C5.732 19.192 35.38 0.151986 79.172 0.151986C123.78 0.151986 152.34 19.736 152.34 58.904H110.452C110.996 41.768 97.124 33.88 78.356 33.88C56.324 33.88 48.436 44.76 48.436 55.912C48.436 64.616 53.876 73.048 71.012 76.584L95.492 81.48C140.372 90.728 157.508 108.136 157.508 136.968C157.508 178.04 123.508 195.72 79.988 195.72Z" />
  <path paint-order="stroke" fill="rgb(102 124.58667348217419 255)" stroke="#080664" stroke-opacity="0.9176470588235294" stroke-width="22.5" stroke-linejoin="round" transform="translate(97.7521998707333 101.40128441544664) scale(0.06666666666666667 0.06666666666666667)" d="M0.624 191L69.44 0.599987H121.936L190.752 191H148.048L135.808 155.368H55.568L43.328 191H0.624ZM65.904 125.176H125.472L96.912 42.216H94.464L65.904 125.176Z" />
  <path paint-order="stroke" fill="rgb(102 255 203.22187540303133)" stroke="#080664" stroke-opacity="0.9176470588235294" stroke-width="22.5" stroke-linejoin="round" transform="translate(12.986419328085855 149.7697930063208) scale(0.06666666666666667 0.06666666666666667)" d="M0.144 191V0.599987H77.12C127.712 0.599987 149.744 26.984 149.744 64.248C149.744 101.24 127.712 127.624 77.12 127.624H40.944V191H0.144ZM40.944 92.264H75.76C98.064 92.264 107.856 81.112 107.856 64.248C107.856 47.112 98.064 35.96 75.76 35.96H40.944V92.264Z" />
  <path paint-order="stroke" fill="rgb(132.35466918640145 102 255)" stroke="#080664" stroke-opacity="0.9176470588235294" stroke-width="22.5" stroke-linejoin="round" transform="translate(81.0125902781505 164.56979106161006) scale(0.06666666666666667 0.06666666666666667)" d="M79.988 195.72C30.756 195.72 0.564 172.6 0.564 130.712H42.724C43.54 147.848 53.876 161.992 80.26 161.992C101.748 161.992 114.26 152.744 114.26 137.24C114.26 124.184 105.284 118.2 87.876 114.664L61.22 109.224C31.028 103.512 5.732 89.912 5.732 55.912C5.732 19.192 35.38 0.151986 79.172 0.151986C123.78 0.151986 152.34 19.736 152.34 58.904H110.452C110.996 41.768 97.124 33.88 78.356 33.88C56.324 33.88 48.436 44.76 48.436 55.912C48.436 64.616 53.876 73.048 71.012 76.584L95.492 81.48C140.372 90.728 157.508 108.136 157.508 136.968C157.508 178.04 123.508 195.72 79.988 195.72Z" />
  <path paint-order="stroke" fill="rgb(255 110.43698985418082 102)" stroke="#080664" stroke-opacity="0.9176470588235294" stroke-width="22.5" stroke-linejoin="round" transform="translate(92.897335554195 21.300361642173385) scale(0.06666666666666667 0.06666666666666667)" d="M89.008 195.72C31.616 195.72 0.0640001 159 0.0640001 98.616C0.0640001 36.056 34.88 0.151986 88.192 0.151986C128.176 0.151986 162.992 19.736 168.704 62.984H128.448C122.736 40.68 103.968 35.24 88.192 35.24C53.92 35.24 41.408 62.44 41.408 97.256C41.408 132.888 54.736 160.632 89.008 160.632C109.136 160.632 131.712 151.112 131.712 120.92H94.992V88.28H172.24V108.136C172.24 165.8 140.96 195.72 89.008 195.72Z" />
  <path paint-order="stroke" fill="rgb(102 255 137.95665935264938)" stroke="#080664" stroke-opacity="0.9176470588235294" stroke-width="22.5" stroke-linejoin="round" transform="translate(56.38366379685767 5.147586396812175) scale(0.06666666666666667 0.06666666666666667)" d="M115.472 191V112.664H40.944V191H0.144V0.599987H40.944V78.936H115.472V0.599987H156.272V191H115.472Z" />
  <path paint-order="stroke" fill="rgb(255 224.58201288133768 102)" stroke="#080664" stroke-opacity="0.9176470588235294" stroke-width="22.5" stroke-linejoin="round" transform="translate(70.28233348434713 18.32245843437809) scale(0.06666666666666667 0.06666666666666667)" d="M0.624 191L69.44 0.599987H121.936L190.752 191H148.048L135.808 155.368H55.568L43.328 191H0.624ZM65.904 125.176H125.472L96.912 42.216H94.464L65.904 125.176Z" />
  <path paint-order="stroke" fill="rgb(255 242.83261187602216 102)" stroke="#080664" stroke-opacity="0.9176470588235294" stroke-width="22.5" stroke-linejoin="round" transform="translate(55.668715726194534 20.447758754303024) scale(0.06666666666666667 0.06666666666666667)" d="M89.008 195.72C31.616 195.72 0.0640001 159 0.0640001 98.616C0.0640001 36.056 34.88 0.151986 88.192 0.151986C128.176 0.151986 162.992 19.736 168.704 62.984H128.448C122.736 40.68 103.968 35.24 88.192 35.24C53.92 35.24 41.408 62.44 41.408 97.256C41.408 132.888 54.736 160.632 89.008 160.632C109.136 160.632 131.712 151.112 131.712 120.92H94.992V88.28H172.24V108.136C172.24 165.8 140.96 195.72 89.008 195.72Z" />
  <path paint-order="stroke" fill="rgb(255 227.80333694082103 102)" stroke="#080664" stroke-opacity="0.9176470588235294" stroke-width="22.5" stroke-linejoin="round" transform="translate(106.34104333135802 173.15045916124484) scale(0.06666666666666667 0.06666666666666667)" d="M0.624 191L69.44 0.599987H121.936L190.752 191H148.048L135.808 155.368H55.568L43.328 191H0.624ZM65.904 125.176H125.472L96.912 42.216H94.464L65.904 125.176Z" />
  <path paint-order="stroke" fill="rgb(102 255 251.0139862721669)" stroke="#080664" stroke-opacity="0.9176470588235294" stroke-width="22.5" stroke-linejoin="round" transform="translate(42.28492362064935 16.300574570650397) scale(0.06666666666666667 0.06666666666666667)" d="M115.472 191V112.664H40.944V191H0.144V0.599987H40.944V78.936H115.472V0.599987H156.272V191H115.472Z" />
  <path paint-order="stroke" fill="rgb(102 255 189.4044431805561)" stroke="#080664" stroke-opacity="0.9176470588235294" stroke-width="22.5" stroke-linejoin="round" transform="translate(64.76255945894067 164.1894348436786) scale(0.06666666666666667 0.06666666666666667)" d="M115.472 191V112.664H40.944V191H0.144V0.599987H40.944V78.936H115.472V0.599987H156.272V191H115.472Z" />
  <path paint-order="stroke" fill="rgb(120.2109429886823 102 255)" stroke="#080664" stroke-opacity="0.9176470588235294" stroke-width="22.5" stroke-linejoin="round" transform="translate(30.900277591849594 28.89649335637973) scale(0.06666666666666667 0.06666666666666667)" d="M0.624 191L69.44 0.599987H121.936L190.752 191H148.048L135.808 155.368H55.568L43.328 191H0.624ZM65.904 125.176H125.472L96.912 42.216H94.464L65.904 125.176Z" />
  <path paint-order="stroke" fill="rgb(109.70436343528952 102 255)" stroke="#080664" stroke-opacity="0.9176470588235294" stroke-width="22.5" stroke-linejoin="round" transform="translate(16.761297573098425 69.01329003145192) scale(0.06666666666666667 0.06666666666666667)" d="M115.472 191V112.664H40.944V191H0.144V0.599987H40.944V78.936H115.472V0.599987H156.272V191H115.472Z" />
  <path paint-order="stroke" fill="rgb(255 102 119.96980365850926)" stroke="#080664" stroke-opacity="0.9176470588235294" stroke-width="22.5" stroke-linejoin="round" transform="translate(16.40165865585238 26.747781962607757) scale(0.06666666666666667 0.06666666666666667)" d="M79.988 195.72C30.756 195.72 0.564 172.6 0.564 130.712H42.724C43.54 147.848 53.876 161.992 80.26 161.992C101.748 161.992 114.26 152.744 114.26 137.24C114.26 124.184 105.284 118.2 87.876 114.664L61.22 109.224C31.028 103.512 5.732 89.912 5.732 55.912C5.732 19.192 35.38 0.151986 79.172 0.151986C123.78 0.151986 152.34 19.736 152.34 58.904H110.452C110.996 41.768 97.124 33.88 78.356 33.88C56.324 33.88 48.436 44.76 48.436 55.912C48.436 64.616 53.876 73.048 71.012 76.584L95.492 81.48C140.372 90.728 157.508 108.136 157.508 136.968C157.508 178.04 123.508 195.72 79.988 195.72Z" />
  <path paint-order="stroke" fill="rgb(102 255 113.45728722204593)" stroke="#080664" stroke-opacity="0.9176470588235294" stroke-width="22.5" stroke-linejoin="round" transform="translate(54.08686837100614 177.3500700920457) scale(0.06666666666666667 0.06666666666666667)" d="M0.144 191V0.599987H40.944V191H0.144Z" />
  <path paint-order="stroke" fill="rgb(102 243.7967102385868 255)" stroke="#080664" stroke-opacity="0.9176470588235294" stroke-width="22.5" stroke-linejoin="round" transform="translate(126.41963122856289 159.09591821133873) scale(0.06666666666666667 0.06666666666666667)" d="M0.144 191V0.599987H40.944V191H0.144Z" />
  <path paint-order="stroke" fill="rgb(184.44639793541643 255 102)" stroke="#080664" stroke-opacity="0.9176470588235294" stroke-width="22.5" stroke-linejoin="round" transform="translate(112.94232048750568 157.3797633993879) scale(0.06666666666666667 0.06666666666666667)" d="M115.472 191V112.664H40.944V191H0.144V0.599987H40.944V78.936H115.472V0.599987H156.272V191H115.472Z" />
  <path paint-order="stroke" fill="rgb(102 255 148.99533385908003)" stroke="#080664" stroke-opacity="0.9176470588235294" stroke-width="22.5" stroke-linejoin="round" transform="translate(107.18822030675099 25.83958942632633) scale(0.06666666666666667 0.06666666666666667)" d="M79.988 195.72C30.756 195.72 0.564 172.6 0.564 130.712H42.724C43.54 147.848 53.876 161.992 80.26 161.992C101.748 161.992 114.26 152.744 114.26 137.24C114.26 124.184 105.284 118.2 87.876 114.664L61.22 109.224C31.028 103.512 5.732 89.912 5.732 55.912C5.732 19.192 35.38 0.151986 79.172 0.151986C123.78 0.151986 152.34 19.736 152.34 58.904H110.452C110.996 41.768 97.124 33.88 78.356 33.88C56.324 33.88 48.436 44.76 48.436 55.912C48.436 64.616 53.876 73.048 71.012 76.584L95.492 81.48C140.372 90.728 157.508 108.136 157.508 136.968C157.508 178.04 123.508 195.72 79.988 195.72Z" />
  <path paint-order="stroke" fill="rgb(255 178.11508367428374 102)" stroke="#080664" stroke-opacity="0.9176470588235294" stroke-width="22.5" stroke-linejoin="round" transform="translate(120.17703548383386 16.50968812595853) scale(0.06666666666666667 0.06666666666666667)" d="M89.008 195.72C31.616 195.72 0.0640001 159 0.0640001 98.616C0.0640001 36.056 34.88 0.151986 88.192 0.151986C128.176 0.151986 162.992 19.736 168.704 62.984H128.448C122.736 40.68 103.968 35.24 88.192 35.24C53.92 35.24 41.408 62.44 41.408 97.256C41.408 132.888 54.736 160.632 89.008 160.632C109.136 160.632 131.712 151.112 131.712 120.92H94.992V88.28H172.24V108.136C172.24 165.8 140.96 195.72 89.008 195.72Z" />
  <path paint-order="stroke" fill="rgb(102 112.59752275718772 255)" stroke="#080664" stroke-opacity="0.9176470588235294" stroke-width="22.5" stroke-linejoin="round" transform="translate(130.37844428220745 31.629026489974354) scale(0.06666666666666667 0.06666666666666667)" d="M0.144 191V0.599987H77.12C127.712 0.599987 149.744 26.984 149.744 64.248C149.744 101.24 127.712 127.624 77.12 127.624H40.944V191H0.144ZM40.944 92.264H75.76C98.064 92.264 107.856 81.112 107.856 64.248C107.856 47.112 98.064 35.96 75.76 35.96H40.944V92.264Z" />
  <path paint-order="stroke" fill="rgb(102 255 187.46365829884456)" stroke="#080664" stroke-opacity="0.9176470588235294" stroke-width="22.5" stroke-linejoin="round" transform="translate(116.45179839514134 124.58172103527065) scale(0.06666666666666667 0.06666666666666667)" d="M89.008 195.72C31.616 195.72 0.0640001 159 0.0640001 98.616C0.0640001 36.056 34.88 0.151986 88.192 0.151986C128.176 0.151986 162.992 19.736 168.704 62.984H128.448C122.736 40.68 103.968 35.24 88.192 35.24C53.92 35.24 41.408 62.44 41.408 97.256C41.408 132.888 54.736 160.632 89.008 160.632C109.136 160.632 131.712 151.112 131.712 120.92H94.992V88.28H172.24V108.136C172.24 165.8 140.96 195.72 89.008 195.72Z" />
  <path paint-order="stroke" fill="rgb(255 102 212.75294956713955)" stroke="#080664" stroke-opacity="0.9176470588235294" stroke-width="22.5" stroke-linejoin="round" transform="translate(36.24388796319316 169.9374005864239) scale(0.06666666666666667 0.06666666666666667)" d="M111.392 191L75.216 127.624H40.944V191H0.144V0.599987H77.12C127.712 0.599987 149.744 26.984 149.744 64.248C149.744 91.448 138.048 112.664 111.664 122.184L151.648 191H111.392ZM40.944 92.264H75.76C98.064 92.264 107.856 81.112 107.856 64.248C107.856 47.112 98.064 35.96 75.76 35.96H40.944V92.264Z" />
  <path paint-order="stroke" fill="rgb(102 214.80439759722995 255)" stroke="#080664" stroke-opacity="0.9176470588235294" stroke-width="22.5" stroke-linejoin="round" transform="translate(28.046542066595062 133.63909507302682) scale(0.06666666666666667 0.06666666666666667)" d="M0.624 191L69.44 0.599987H121.936L190.752 191H148.048L135.808 155.368H55.568L43.328 191H0.624ZM65.904 125.176H125.472L96.912 42.216H94.464L65.904 125.176Z" />
  <path paint-order="stroke" fill="rgb(102 222.77445969487553 255)" stroke="#080664" stroke-opacity="0.9176470588235294" stroke-width="22.5" stroke-linejoin="round" transform="translate(136.19206972736035 43.168725968519546) scale(0.06666666666666667 0.06666666666666667)" d="M115.472 191V112.664H40.944V191H0.144V0.599987H40.944V78.936H115.472V0.599987H156.272V191H115.472Z" />
  <path paint-order="stroke" fill="rgb(212.7930356651635 255 102)" stroke="#080664" stroke-opacity="0.9176470588235294" stroke-width="22.5" stroke-linejoin="round" transform="translate(73.41241289290376 96.27338704022937) scale(0.06666666666666667 0.06666666666666667)" d="M79.988 195.72C30.756 195.72 0.564 172.6 0.564 130.712H42.724C43.54 147.848 53.876 161.992 80.26 161.992C101.748 161.992 114.26 152.744 114.26 137.24C114.26 124.184 105.284 118.2 87.876 114.664L61.22 109.224C31.028 103.512 5.732 89.912 5.732 55.912C5.732 19.192 35.38 0.151986 79.172 0.151986C123.78 0.151986 152.34 19.736 152.34 58.904H110.452C110.996 41.768 97.124 33.88 78.356 33.88C56.324 33.88 48.436 44.76 48.436 55.912C48.436 64.616 53.876 73.048 71.012 76.584L95.492 81.48C140.372 90.728 157.508 108.136 157.508 136.968C157.508 178.04 123.508 195.72 79.988 195.72Z" />
  <path paint-order="stroke" fill="rgb(255 244.85334729143696 102)" stroke="#080664" stroke-opacity="0.9176470588235294" stroke-width="22.5" stroke-linejoin="round" transform="translate(117.87580648153944 141.32557073292998) scale(0.06666666666666667 0.06666666666666667)" d="M0.624 191L69.44 0.599987H121.936L190.752 191H148.048L135.808 155.368H55.568L43.328 191H0.624ZM65.904 125.176H125.472L96.912 42.216H94.464L65.904 125.176Z" />
  <path paint-order="stroke" fill="rgb(199.6345820648964 255 102)" stroke="#080664" stroke-opacity="0.9176470588235294" stroke-width="22.5" stroke-linejoin="round" transform="translate(75.31007396112787 179.6889177382086) scale(0.06666666666666667 0.06666666666666667)" d="M111.392 191L75.216 127.624H40.944V191H0.144V0.599987H77.12C127.712 0.599987 149.744 26.984 149.744 64.248C149.744 91.448 138.048 112.664 111.664 122.184L151.648 191H111.392ZM40.944 92.264H75.76C98.064 92.264 107.856 81.112 107.856 64.248C107.856 47.112 98.064 35.96 75.76 35.96H40.944V92.264Z" />
  <path paint-order="stroke" fill="rgb(102 162.69450781594645 255)" stroke="#080664" stroke-opacity="0.9176470588235294" stroke-width="22.5" stroke-linejoin="round" transform="translate(41.950226953679675 72.13716038564763) scale(0.06666666666666667 0.06666666666666667)" d="M79.988 195.72C30.756 195.72 0.564 172.6 0.564 130.712H42.724C43.54 147.848 53.876 161.992 80.26 161.992C101.748 161.992 114.26 152.744 114.26 137.24C114.26 124.184 105.284 118.2 87.876 114.664L61.22 109.224C31.028 103.512 5.732 89.912 5.732 55.912C5.732 19.192 35.38 0.151986 79.172 0.151986C123.78 0.151986 152.34 19.736 152.34 58.904H110.452C110.996 41.768 97.124 33.88 78.356 33.88C56.324 33.88 48.436 44.76 48.436 55.912C48.436 64.616 53.876 73.048 71.012 76.584L95.492 81.48C140.372 90.728 157.508 108.136 157.508 136.968C157.508 178.04 123.508 195.72 79.988 195.72Z" />
  <path paint-order="stroke" fill="rgb(210.84115013011998 102 255)" stroke="#080664" stroke-opacity="0.9176470588235294" stroke-width="22.5" stroke-linejoin="round" transform="translate(143.16439139167184 130.7540019996653) scale(0.06666666666666667 0.06666666666666667)" d="M111.392 191L75.216 127.624H40.944V191H0.144V0.599987H77.12C127.712 0.599987 149.744 26.984 149.744 64.248C149.744 91.448 138.048 112.664 111.664 122.184L151.648 191H111.392ZM40.944 92.264H75.76C98.064 92.264 107.856 81.112 107.856 64.248C107.856 47.112 98.064 35.96 75.76 35.96H40.944V92.264Z" />
  <path paint-order="stroke" fill="rgb(102 255 172.03770312016334)" stroke="#080664" stroke-opacity="0.9176470588235294" stroke-width="22.5" stroke-linejoin="round" transform="translate(132.38427766700735 157.310312584619) scale(0.06666666666666667 0.06666666666666667)" d="M111.392 191L75.216 127.624H40.944V191H0.144V0.599987H77.12C127.712 0.599987 149.744 26.984 149.744 64.248C149.744 91.448 138.048 112.664 111.664 122.184L151.648 191H111.392ZM40.944 92.264H75.76C98.064 92.264 107.856 81.112 107.856 64.248C107.856 47.112 98.064 35.96 75.76 35.96H40.944V92.264Z" />
  <path paint-order="stroke" fill="rgb(102 223.65448012782 255)" stroke="#080664" stroke-opacity="0.9176470588235294" stroke-width="22.5" stroke-linejoin="round" transform="translate(42.05231036965051 154.00710162163432) scale(0.06666666666666667 0.06666666666666667)" d="M0.144 191V0.599987H77.12C127.712 0.599987 149.744 26.984 149.744 64.248C149.744 101.24 127.712 127.624 77.12 127.624H40.944V191H0.144ZM40.944 92.264H75.76C98.064 92.264 107.856 81.112 107.856 64.248C107.856 47.112 98.064 35.96 75.76 35.96H40.944V92.264Z" />
  <path paint-order="stroke" fill="rgb(241.33613758284523 102 255)" stroke="#080664" stroke-opacity="0.9176470588235294" stroke-width="22.5" stroke-linejoin="round" transform="translate(97.33788082455871 86.78233283972826) scale(0.06666666666666667 0.06666666666666667)" d="M0.144 191V0.599987H77.12C127.712 0.599987 149.744 26.984 149.744 64.248C149.744 101.24 127.712 127.624 77.12 127.624H40.944V191H0.144ZM40.944 92.264H75.76C98.064 92.264 107.856 81.112 107.856 64.248C107.856 47.112 98.064 35.96 75.76 35.96H40.944V92.264Z" />
  <path paint-order="stroke" fill="rgb(102 255 226.27519521109147)" stroke="#080664" stroke-opacity="0.9176470588235294" stroke-width="22.5" stroke-linejoin="round" transform="translate(94.32637815426493 162.33435154527137) scale(0.06666666666666667 0.06666666666666667)" d="M0.624 191L69.44 0.599987H121.936L190.752 191H148.048L135.808 155.368H55.568L43.328 191H0.624ZM65.904 125.176H125.472L96.912 42.216H94.464L65.904 125.176Z" />
  <path paint-order="stroke" fill="rgb(219.8282428433772 255 102)" stroke="#080664" stroke-opacity="0.9176470588235294" stroke-width="22.5" stroke-linejoin="round" transform="translate(34.73106437199956 57.18253766478643) scale(0.06666666666666667 0.06666666666666667)" d="M79.988 195.72C30.756 195.72 0.564 172.6 0.564 130.712H42.724C43.54 147.848 53.876 161.992 80.26 161.992C101.748 161.992 114.26 152.744 114.26 137.24C114.26 124.184 105.284 118.2 87.876 114.664L61.22 109.224C31.028 103.512 5.732 89.912 5.732 55.912C5.732 19.192 35.38 0.151986 79.172 0.151986C123.78 0.151986 152.34 19.736 152.34 58.904H110.452C110.996 41.768 97.124 33.88 78.356 33.88C56.324 33.88 48.436 44.76 48.436 55.912C48.436 64.616 53.876 73.048 71.012 76.584L95.492 81.48C140.372 90.728 157.508 108.136 157.508 136.968C157.508 178.04 123.508 195.72 79.988 195.72Z" />
  <path paint-order="stroke" fill="rgb(255 102 170.34015438194328)" stroke="#080664" stroke-opacity="0.9176470588235294" stroke-width="22.5" stroke-linejoin="round" transform="translate(117.46106637066187 41.258630359798126) scale(0.06666666666666667 0.06666666666666667)" d="M111.392 191L75.216 127.624H40.944V191H0.144V0.599987H77.12C127.712 0.599987 149.744 26.984 149.744 64.248C149.744 91.448 138.048 112.664 111.664 122.184L151.648 191H111.392ZM40.944 92.264H75.76C98.064 92.264 107.856 81.112 107.856 64.248C107.856 47.112 98.064 35.96 75.76 35.96H40.944V92.264Z" />
  <path paint-order="stroke" fill="rgb(102 255 124.2064487424132)" stroke="#080664" stroke-opacity="0.9176470588235294" stroke-width="22.5" stroke-linejoin="round" transform="translate(77.44197947291245 3.653410790176839) scale(0.06666666666666667 0.06666666666666667)" d="M89.008 195.72C31.616 195.72 0.0640001 159 0.0640001 98.616C0.0640001 36.056 34.88 0.151986 88.192 0.151986C128.176 0.151986 162.992 19.736 168.704 62.984H128.448C122.736 40.68 103.968 35.24 88.192 35.24C53.92 35.24 41.408 62.44 41.408 97.256C41.408 132.888 54.736 160.632 89.008 160.632C109.136 160.632 131.712 151.112 131.712 120.92H94.992V88.28H172.24V108.136C172.24 165.8 140.96 195.72 89.008 195.72Z" />
  <path paint-order="stroke" fill="rgb(102 196.2025963946374 255)" stroke="#080664" stroke-opacity="0.9176470588235294" stroke-width="22.5" stroke-linejoin="round" transform="translate(82.86658607270358 83.75714734804392) scale(0.06666666666666667 0.06666666666666667)" d="M89.008 195.72C31.616 195.72 0.0640001 159 0.0640001 98.616C0.0640001 36.056 34.88 0.151986 88.192 0.151986C128.176 0.151986 162.992 19.736 168.704 62.984H128.448C122.736 40.68 103.968 35.24 88.192 35.24C53.92 35.24 41.408 62.44 41.408 97.256C41.408 132.888 54.736 160.632 89.008 160.632C109.136 160.632 131.712 151.112 131.712 120.92H94.992V88.28H172.24V108.136C172.24 165.8 140.96 195.72 89.008 195.72Z" />
  <path paint-order="stroke" fill="rgb(255 102 146.32586430186512)" stroke="#080664" stroke-opacity="0.9176470588235294" stroke-width="22.5" stroke-linejoin="round" transform="translate(129.66250117141215 133.10421462944282) scale(0.06666666666666667 0.06666666666666667)" d="M79.988 195.72C30.756 195.72 0.564 172.6 0.564 130.712H42.724C43.54 147.848 53.876 161.992 80.26 161.992C101.748 161.992 114.26 152.744 114.26 137.24C114.26 124.184 105.284 118.2 87.876 114.664L61.22 109.224C31.028 103.512 5.732 89.912 5.732 55.912C5.732 19.192 35.38 0.151986 79.172 0.151986C123.78 0.151986 152.34 19.736 152.34 58.904H110.452C110.996 41.768 97.124 33.88 78.356 33.88C56.324 33.88 48.436 44.76 48.436 55.912C48.436 64.616 53.876 73.048 71.012 76.584L95.492 81.48C140.372 90.728 157.508 108.136 157.508 136.968C157.508 178.04 123.508 195.72 79.988 195.72Z" />
  <path paint-order="stroke" fill="rgb(255 102 183.97221039953615)" stroke="#080664" stroke-opacity="0.9176470588235294" stroke-width="22.5" stroke-linejoin="round" transform="translate(129.19370175661368 101.67084831958557) scale(0.06666666666666667 0.06666666666666667)" d="M89.008 195.72C31.616 195.72 0.0640001 159 0.0640001 98.616C0.0640001 36.056 34.88 0.151986 88.192 0.151986C128.176 0.151986 162.992 19.736 168.704 62.984H128.448C122.736 40.68 103.968 35.24 88.192 35.24C53.92 35.24 41.408 62.44 41.408 97.256C41.408 132.888 54.736 160.632 89.008 160.632C109.136 160.632 131.712 151.112 131.712 120.92H94.992V88.28H172.24V108.136C172.24 165.8 140.96 195.72 89.008 195.72Z" />
  <path paint-order="stroke" fill="rgb(136.0208064456334 102 255)" stroke="#080664" stroke-opacity="0.9176470588235294" stroke-width="22.5" stroke-linejoin="round" transform="translate(87.09062500023161 18.917526072784604) scale(0.06666666666666667 0.06666666666666667)" d="M0.144 191V0.599987H40.944V191H0.144Z" />
  <path paint-order="stroke" fill="rgb(168.07167246618246 102 255)" stroke="#080664" stroke-opacity="0.9176470588235294" stroke-width="22.5" stroke-linejoin="round" transform="translate(55.262353845005855 76.91803969625917) scale(0.06666666666666667 0.06666666666666667)" d="M79.988 195.72C30.756 195.72 0.564 172.6 0.564 130.712H42.724C43.54 147.848 53.876 161.992 80.26 161.992C101.748 161.992 114.26 152.744 114.26 137.24C114.26 124.184 105.284 118.2 87.876 114.664L61.22 109.224C31.028 103.512 5.732 89.912 5.732 55.912C5.732 19.192 35.38 0.151986 79.172 0.151986C123.78 0.151986 152.34 19.736 152.34 58.904H110.452C110.996 41.768 97.124 33.88 78.356 33.88C56.324 33.88 48.436 44.76 48.436 55.912C48.436 64.616 53.876 73.048 71.012 76.584L95.492 81.48C140.372 90.728 157.508 108.136 157.508 136.968C157.508 178.04 123.508 195.72 79.988 195.72Z" />
  <path paint-order="stroke" fill="rgb(176.27105341153322 255 102)" stroke="#080664" stroke-opacity="0.9176470588235294" stroke-width="22.5" stroke-linejoin="round" transform="translate(23.957105831797485 44.612515338497616) scale(0.06666666666666667 0.06666666666666667)" d="M89.008 195.72C31.616 195.72 0.0640001 159 0.0640001 98.616C0.0640001 36.056 34.88 0.151986 88.192 0.151986C128.176 0.151986 162.992 19.736 168.704 62.984H128.448C122.736 40.68 103.968 35.24 88.192 35.24C53.92 35.24 41.408 62.44 41.408 97.256C41.408 132.888 54.736 160.632 89.008 160.632C109.136 160.632 131.712 151.112 131.712 120.92H94.992V88.28H172.24V108.136C172.24 165.8 140.96 195.72 89.008 195.72Z" />
  <path paint-order="stroke" fill="rgb(139.49080906176113 255 102)" stroke="#080664" stroke-opacity="0.9176470588235294" stroke-width="22.5" stroke-linejoin="round" transform="translate(29.345577244009377 16.515068271870117) scale(0.06666666666666667 0.06666666666666667)" d="M0.144 191V0.599987H77.12C127.712 0.599987 149.744 26.984 149.744 64.248C149.744 101.24 127.712 127.624 77.12 127.624H40.944V191H0.144ZM40.944 92.264H75.76C98.064 92.264 107.856 81.112 107.856 64.248C107.856 47.112 98.064 35.96 75.76 35.96H40.944V92.264Z" />
  <path paint-order="stroke" fill="rgb(133.04469747671413 102 255)" stroke="#080664" stroke-opacity="0.9176470588235294" stroke-width="22.5" stroke-linejoin="round" transform="translate(11.062093052256095 57.612530738147406) scale(0.06666666666666667 0.06666666666666667)" d="M0.144 191V0.599987H77.12C127.712 0.599987 149.744 26.984 149.744 64.248C149.744 101.24 127.712 127.624 77.12 127.624H40.944V191H0.144ZM40.944 92.264H75.76C98.064 92.264 107.856 81.112 107.856 64.248C107.856 47.112 98.064 35.96 75.76 35.96H40.944V92.264Z" />
  <path paint-order="stroke" fill="rgb(102 198.01460552797107 255)" stroke="#080664" stroke-opacity="0.9176470588235294" stroke-width="22.5" stroke-linejoin="round" transform="translate(26.55074975948592 79.44018118704217) scale(0.06666666666666667 0.06666666666666667)" d="M0.624 191L69.44 0.599987H121.936L190.752 191H148.048L135.808 155.368H55.568L43.328 191H0.624ZM65.904 125.176H125.472L96.912 42.216H94.464L65.904 125.176Z" />
  <path paint-order="stroke" fill="rgb(102 255 217.86331338379452)" stroke="#080664" stroke-opacity="0.9176470588235294" stroke-width="22.5" stroke-linejoin="round" transform="translate(49.08751102443421 162.58465731533906) scale(0.06666666666666667 0.06666666666666667)" d="M0.624 191L69.44 0.599987H121.936L190.752 191H148.048L135.808 155.368H55.568L43.328 191H0.624ZM65.904 125.176H125.472L96.912 42.216H94.464L65.904 125.176Z" />
  <path paint-order="stroke" fill="rgb(102 184.8428669763315 255)" stroke="#080664" stroke-opacity="0.9176470588235294" stroke-width="22.5" stroke-linejoin="round" transform="translate(123.46932261898694 94.83081240524027) scale(0.06666666666666667 0.06666666666666667)" d="M0.144 191V0.599987H40.944V191H0.144Z" />
  <path paint-order="stroke" fill="rgb(211.49533804283092 255 102)" stroke="#080664" stroke-opacity="0.9176470588235294" stroke-width="22.5" stroke-linejoin="round" transform="translate(89.90708824583912 178.2531605321307) scale(0.06666666666666667 0.06666666666666667)" d="M79.988 195.72C30.756 195.72 0.564 172.6 0.564 130.712H42.724C43.54 147.848 53.876 161.992 80.26 161.992C101.748 161.992 114.26 152.744 114.26 137.24C114.26 124.184 105.284 118.2 87.876 114.664L61.22 109.224C31.028 103.512 5.732 89.912 5.732 55.912C5.732 19.192 35.38 0.151986 79.172 0.151986C123.78 0.151986 152.34 19.736 152.34 58.904H110.452C110.996 41.768 97.124 33.88 78.356 33.88C56.324 33.88 48.436 44.76 48.436 55.912C48.436 64.616 53.876 73.048 71.012 76.584L95.492 81.48C140.372 90.728 157.508 108.136 157.508 136.968C157.508 178.04 123.508 195.72 79.988 195.72Z" />
  <path paint-order="stroke" fill="rgb(102 203.71075613313582 255)" stroke="#080664" stroke-opacity="0.9176470588235294" stroke-width="22.5" stroke-linejoin="round" transform="translate(28.569059754380277 148.92086330507394) scale(0.06666666666666667 0.06666666666666667)" d="M79.988 195.72C30.756 195.72 0.564 172.6 0.564 130.712H42.724C43.54 147.848 53.876 161.992 80.26 161.992C101.748 161.992 114.26 152.744 114.26 137.24C114.26 124.184 105.284 118.2 87.876 114.664L61.22 109.224C31.028 103.512 5.732 89.912 5.732 55.912C5.732 19.192 35.38 0.151986 79.172 0.151986C123.78 0.151986 152.34 19.736 152.34 58.904H110.452C110.996 41.768 97.124 33.88 78.356 33.88C56.324 33.88 48.436 44.76 48.436 55.912C48.436 64.616 53.876 73.048 71.012 76.584L95.492 81.48C140.372 90.728 157.508 108.136 157.508 136.968C157.508 178.04 123.508 195.72 79.988 195.72Z" />
  <path paint-order="stroke" fill="rgb(255 149.57177978492123 102)" stroke="#080664" stroke-opacity="0.9176470588235294" stroke-width="22.5" stroke-linejoin="round" transform="translate(91.96042134216302 5.128126661662936) scale(0.06666666666666667 0.06666666666666667)" d="M89.008 195.72C31.616 195.72 0.0640001 159 0.0640001 98.616C0.0640001 36.056 34.88 0.151986 88.192 0.151986C128.176 0.151986 162.992 19.736 168.704 62.984H128.448C122.736 40.68 103.968 35.24 88.192 35.24C53.92 35.24 41.408 62.44 41.408 97.256C41.408 132.888 54.736 160.632 89.008 160.632C109.136 160.632 131.712 151.112 131.712 120.92H94.992V88.28H172.24V108.136C172.24 165.8 140.96 195.72 89.008 195.72Z" />
  <path paint-order="stroke" fill="rgb(182.3715366493206 102 255)" stroke="#080664" stroke-opacity="0.9176470588235294" stroke-width="22.5" stroke-linejoin="round" transform="translate(56.286982636724524 92.89996733147838) scale(0.06666666666666667 0.06666666666666667)" d="M79.988 195.72C30.756 195.72 0.564 172.6 0.564 130.712H42.724C43.54 147.848 53.876 161.992 80.26 161.992C101.748 161.992 114.26 152.744 114.26 137.24C114.26 124.184 105.284 118.2 87.876 114.664L61.22 109.224C31.028 103.512 5.732 89.912 5.732 55.912C5.732 19.192 35.38 0.151986 79.172 0.151986C123.78 0.151986 152.34 19.736 152.34 58.904H110.452C110.996 41.768 97.124 33.88 78.356 33.88C56.324 33.88 48.436 44.76 48.436 55.912C48.436 64.616 53.876 73.048 71.012 76.584L95.492 81.48C140.372 90.728 157.508 108.136 157.508 136.968C157.508 178.04 123.508 195.72 79.988 195.72Z" />
  <path paint-order="stroke" fill="rgb(255 102 245.96862377532113)" stroke="#080664" stroke-opacity="0.9176470588235294" stroke-width="22.5" stroke-linejoin="round" transform="translate(10.575949146441307 133.81227793538739) scale(0.06666666666666667 0.06666666666666667)" d="M0.144 191V0.599987H40.944V191H0.144Z" />
  <path paint-order="stroke" fill="rgb(190.01027143273657 102 255)" stroke="#080664" stroke-opacity="0.9176470588235294" stroke-width="22.5" stroke-linejoin="round" transform="translate(136.90865529097482 115.03305348298224) scale(0.06666666666666667 0.06666666666666667)" d="M0.624 191L69.44 0.599987H121.936L190.752 191H148.048L135.808 155.368H55.568L43.328 191H0.624ZM65.904 125.176H125.472L96.912 42.216H94.464L65.904 125.176Z" />
  <path paint-order="stroke" fill="rgb(255 169.00447404397602 102)" stroke="#080664" stroke-opacity="0.9176470588235294" stroke-width="22.5" stroke-linejoin="round" transform="translate(106.62400383343764 10.243882110469247) scale(0.06666666666666667 0.06666666666666667)" d="M115.472 191V112.664H40.944V191H0.144V0.599987H40.944V78.936H115.472V0.599987H156.272V191H115.472Z" />
  <path paint-order="stroke" fill="rgb(255 150.62540574864826 102)" stroke="#080664" stroke-opacity="0.9176470588235294" stroke-width="22.5" stroke-linejoin="round" transform="translate(22.33319770130901 134.73166299892793) scale(0.06666666666666667 0.06666666666666667)" d="M0.144 191V0.599987H40.944V191H0.144Z" />
  <path paint-order="stroke" fill="rgb(102 176.2922661944014 255)" stroke="#080664" stroke-opacity="0.9176470588235294" stroke-width="22.5" stroke-linejoin="round" transform="translate(112.91797967466442 108.97478568278225) scale(0.06666666666666667 0.06666666666666667)" d="M79.988 195.72C30.756 195.72 0.564 172.6 0.564 130.712H42.724C43.54 147.848 53.876 161.992 80.26 161.992C101.748 161.992 114.26 152.744 114.26 137.24C114.26 124.184 105.284 118.2 87.876 114.664L61.22 109.224C31.028 103.512 5.732 89.912 5.732 55.912C5.732 19.192 35.38 0.151986 79.172 0.151986C123.78 0.151986 152.34 19.736 152.34 58.904H110.452C110.996 41.768 97.124 33.88 78.356 33.88C56.324 33.88 48.436 44.76 48.436 55.912C48.436 64.616 53.876 73.048 71.012 76.584L95.492 81.48C140.372 90.728 157.508 108.136 157.508 136.968C157.508 178.04 123.508 195.72 79.988 195.72Z" />
  <path paint-order="stroke" fill="rgb(136.6098351077478 255 102)" stroke="#080664" stroke-opacity="0.9176470588235294" stroke-width="22.5" stroke-linejoin="round" transform="translate(10.21666785486626 41.625562256227745) scale(0.06666666666666667 0.06666666666666667)" d="M79.988 195.72C30.756 195.72 0.564 172.6 0.564 130.712H42.724C43.54 147.848 53.876 161.992 80.26 161.992C101.748 161.992 114.26 152.744 114.26 137.24C114.26 124.184 105.284 118.2 87.876 114.664L61.22 109.224C31.028 103.512 5.732 89.912 5.732 55.912C5.732 19.192 35.38 0.151986 79.172 0.151986C123.78 0.151986 152.34 19.736 152.34 58.904H110.452C110.996 41.768 97.124 33.88 78.356 33.88C56.324 33.88 48.436 44.76 48.436 55.912C48.436 64.616 53.876 73.048 71.012 76.584L95.492 81.48C140.372 90.728 157.508 108.136 157.508 136.968C157.508 178.04 123.508 195.72 79.988 195.72Z" />
  <path paint-order="stroke" fill="rgb(255 102 202.65648905381212)" stroke="#080664" stroke-opacity="0.9176470588235294" stroke-width="22.5" stroke-linejoin="round" transform="translate(68.66850645428279 80.55075457795212) scale(0.06666666666666667 0.06666666666666667)" d="M89.008 195.72C31.616 195.72 0.0640001 159 0.0640001 98.616C0.0640001 36.056 34.88 0.151986 88.192 0.151986C128.176 0.151986 162.992 19.736 168.704 62.984H128.448C122.736 40.68 103.968 35.24 88.192 35.24C53.92 35.24 41.408 62.44 41.408 97.256C41.408 132.888 54.736 160.632 89.008 160.632C109.136 160.632 131.712 151.112 131.712 120.92H94.992V88.28H172.24V108.136C172.24 165.8 140.96 195.72 89.008 195.72Z" />
  <path paint-order="stroke" fill="rgb(255 202.34351893976944 102)" stroke="#080664" stroke-opacity="0.9176470588235294" stroke-width="22.5" stroke-linejoin="round" transform="translate(42.247228396683845 87.96665463004562) scale(0.06666666666666667 0.06666666666666667)" d="M115.472 191V112.664H40.944V191H0.144V0.599987H40.944V78.936H115.472V0.599987H156.272V191H115.472Z" />
  <path paint-order="stroke" fill="rgb(102 219.90464272477928 255)" stroke="#080664" stroke-opacity="0.9176470588235294" stroke-width="22.5" stroke-linejoin="round" transform="translate(22.7504219653015 163.9390091287809) scale(0.06666666666666667 0.06666666666666667)" d="M79.988 195.72C30.756 195.72 0.564 172.6 0.564 130.712H42.724C43.54 147.848 53.876 161.992 80.26 161.992C101.748 161.992 114.26 152.744 114.26 137.24C114.26 124.184 105.284 118.2 87.876 114.664L61.22 109.224C31.028 103.512 5.732 89.912 5.732 55.912C5.732 19.192 35.38 0.151986 79.172 0.151986C123.78 0.151986 152.34 19.736 152.34 58.904H110.452C110.996 41.768 97.124 33.88 78.356 33.88C56.324 33.88 48.436 44.76 48.436 55.912C48.436 64.616 53.876 73.048 71.012 76.584L95.492 81.48C140.372 90.728 157.508 108.136 157.508 136.968C157.508 178.04 123.508 195.72 79.988 195.72Z" />
  <path paint-order="stroke" fill="rgb(230.79005990409374 102 255)" stroke="#080664" stroke-opacity="0.9176470588235294" stroke-width="22.5" stroke-linejoin="round" transform="translate(108.93523699275688 91.09035198130339) scale(0.06666666666666667 0.06666666666666667)" d="M89.008 195.72C31.616 195.72 0.0640001 159 0.0640001 98.616C0.0640001 36.056 34.88 0.151986 88.192 0.151986C128.176 0.151986 162.992 19.736 168.704 62.984H128.448C122.736 40.68 103.968 35.24 88.192 35.24C53.92 35.24 41.408 62.44 41.408 97.256C41.408 132.888 54.736 160.632 89.008 160.632C109.136 160.632 131.712 151.112 131.712 120.92H94.992V88.28H172.24V108.136C172.24 165.8 140.96 195.72 89.008 195.72Z" />
</svg>
