<svg xmlns="http://www.w3.org/2000/svg" viewBox="0 0 158 196">
  <path fill="#C1C1C1" d="M79.988 195.72C30.756 195.72 0.564 172.6 0.564 130.712H42.724C43.54 147.848 53.876 161.992 80.26 161.992C101.748 161.992 114.26 152.744 114.26 137.24C114.26 124.184 105.284 118.2 87.876 114.664L61.22 109.224C31.028 103.512 5.732 89.912 5.732 55.912C5.732 19.192 35.38 0.151986 79.172 0.151986C123.78 0.151986 152.34 19.736 152.34 58.904H110.452C110.996 41.768 97.124 33.88 78.356 33.88C56.324 33.88 48.436 44.76 48.436 55.912C48.436 64.616 53.876 73.048 71.012 76.584L95.492 81.48C140.372 90.728 157.508 108.136 157.508 136.968C157.508 178.04 123.508 195.72 79.988 195.72Z" />
  <path paint-order="stroke" fill="rgb(102 124.58667348217419 255)" stroke="#080664" stroke-opacity="0.9176470588235294" stroke-width="22.5" stroke-linejoin="round" transform="translate(98.09125994084543 101.48695853039023) scale(0.06666666666666667 0.06666666666666667)" d="M0.624 191L69.44 0.599987H121.936L190.752 191H148.048L135.808 155.368H55.568L43.328 191H0.624ZM65.904 125.176H125.472L96.912 42.216H94.464L65.904 125.176Z" />
  <path paint-order="stroke" fill="rgb(102 255 203.22187540303133)" stroke="#080664" stroke-opacity="0.9176470588235294" stroke-width="22.5" stroke-linejoin="round" transform="translate(12.960396971379089 149.85337939563993) scale(0.06666666666666667 0.06666666666666667)" d="M0.144 191V0.599987H77.12C127.712 0.599987 149.744 26.984 149.744 64.248C149.744 101.24 127.712 127.624 77.12 127.624H40.944V191H0.144ZM40.944 92.264H75.76C98.064 92.264 107.856 81.112 107.856 64.248C107.856 47.112 98.064 35.96 75.76 35.96H40.944V92.264Z" />
  <path paint-order="stroke" fill="rgb(132.35466918640145 102 255)" stroke="#080664" stroke-opacity="0.9176470588235294" stroke-width="22.5" stroke-linejoin="round" transform="translate(81.81091616552494 164.3427061822877) scale(0.06666666666666667 0.06666666666666667)" d="M79.988 195.72C30.756 195.72 0.564 172.6 0.564 130.712H42.724C43.54 147.848 53.876 161.992 80.26 161.992C101.748 161.992 114.26 152.744 114.26 137.24C114.26 124.184 105.284 118.2 87.876 114.664L61.22 109.224C31.028 103.512 5.732 89.912 5.732 55.912C5.732 19.192 35.38 0.151986 79.172 0.151986C123.78 0.151986 152.34 19.736 152.34 58.904H110.452C110.996 41.768 97.124 33.88 78.356 33.88C56.324 33.88 48.436 44.76 48.436 55.912C48.436 64.616 53.876 73.048 71.012 76.584L95.492 81.48C140.372 90.728 157.508 108.136 157.508 136.968C157.508 178.04 123.508 195.72 79.988 195.72Z" />
  <path paint-order="stroke" fill="rgb(255 110.43698985418082 102)" stroke="#080664" stroke-opacity="0.9176470588235294" stroke-width="22.5" stroke-linejoin="round" transform="translate(93.08028174645555 21.320386010772364) scale(0.06666666666666667 0.06666666666666667)" d="M89.008 195.72C31.616 195.72 0.0640001 159 0.0640001 98.616C0.0640001 36.056 34.88 0.151986 88.192 0.151986C128.176 0.151986 162.992 19.736 168.704 62.984H128.448C122.736 40.68 103.968 35.24 88.192 35.24C53.92 35.24 41.408 62.44 41.408 97.256C41.408 132.888 54.736 160.632 89.008 160.632C109.136 160.632 131.712 151.112 131.712 120.92H94.992V88.28H172.24V108.136C172.24 165.8 140.96 195.72 89.008 195.72Z" />
  <path paint-order="stroke" fill="rgb(102 255 137.95665935264938)" stroke="#080664" stroke-opacity="0.9176470588235294" stroke-width="22.5" stroke-linejoin="round" transform="translate(56.05700777621218 5.206883933783629) scale(0.06666666666666667 0.06666666666666667)" d="M115.472 191V112.664H40.944V191H0.144V0.599987H40.944V78.936H115.472V0.599987H156.272V191H115.472Z" />
  <path paint-order="stroke" fill="rgb(255 224.58201288133768 102)" stroke="#080664" stroke-opacity="0.9176470588235294" stroke-width="22.5" stroke-linejoin="round" transform="translate(70.29188573425888 18.289593266432867) scale(0.06666666666666667 0.06666666666666667)" d="M0.624 191L69.44 0.599987H121.936L190.752 191H148.048L135.808 155.368H55.568L43.328 191H0.624ZM65.904 125.176H125.472L96.912 42.216H94.464L65.904 125.176Z" />
  <path paint-order="stroke" fill="rgb(255 242.83261187602216 102)" stroke="#080664" stroke-opacity="0.9176470588235294" stroke-width="22.5" stroke-linejoin="round" transform="translate(55.36299043692983 20.54453701094929) scale(0.06666666666666667 0.06666666666666667)" d="M89.008 195.72C31.616 195.72 0.0640001 159 0.0640001 98.616C0.0640001 36.056 34.88 0.151986 88.192 0.151986C128.176 0.151986 162.992 19.736 168.704 62.984H128.448C122.736 40.68 103.968 35.24 88.192 35.24C53.92 35.24 41.408 62.44 41.408 97.256C41.408 132.888 54.736 160.632 89.008 160.632C109.136 160.632 131.712 151.112 131.712 120.92H94.992V88.28H172.24V108.136C172.24 165.8 140.96 195.72 89.008 195.72Z" />
  <path paint-order="stroke" fill="rgb(255 227.80333694082103 102)" stroke="#080664" stroke-opacity="0.9176470588235294" stroke-width="22.5" stroke-linejoin="round" transform="translate(107.09155794475309 172.84247025080933) scale(0.06666666666666667 0.06666666666666667)" d="M0.624 191L69.44 0.599987H121.936L190.752 191H148.048L135.808 155.368H55.568L43.328 191H0.624ZM65.904 125.176H125.472L96.912 42.216H94.464L65.904 125.176Z" />
  <path paint-order="stroke" fill="rgb(102 255 251.0139862721669)" stroke="#080664" stroke-opacity="0.9176470588235294" stroke-width="22.5" stroke-linejoin="round" transform="translate(41.95943485643482 16.149398319787714) scale(0.06666666666666667 0.06666666666666667)" d="M115.472 191V112.664H40.944V191H0.144V0.599987H40.944V78.936H115.472V0.599987H156.272V191H115.472Z" />
  <path paint-order="stroke" fill="rgb(102 255 189.4044431805561)" stroke="#080664" stroke-opacity="0.9176470588235294" stroke-width="22.5" stroke-linejoin="round" transform="translate(64.2931889356615 164.32264835151125) scale(0.06666666666666667 0.06666666666666667)" d="M115.472 191V112.664H40.944V191H0.144V0.599987H40.944V78.936H115.472V0.599987H156.272V191H115.472Z" />
  <path paint-order="stroke" fill="rgb(120.2109429886823 102 255)" stroke="#080664" stroke-opacity="0.9176470588235294" stroke-width="22.5" stroke-linejoin="round" transform="translate(30.658327759997075 28.88544081734752) scale(0.06666666666666667 0.06666666666666667)" d="M0.624 191L69.44 0.599987H121.936L190.752 191H148.048L135.808 155.368H55.568L43.328 191H0.624ZM65.904 125.176H125.472L96.912 42.216H94.464L65.904 125.176Z" />
  <path paint-order="stroke" fill="rgb(109.70436343528952 102 255)" stroke="#080664" stroke-opacity="0.9176470588235294" stroke-width="22.5" stroke-linejoin="round" transform="translate(16.962113075456116 69.6483165163197) scale(0.06666666666666667 0.06666666666666667)" d="M115.472 191V112.664H40.944V191H0.144V0.599987H40.944V78.936H115.472V0.599987H156.272V191H115.472Z" />
  <path paint-order="stroke" fill="rgb(255 102 119.96980365850926)" stroke="#080664" stroke-opacity="0.9176470588235294" stroke-width="22.5" stroke-linejoin="round" transform="translate(16.073944416201105 27.27173720269393) scale(0.06666666666666667 0.06666666666666667)" d="M79.988 195.72C30.756 195.72 0.564 172.6 0.564 130.712H42.724C43.54 147.848 53.876 161.992 80.26 161.992C101.748 161.992 114.26 152.744 114.26 137.24C114.26 124.184 105.284 118.2 87.876 114.664L61.22 109.224C31.028 103.512 5.732 89.912 5.732 55.912C5.732 19.192 35.38 0.151986 79.172 0.151986C123.78 0.151986 152.34 19.736 152.34 58.904H110.452C110.996 41.768 97.124 33.88 78.356 33.88C56.324 33.88 48.436 44.76 48.436 55.912C48.436 64.616 53.876 73.048 71.012 76.584L95.492 81.48C140.372 90.728 157.508 108.136 157.508 136.968C157.508 178.04 123.508 195.72 79.988 195.72Z" />
  <path paint-order="stroke" fill="rgb(102 255 113.45728722204593)" stroke="#080664" stroke-opacity="0.9176470588235294" stroke-width="22.5" stroke-linejoin="round" transform="translate(53.61592154216028 177.31413239079987) scale(0.06666666666666667 0.06666666666666667)" d="M0.144 191V0.599987H40.944V191H0.144Z" />
  <path paint-order="stroke" fill="rgb(102 243.7967102385868 255)" stroke="#080664" stroke-opacity="0.9176470588235294" stroke-width="22.5" stroke-linejoin="round" transform="translate(126.38814028362953 159.10487599457022) scale(0.06666666666666667 0.06666666666666667)" d="M0.144 191V0.599987H40.944V191H0.144Z" />
  <path paint-order="stroke" fill="rgb(184.44639793541643 255 102)" stroke="#080664" stroke-opacity="0.9176470588235294" stroke-width="22.5" stroke-linejoin="round" transform="translate(112.9132739694285 157.11728353824742) scale(0.06666666666666667 0.06666666666666667)" d="M115.472 191V112.664H40.944V191H0.144V0.599987H40.944V78.936H115.472V0.599987H156.272V191H115.472Z" />
  <path paint-order="stroke" fill="rgb(102 255 148.99533385908003)" stroke="#080664" stroke-opacity="0.9176470588235294" stroke-width="22.5" stroke-linejoin="round" transform="translate(107.22044425359486 25.88720715176545) scale(0.06666666666666667 0.06666666666666667)" d="M79.988 195.72C30.756 195.72 0.564 172.6 0.564 130.712H42.724C43.54 147.848 53.876 161.992 80.26 161.992C101.748 161.992 114.26 152.744 114.26 137.24C114.26 124.184 105.284 118.2 87.876 114.664L61.22 109.224C31.028 103.512 5.732 89.912 5.732 55.912C5.732 19.192 35.38 0.151986 79.172 0.151986C123.78 0.151986 152.34 19.736 152.34 58.904H110.452C110.996 41.768 97.124 33.88 78.356 33.88C56.324 33.88 48.436 44.76 48.436 55.912C48.436 64.616 53.876 73.048 71.012 76.584L95.492 81.48C140.372 90.728 157.508 108.136 157.508 136.968C157.508 178.04 123.508 195.72 79.988 195.72Z" />
  <path paint-order="stroke" fill="rgb(255 178.11508367428374 102)" stroke="#080664" stroke-opacity="0.9176470588235294" stroke-width="22.5" stroke-linejoin="round" transform="translate(120.26386389231475 16.574646651265475) scale(0.06666666666666667 0.06666666666666667)" d="M89.008 195.72C31.616 195.72 0.0640001 159 0.0640001 98.616C0.0640001 36.056 34.88 0.151986 88.192 0.151986C128.176 0.151986 162.992 19.736 168.704 62.984H128.448C122.736 40.68 103.968 35.24 88.192 35.24C53.92 35.24 41.408 62.44 41.408 97.256C41.408 132.888 54.736 160.632 89.008 160.632C109.136 160.632 131.712 151.112 131.712 120.92H94.992V88.28H172.24V108.136C172.24 165.8 140.96 195.72 89.008 195.72Z" />
  <path paint-order="stroke" fill="rgb(102 112.59752275718772 255)" stroke="#080664" stroke-opacity="0.9176470588235294" stroke-width="22.5" stroke-linejoin="round" transform="translate(130.41586033895857 31.614832656246367) scale(0.06666666666666667 0.06666666666666667)" d="M0.144 191V0.599987H77.12C127.712 0.599987 149.744 26.984 149.744 64.248C149.744 101.24 127.712 127.624 77.12 127.624H40.944V191H0.144ZM40.944 92.264H75.76C98.064 92.264 107.856 81.112 107.856 64.248C107.856 47.112 98.064 35.96 75.76 35.96H40.944V92.264Z" />
  <path paint-order="stroke" fill="rgb(102 255 187.46365829884456)" stroke="#080664" stroke-opacity="0.9176470588235294" stroke-width="22.5" stroke-linejoin="round" transform="translate(116.55878092766864 124.9497682834124) scale(0.06666666666666667 0.06666666666666667)" d="M89.008 195.72C31.616 195.72 0.0640001 159 0.0640001 98.616C0.0640001 36.056 34.88 0.151986 88.192 0.151986C128.176 0.151986 162.992 19.736 168.704 62.984H128.448C122.736 40.68 103.968 35.24 88.192 35.24C53.92 35.24 41.408 62.44 41.408 97.256C41.408 132.888 54.736 160.632 89.008 160.632C109.136 160.632 131.712 151.112 131.712 120.92H94.992V88.28H172.24V108.136C172.24 165.8 140.96 195.72 89.008 195.72Z" />
  <path paint-order="stroke" fill="rgb(255 102 212.75294956713955)" stroke="#080664" stroke-opacity="0.9176470588235294" stroke-width="22.5" stroke-linejoin="round" transform="translate(35.773457370847545 169.6358800079461) scale(0.06666666666666667 0.06666666666666667)" d="M111.392 191L75.216 127.624H40.944V191H0.144V0.599987H77.12C127.712 0.599987 149.744 26.984 149.744 64.248C149.744 91.448 138.048 112.664 111.664 122.184L151.648 191H111.392ZM40.944 92.264H75.76C98.064 92.264 107.856 81.112 107.856 64.248C107.856 47.112 98.064 35.96 75.76 35.96H40.944V92.264Z" />
  <path paint-order="stroke" fill="rgb(102 214.80439759722995 255)" stroke="#080664" stroke-opacity="0.9176470588235294" stroke-width="22.5" stroke-linejoin="round" transform="translate(27.166757752634208 133.63382723771835) scale(0.06666666666666667 0.06666666666666667)" d="M0.624 191L69.44 0.599987H121.936L190.752 191H148.048L135.808 155.368H55.568L43.328 191H0.624ZM65.904 125.176H125.472L96.912 42.216H94.464L65.904 125.176Z" />
  <path paint-order="stroke" fill="rgb(102 222.77445969487553 255)" stroke="#080664" stroke-opacity="0.9176470588235294" stroke-width="22.5" stroke-linejoin="round" transform="translate(136.17305682879555 43.117716327632955) scale(0.06666666666666667 0.06666666666666667)" d="M115.472 191V112.664H40.944V191H0.144V0.599987H40.944V78.936H115.472V0.599987H156.272V191H115.472Z" />
  <path paint-order="stroke" fill="rgb(212.7930356651635 255 102)" stroke="#080664" stroke-opacity="0.9176470588235294" stroke-width="22.5" stroke-linejoin="round" transform="translate(74.04176986433778 96.59231959658531) scale(0.06666666666666667 0.06666666666666667)" d="M79.988 195.72C30.756 195.72 0.564 172.6 0.564 130.712H42.724C43.54 147.848 53.876 161.992 80.26 161.992C101.748 161.992 114.26 152.744 114.26 137.24C114.26 124.184 105.284 118.2 87.876 114.664L61.22 109.224C31.028 103.512 5.732 89.912 5.732 55.912C5.732 19.192 35.38 0.151986 79.172 0.151986C123.78 0.151986 152.34 19.736 152.34 58.904H110.452C110.996 41.768 97.124 33.88 78.356 33.88C56.324 33.88 48.436 44.76 48.436 55.912C48.436 64.616 53.876 73.048 71.012 76.584L95.492 81.48C140.372 90.728 157.508 108.136 157.508 136.968C157.508 178.04 123.508 195.72 79.988 195.72Z" />
  <path paint-order="stroke" fill="rgb(255 244.85334729143696 102)" stroke="#080664" stroke-opacity="0.9176470588235294" stroke-width="22.5" stroke-linejoin="round" transform="translate(117.36835376173788 141.35302627203612) scale(0.06666666666666667 0.06666666666666667)" d="M0.624 191L69.44 0.599987H121.936L190.752 191H148.048L135.808 155.368H55.568L43.328 191H0.624ZM65.904 125.176H125.472L96.912 42.216H94.464L65.904 125.176Z" />
  <path paint-order="stroke" fill="rgb(199.6345820648964 255 102)" stroke="#080664" stroke-opacity="0.9176470588235294" stroke-width="22.5" stroke-linejoin="round" transform="translate(76.46966301970987 179.43163140510927) scale(0.06666666666666667 0.06666666666666667)" d="M111.392 191L75.216 127.624H40.944V191H0.144V0.599987H77.12C127.712 0.599987 149.744 26.984 149.744 64.248C149.744 91.448 138.048 112.664 111.664 122.184L151.648 191H111.392ZM40.944 92.264H75.76C98.064 92.264 107.856 81.112 107.856 64.248C107.856 47.112 98.064 35.96 75.76 35.96H40.944V92.264Z" />
  <path paint-order="stroke" fill="rgb(102 162.69450781594645 255)" stroke="#080664" stroke-opacity="0.9176470588235294" stroke-width="22.5" stroke-linejoin="round" transform="translate(42.03672864114986 72.01022266625934) scale(0.06666666666666667 0.06666666666666667)" d="M79.988 195.72C30.756 195.72 0.564 172.6 0.564 130.712H42.724C43.54 147.848 53.876 161.992 80.26 161.992C101.748 161.992 114.26 152.744 114.26 137.24C114.26 124.184 105.284 118.2 87.876 114.664L61.22 109.224C31.028 103.512 5.732 89.912 5.732 55.912C5.732 19.192 35.38 0.151986 79.172 0.151986C123.78 0.151986 152.34 19.736 152.34 58.904H110.452C110.996 41.768 97.124 33.88 78.356 33.88C56.324 33.88 48.436 44.76 48.436 55.912C48.436 64.616 53.876 73.048 71.012 76.584L95.492 81.48C140.372 90.728 157.508 108.136 157.508 136.968C157.508 178.04 123.508 195.72 79.988 195.72Z" />
  <path paint-order="stroke" fill="rgb(210.84115013011998 102 255)" stroke="#080664" stroke-opacity="0.9176470588235294" stroke-width="22.5" stroke-linejoin="round" transform="translate(143.0478578238415 130.9008681446312) scale(0.06666666666666667 0.06666666666666667)" d="M111.392 191L75.216 127.624H40.944V191H0.144V0.599987H77.12C127.712 0.599987 149.744 26.984 149.744 64.248C149.744 91.448 138.048 112.664 111.664 122.184L151.648 191H111.392ZM40.944 92.264H75.76C98.064 92.264 107.856 81.112 107.856 64.248C107.856 47.112 98.064 35.96 75.76 35.96H40.944V92.264Z" />
  <path paint-order="stroke" fill="rgb(102 255 172.03770312016334)" stroke="#080664" stroke-opacity="0.9176470588235294" stroke-width="22.5" stroke-linejoin="round" transform="translate(132.37417916469948 157.31885121051792) scale(0.06666666666666667 0.06666666666666667)" d="M111.392 191L75.216 127.624H40.944V191H0.144V0.599987H77.12C127.712 0.599987 149.744 26.984 149.744 64.248C149.744 91.448 138.048 112.664 111.664 122.184L151.648 191H111.392ZM40.944 92.264H75.76C98.064 92.264 107.856 81.112 107.856 64.248C107.856 47.112 98.064 35.96 75.76 35.96H40.944V92.264Z" />
  <path paint-order="stroke" fill="rgb(102 223.65448012782 255)" stroke="#080664" stroke-opacity="0.9176470588235294" stroke-width="22.5" stroke-linejoin="round" transform="translate(41.75412307213302 153.70592960360437) scale(0.06666666666666667 0.06666666666666667)" d="M0.144 191V0.599987H77.12C127.712 0.599987 149.744 26.984 149.744 64.248C149.744 101.24 127.712 127.624 77.12 127.624H40.944V191H0.144ZM40.944 92.264H75.76C98.064 92.264 107.856 81.112 107.856 64.248C107.856 47.112 98.064 35.96 75.76 35.96H40.944V92.264Z" />
  <path paint-order="stroke" fill="rgb(241.33613758284523 102 255)" stroke="#080664" stroke-opacity="0.9176470588235294" stroke-width="22.5" stroke-linejoin="round" transform="translate(97.68486120852843 86.87891023058808) scale(0.06666666666666667 0.06666666666666667)" d="M0.144 191V0.599987H77.12C127.712 0.599987 149.744 26.984 149.744 64.248C149.744 101.24 127.712 127.624 77.12 127.624H40.944V191H0.144ZM40.944 92.264H75.76C98.064 92.264 107.856 81.112 107.856 64.248C107.856 47.112 98.064 35.96 75.76 35.96H40.944V92.264Z" />
  <path paint-order="stroke" fill="rgb(102 255 226.27519521109147)" stroke="#080664" stroke-opacity="0.9176470588235294" stroke-width="22.5" stroke-linejoin="round" transform="translate(95.04178466301612 162.2229419116817) scale(0.06666666666666667 0.06666666666666667)" d="M0.624 191L69.44 0.599987H121.936L190.752 191H148.048L135.808 155.368H55.568L43.328 191H0.624ZM65.904 125.176H125.472L96.912 42.216H94.464L65.904 125.176Z" />
  <path paint-order="stroke" fill="rgb(219.8282428433772 255 102)" stroke="#080664" stroke-opacity="0.9176470588235294" stroke-width="22.5" stroke-linejoin="round" transform="translate(34.8094660027716 57.10814267061133) scale(0.06666666666666667 0.06666666666666667)" d="M79.988 195.72C30.756 195.72 0.564 172.6 0.564 130.712H42.724C43.54 147.848 53.876 161.992 80.26 161.992C101.748 161.992 114.26 152.744 114.26 137.24C114.26 124.184 105.284 118.2 87.876 114.664L61.22 109.224C31.028 103.512 5.732 89.912 5.732 55.912C5.732 19.192 35.38 0.151986 79.172 0.151986C123.78 0.151986 152.34 19.736 152.34 58.904H110.452C110.996 41.768 97.124 33.88 78.356 33.88C56.324 33.88 48.436 44.76 48.436 55.912C48.436 64.616 53.876 73.048 71.012 76.584L95.492 81.48C140.372 90.728 157.508 108.136 157.508 136.968C157.508 178.04 123.508 195.72 79.988 195.72Z" />
  <path paint-order="stroke" fill="rgb(255 102 170.34015438194328)" stroke="#080664" stroke-opacity="0.9176470588235294" stroke-width="22.5" stroke-linejoin="round" transform="translate(117.43049517155572 41.339913136314166) scale(0.06666666666666667 0.06666666666666667)" d="M111.392 191L75.216 127.624H40.944V191H0.144V0.599987H77.12C127.712 0.599987 149.744 26.984 149.744 64.248C149.744 91.448 138.048 112.664 111.664 122.184L151.648 191H111.392ZM40.944 92.264H75.76C98.064 92.264 107.856 81.112 107.856 64.248C107.856 47.112 98.064 35.96 75.76 35.96H40.944V92.264Z" />
  <path paint-order="stroke" fill="rgb(102 255 124.2064487424132)" stroke="#080664" stroke-opacity="0.9176470588235294" stroke-width="22.5" stroke-linejoin="round" transform="translate(77.26586671058203 3.556986539441817) scale(0.06666666666666667 0.06666666666666667)" d="M89.008 195.72C31.616 195.72 0.0640001 159 0.0640001 98.616C0.0640001 36.056 34.88 0.151986 88.192 0.151986C128.176 0.151986 162.992 19.736 168.704 62.984H128.448C122.736 40.68 103.968 35.24 88.192 35.24C53.92 35.24 41.408 62.44 41.408 97.256C41.408 132.888 54.736 160.632 89.008 160.632C109.136 160.632 131.712 151.112 131.712 120.92H94.992V88.28H172.24V108.136C172.24 165.8 140.96 195.72 89.008 195.72Z" />
  <path paint-order="stroke" fill="rgb(102 196.2025963946374 255)" stroke="#080664" stroke-opacity="0.9176470588235294" stroke-width="22.5" stroke-linejoin="round" transform="translate(83.21424240960961 83.74255359361422) scale(0.06666666666666667 0.06666666666666667)" d="M89.008 195.72C31.616 195.72 0.0640001 159 0.0640001 98.616C0.0640001 36.056 34.88 0.151986 88.192 0.151986C128.176 0.151986 162.992 19.736 168.704 62.984H128.448C122.736 40.68 103.968 35.24 88.192 35.24C53.92 35.24 41.408 62.44 41.408 97.256C41.408 132.888 54.736 160.632 89.008 160.632C109.136 160.632 131.712 151.112 131.712 120.92H94.992V88.28H172.24V108.136C172.24 165.8 140.96 195.72 89.008 195.72Z" />
  <path paint-order="stroke" fill="rgb(255 102 146.32586430186512)" stroke="#080664" stroke-opacity="0.9176470588235294" stroke-width="22.5" stroke-linejoin="round" transform="translate(129.54876650826884 133.92809150742997) scale(0.06666666666666667 0.06666666666666667)" d="M79.988 195.72C30.756 195.72 0.564 172.6 0.564 130.712H42.724C43.54 147.848 53.876 161.992 80.26 161.992C101.748 161.992 114.26 152.744 114.26 137.24C114.26 124.184 105.284 118.2 87.876 114.664L61.22 109.224C31.028 103.512 5.732 89.912 5.732 55.912C5.732 19.192 35.38 0.151986 79.172 0.151986C123.78 0.151986 152.34 19.736 152.34 58.904H110.452C110.996 41.768 97.124 33.88 78.356 33.88C56.324 33.88 48.436 44.76 48.436 55.912C48.436 64.616 53.876 73.048 71.012 76.584L95.492 81.48C140.372 90.728 157.508 108.136 157.508 136.968C157.508 178.04 123.508 195.72 79.988 195.72Z" />
  <path paint-order="stroke" fill="rgb(255 102 183.97221039953615)" stroke="#080664" stroke-opacity="0.9176470588235294" stroke-width="22.5" stroke-linejoin="round" transform="translate(129.45740740447238 102.23877828436886) scale(0.06666666666666667 0.06666666666666667)" d="M89.008 195.72C31.616 195.72 0.0640001 159 0.0640001 98.616C0.0640001 36.056 34.88 0.151986 88.192 0.151986C128.176 0.151986 162.992 19.736 168.704 62.984H128.448C122.736 40.68 103.968 35.24 88.192 35.24C53.92 35.24 41.408 62.44 41.408 97.256C41.408 132.888 54.736 160.632 89.008 160.632C109.136 160.632 131.712 151.112 131.712 120.92H94.992V88.28H172.24V108.136C172.24 165.8 140.96 195.72 89.008 195.72Z" />
  <path paint-order="stroke" fill="rgb(136.0208064456334 102 255)" stroke="#080664" stroke-opacity="0.9176470588235294" stroke-width="22.5" stroke-linejoin="round" transform="translate(87.29360038722633 18.849572456393805) scale(0.06666666666666667 0.06666666666666667)" d="M0.144 191V0.599987H40.944V191H0.144Z" />
  <path paint-order="stroke" fill="rgb(168.07167246618246 102 255)" stroke="#080664" stroke-opacity="0.9176470588235294" stroke-width="22.5" stroke-linejoin="round" transform="translate(55.60963507912036 77.01796530045772) scale(0.06666666666666667 0.06666666666666667)" d="M79.988 195.72C30.756 195.72 0.564 172.6 0.564 130.712H42.724C43.54 147.848 53.876 161.992 80.26 161.992C101.748 161.992 114.26 152.744 114.26 137.24C114.26 124.184 105.284 118.2 87.876 114.664L61.22 109.224C31.028 103.512 5.732 89.912 5.732 55.912C5.732 19.192 35.38 0.151986 79.172 0.151986C123.78 0.151986 152.34 19.736 152.34 58.904H110.452C110.996 41.768 97.124 33.88 78.356 33.88C56.324 33.88 48.436 44.76 48.436 55.912C48.436 64.616 53.876 73.048 71.012 76.584L95.492 81.48C140.372 90.728 157.508 108.136 157.508 136.968C157.508 178.04 123.508 195.72 79.988 195.72Z" />
  <path paint-order="stroke" fill="rgb(176.27105341153322 255 102)" stroke="#080664" stroke-opacity="0.9176470588235294" stroke-width="22.5" stroke-linejoin="round" transform="translate(23.9823826400974 44.57245275057246) scale(0.06666666666666667 0.06666666666666667)" d="M89.008 195.72C31.616 195.72 0.0640001 159 0.0640001 98.616C0.0640001 36.056 34.88 0.151986 88.192 0.151986C128.176 0.151986 162.992 19.736 168.704 62.984H128.448C122.736 40.68 103.968 35.24 88.192 35.24C53.92 35.24 41.408 62.44 41.408 97.256C41.408 132.888 54.736 160.632 89.008 160.632C109.136 160.632 131.712 151.112 131.712 120.92H94.992V88.28H172.24V108.136C172.24 165.8 140.96 195.72 89.008 195.72Z" />
  <path paint-order="stroke" fill="rgb(139.49080906176113 255 102)" stroke="#080664" stroke-opacity="0.9176470588235294" stroke-width="22.5" stroke-linejoin="round" transform="translate(28.99531114006109 16.85342273029144) scale(0.06666666666666667 0.06666666666666667)" d="M0.144 191V0.599987H77.12C127.712 0.599987 149.744 26.984 149.744 64.248C149.744 101.24 127.712 127.624 77.12 127.624H40.944V191H0.144ZM40.944 92.264H75.76C98.064 92.264 107.856 81.112 107.856 64.248C107.856 47.112 98.064 35.96 75.76 35.96H40.944V92.264Z" />
  <path paint-order="stroke" fill="rgb(133.04469747671413 102 255)" stroke="#080664" stroke-opacity="0.9176470588235294" stroke-width="22.5" stroke-linejoin="round" transform="translate(11.157746535968794 58.240997044772776) scale(0.06666666666666667 0.06666666666666667)" d="M0.144 191V0.599987H77.12C127.712 0.599987 149.744 26.984 149.744 64.248C149.744 101.24 127.712 127.624 77.12 127.624H40.944V191H0.144ZM40.944 92.264H75.76C98.064 92.264 107.856 81.112 107.856 64.248C107.856 47.112 98.064 35.96 75.76 35.96H40.944V92.264Z" />
  <path paint-order="stroke" fill="rgb(102 198.01460552797107 255)" stroke="#080664" stroke-opacity="0.9176470588235294" stroke-width="22.5" stroke-linejoin="round" transform="translate(26.90008193477955 79.7158110789397) scale(0.06666666666666667 0.06666666666666667)" d="M0.624 191L69.44 0.599987H121.936L190.752 191H148.048L135.808 155.368H55.568L43.328 191H0.624ZM65.904 125.176H125.472L96.912 42.216H94.464L65.904 125.176Z" />
  <path paint-order="stroke" fill="rgb(102 255 217.86331338379452)" stroke="#080664" stroke-opacity="0.9176470588235294" stroke-width="22.5" stroke-linejoin="round" transform="translate(48.59896668465532 162.50688791081635) scale(0.06666666666666667 0.06666666666666667)" d="M0.624 191L69.44 0.599987H121.936L190.752 191H148.048L135.808 155.368H55.568L43.328 191H0.624ZM65.904 125.176H125.472L96.912 42.216H94.464L65.904 125.176Z" />
  <path paint-order="stroke" fill="rgb(102 184.8428669763315 255)" stroke="#080664" stroke-opacity="0.9176470588235294" stroke-width="22.5" stroke-linejoin="round" transform="translate(123.66717733223444 94.95102729025454) scale(0.06666666666666667 0.06666666666666667)" d="M0.144 191V0.599987H40.944V191H0.144Z" />
  <path paint-order="stroke" fill="rgb(211.49533804283092 255 102)" stroke="#080664" stroke-opacity="0.9176470588235294" stroke-width="22.5" stroke-linejoin="round" transform="translate(91.05291514353976 178.06041936052208) scale(0.06666666666666667 0.06666666666666667)" d="M79.988 195.72C30.756 195.72 0.564 172.6 0.564 130.712H42.724C43.54 147.848 53.876 161.992 80.26 161.992C101.748 161.992 114.26 152.744 114.26 137.24C114.26 124.184 105.284 118.2 87.876 114.664L61.22 109.224C31.028 103.512 5.732 89.912 5.732 55.912C5.732 19.192 35.38 0.151986 79.172 0.151986C123.78 0.151986 152.34 19.736 152.34 58.904H110.452C110.996 41.768 97.124 33.88 78.356 33.88C56.324 33.88 48.436 44.76 48.436 55.912C48.436 64.616 53.876 73.048 71.012 76.584L95.492 81.48C140.372 90.728 157.508 108.136 157.508 136.968C157.508 178.04 123.508 195.72 79.988 195.72Z" />
  <path paint-order="stroke" fill="rgb(102 203.71075613313582 255)" stroke="#080664" stroke-opacity="0.9176470588235294" stroke-width="22.5" stroke-linejoin="round" transform="translate(28.284354775314927 148.69870805815827) scale(0.06666666666666667 0.06666666666666667)" d="M79.988 195.72C30.756 195.72 0.564 172.6 0.564 130.712H42.724C43.54 147.848 53.876 161.992 80.26 161.992C101.748 161.992 114.26 152.744 114.26 137.24C114.26 124.184 105.284 118.2 87.876 114.664L61.22 109.224C31.028 103.512 5.732 89.912 5.732 55.912C5.732 19.192 35.38 0.151986 79.172 0.151986C123.78 0.151986 152.34 19.736 152.34 58.904H110.452C110.996 41.768 97.124 33.88 78.356 33.88C56.324 33.88 48.436 44.76 48.436 55.912C48.436 64.616 53.876 73.048 71.012 76.584L95.492 81.48C140.372 90.728 157.508 108.136 157.508 136.968C157.508 178.04 123.508 195.72 79.988 195.72Z" />
  <path paint-order="stroke" fill="rgb(255 149.57177978492123 102)" stroke="#080664" stroke-opacity="0.9176470588235294" stroke-width="22.5" stroke-linejoin="round" transform="translate(92.14271226902581 5.17210961908944) scale(0.06666666666666667 0.06666666666666667)" d="M89.008 195.72C31.616 195.72 0.0640001 159 0.0640001 98.616C0.0640001 36.056 34.88 0.151986 88.192 0.151986C128.176 0.151986 162.992 19.736 168.704 62.984H128.448C122.736 40.68 103.968 35.24 88.192 35.24C53.92 35.24 41.408 62.44 41.408 97.256C41.408 132.888 54.736 160.632 89.008 160.632C109.136 160.632 131.712 151.112 131.712 120.92H94.992V88.28H172.24V108.136C172.24 165.8 140.96 195.72 89.008 195.72Z" />
  <path paint-order="stroke" fill="rgb(182.3715366493206 102 255)" stroke="#080664" stroke-opacity="0.9176470588235294" stroke-width="22.5" stroke-linejoin="round" transform="translate(56.645936333285434 92.98365194495562) scale(0.06666666666666667 0.06666666666666667)" d="M79.988 195.72C30.756 195.72 0.564 172.6 0.564 130.712H42.724C43.54 147.848 53.876 161.992 80.26 161.992C101.748 161.992 114.26 152.744 114.26 137.24C114.26 124.184 105.284 118.2 87.876 114.664L61.22 109.224C31.028 103.512 5.732 89.912 5.732 55.912C5.732 19.192 35.38 0.151986 79.172 0.151986C123.78 0.151986 152.34 19.736 152.34 58.904H110.452C110.996 41.768 97.124 33.88 78.356 33.88C56.324 33.88 48.436 44.76 48.436 55.912C48.436 64.616 53.876 73.048 71.012 76.584L95.492 81.48C140.372 90.728 157.508 108.136 157.508 136.968C157.508 178.04 123.508 195.72 79.988 195.72Z" />
  <path paint-order="stroke" fill="rgb(255 102 245.96862377532113)" stroke="#080664" stroke-opacity="0.9176470588235294" stroke-width="22.5" stroke-linejoin="round" transform="translate(10.575801749868655 133.8129581460297) scale(0.06666666666666667 0.06666666666666667)" d="M0.144 191V0.599987H40.944V191H0.144Z" />
  <path paint-order="stroke" fill="rgb(190.01027143273657 102 255)" stroke="#080664" stroke-opacity="0.9176470588235294" stroke-width="22.5" stroke-linejoin="round" transform="translate(137.75019443357323 115.1147606004106) scale(0.06666666666666667 0.06666666666666667)" d="M0.624 191L69.44 0.599987H121.936L190.752 191H148.048L135.808 155.368H55.568L43.328 191H0.624ZM65.904 125.176H125.472L96.912 42.216H94.464L65.904 125.176Z" />
  <path paint-order="stroke" fill="rgb(255 169.00447404397602 102)" stroke="#080664" stroke-opacity="0.9176470588235294" stroke-width="22.5" stroke-linejoin="round" transform="translate(106.78319718397074 10.323300453767825) scale(0.06666666666666667 0.06666666666666667)" d="M115.472 191V112.664H40.944V191H0.144V0.599987H40.944V78.936H115.472V0.599987H156.272V191H115.472Z" />
  <path paint-order="stroke" fill="rgb(255 150.62540574864826 102)" stroke="#080664" stroke-opacity="0.9176470588235294" stroke-width="22.5" stroke-linejoin="round" transform="translate(21.33103906094748 134.62863544890806) scale(0.06666666666666667 0.06666666666666667)" d="M0.144 191V0.599987H40.944V191H0.144Z" />
  <path paint-order="stroke" fill="rgb(102 176.2922661944014 255)" stroke="#080664" stroke-opacity="0.9176470588235294" stroke-width="22.5" stroke-linejoin="round" transform="translate(113.26301718776263 109.21607748345536) scale(0.06666666666666667 0.06666666666666667)" d="M79.988 195.72C30.756 195.72 0.564 172.6 0.564 130.712H42.724C43.54 147.848 53.876 161.992 80.26 161.992C101.748 161.992 114.26 152.744 114.26 137.24C114.26 124.184 105.284 118.2 87.876 114.664L61.22 109.224C31.028 103.512 5.732 89.912 5.732 55.912C5.732 19.192 35.38 0.151986 79.172 0.151986C123.78 0.151986 152.34 19.736 152.34 58.904H110.452C110.996 41.768 97.124 33.88 78.356 33.88C56.324 33.88 48.436 44.76 48.436 55.912C48.436 64.616 53.876 73.048 71.012 76.584L95.492 81.48C140.372 90.728 157.508 108.136 157.508 136.968C157.508 178.04 123.508 195.72 79.988 195.72Z" />
  <path paint-order="stroke" fill="rgb(136.6098351077478 255 102)" stroke="#080664" stroke-opacity="0.9176470588235294" stroke-width="22.5" stroke-linejoin="round" transform="translate(10.106856877775954 42.243211337061815) scale(0.06666666666666667 0.06666666666666667)" d="M79.988 195.72C30.756 195.72 0.564 172.6 0.564 130.712H42.724C43.54 147.848 53.876 161.992 80.26 161.992C101.748 161.992 114.26 152.744 114.26 137.24C114.26 124.184 105.284 118.2 87.876 114.664L61.22 109.224C31.028 103.512 5.732 89.912 5.732 55.912C5.732 19.192 35.38 0.151986 79.172 0.151986C123.78 0.151986 152.34 19.736 152.34 58.904H110.452C110.996 41.768 97.124 33.88 78.356 33.88C56.324 33.88 48.436 44.76 48.436 55.912C48.436 64.616 53.876 73.048 71.012 76.584L95.492 81.48C140.372 90.728 157.508 108.136 157.508 136.968C157.508 178.04 123.508 195.72 79.988 195.72Z" />
  <path paint-order="stroke" fill="rgb(255 102 202.65648905381212)" stroke="#080664" stroke-opacity="0.9176470588235294" stroke-width="22.5" stroke-linejoin="round" transform="translate(69.0049863584953 80.61950513403458) scale(0.06666666666666667 0.06666666666666667)" d="M89.008 195.72C31.616 195.72 0.0640001 159 0.0640001 98.616C0.0640001 36.056 34.88 0.151986 88.192 0.151986C128.176 0.151986 162.992 19.736 168.704 62.984H128.448C122.736 40.68 103.968 35.24 88.192 35.24C53.92 35.24 41.408 62.44 41.408 97.256C41.408 132.888 54.736 160.632 89.008 160.632C109.136 160.632 131.712 151.112 131.712 120.92H94.992V88.28H172.24V108.136C172.24 165.8 140.96 195.72 89.008 195.72Z" />
  <path paint-order="stroke" fill="rgb(255 202.34351893976944 102)" stroke="#080664" stroke-opacity="0.9176470588235294" stroke-width="22.5" stroke-linejoin="round" transform="translate(42.60814277450382 88.1455127256476) scale(0.06666666666666667 0.06666666666666667)" d="M115.472 191V112.664H40.944V191H0.144V0.599987H40.944V78.936H115.472V0.599987H156.272V191H115.472Z" />
  <path paint-order="stroke" fill="rgb(102 219.90464272477928 255)" stroke="#080664" stroke-opacity="0.9176470588235294" stroke-width="22.5" stroke-linejoin="round" transform="translate(22.295457662206953 163.62337257610992) scale(0.06666666666666667 0.06666666666666667)" d="M79.988 195.72C30.756 195.72 0.564 172.6 0.564 130.712H42.724C43.54 147.848 53.876 161.992 80.26 161.992C101.748 161.992 114.26 152.744 114.26 137.24C114.26 124.184 105.284 118.2 87.876 114.664L61.22 109.224C31.028 103.512 5.732 89.912 5.732 55.912C5.732 19.192 35.38 0.151986 79.172 0.151986C123.78 0.151986 152.34 19.736 152.34 58.904H110.452C110.996 41.768 97.124 33.88 78.356 33.88C56.324 33.88 48.436 44.76 48.436 55.912C48.436 64.616 53.876 73.048 71.012 76.584L95.492 81.48C140.372 90.728 157.508 108.136 157.508 136.968C157.508 178.04 123.508 195.72 79.988 195.72Z" />
  <path paint-order="stroke" fill="rgb(230.79005990409374 102 255)" stroke="#080664" stroke-opacity="0.9176470588235294" stroke-width="22.5" stroke-linejoin="round" transform="translate(109.07039306277127 91.5496474068261) scale(0.06666666666666667 0.06666666666666667)" d="M89.008 195.72C31.616 195.72 0.0640001 159 0.0640001 98.616C0.0640001 36.056 34.88 0.151986 88.192 0.151986C128.176 0.151986 162.992 19.736 168.704 62.984H128.448C122.736 40.68 103.968 35.24 88.192 35.24C53.92 35.24 41.408 62.44 41.408 97.256C41.408 132.888 54.736 160.632 89.008 160.632C109.136 160.632 131.712 151.112 131.712 120.92H94.992V88.28H172.24V108.136C172.24 165.8 140.96 195.72 89.008 195.72Z" />
</svg>
