<svg xmlns="http://www.w3.org/2000/svg" viewBox="0 0 158 196">
  <path fill="#C1C1C1" d="M79.988 195.72C30.756 195.72 0.564 172.6 0.564 130.712H42.724C43.54 147.848 53.876 161.992 80.26 161.992C101.748 161.992 114.26 152.744 114.26 137.24C114.26 124.184 105.284 118.2 87.876 114.664L61.22 109.224C31.028 103.512 5.732 89.912 5.732 55.912C5.732 19.192 35.38 0.151986 79.172 0.151986C123.78 0.151986 152.34 19.736 152.34 58.904H110.452C110.996 41.768 97.124 33.88 78.356 33.88C56.324 33.88 48.436 44.76 48.436 55.912C48.436 64.616 53.876 73.048 71.012 76.584L95.492 81.48C140.372 90.728 157.508 108.136 157.508 136.968C157.508 178.04 123.508 195.72 79.988 195.72Z" />
  <path paint-order="stroke" fill="rgb(102 124.58667348217419 255)" stroke="#080664" stroke-opacity="0.9176470588235294" stroke-width="22.5" stroke-linejoin="round" transform="translate(98.57512373911123 101.6831383613412) scale(0.06666666666666667 0.06666666666666667)" d="M0.624 191L69.44 0.599987H121.936L190.752 191H148.048L135.808 155.368H55.568L43.328 191H0.624ZM65.904 125.176H125.472L96.912 42.216H94.464L65.904 125.176Z" />
  <path paint-order="stroke" fill="rgb(102 255 203.22187540303133)" stroke="#080664" stroke-opacity="0.9176470588235294" stroke-width="22.5" stroke-linejoin="round" transform="translate(12.943130389055366 149.91462617860478) scale(0.06666666666666667 0.06666666666666667)" d="M0.144 191V0.599987H77.12C127.712 0.599987 149.744 26.984 149.744 64.248C149.744 101.24 127.712 127.624 77.12 127.624H40.944V191H0.144ZM40.944 92.264H75.76C98.064 92.264 107.856 81.112 107.856 64.248C107.856 47.112 98.064 35.96 75.76 35.96H40.944V92.264Z" />
  <path paint-order="stroke" fill="rgb(132.35466918640145 102 255)" stroke="#080664" stroke-opacity="0.9176470588235294" stroke-width="22.5" stroke-linejoin="round" transform="translate(83.18375883775131 164.24511178855292) scale(0.06666666666666667 0.06666666666666667)" d="M79.988 195.72C30.756 195.72 0.564 172.6 0.564 130.712H42.724C43.54 147.848 53.876 161.992 80.26 161.992C101.748 161.992 114.26 152.744 114.26 137.24C114.26 124.184 105.284 118.2 87.876 114.664L61.22 109.224C31.028 103.512 5.732 89.912 5.732 55.912C5.732 19.192 35.38 0.151986 79.172 0.151986C123.78 0.151986 152.34 19.736 152.34 58.904H110.452C110.996 41.768 97.124 33.88 78.356 33.88C56.324 33.88 48.436 44.76 48.436 55.912C48.436 64.616 53.876 73.048 71.012 76.584L95.492 81.48C140.372 90.728 157.508 108.136 157.508 136.968C157.508 178.04 123.508 195.72 79.988 195.72Z" />
  <path paint-order="stroke" fill="rgb(255 110.43698985418082 102)" stroke="#080664" stroke-opacity="0.9176470588235294" stroke-width="22.5" stroke-linejoin="round" transform="translate(93.20087066810926 21.330524112268893) scale(0.06666666666666667 0.06666666666666667)" d="M89.008 195.72C31.616 195.72 0.0640001 159 0.0640001 98.616C0.0640001 36.056 34.88 0.151986 88.192 0.151986C128.176 0.151986 162.992 19.736 168.704 62.984H128.448C122.736 40.68 103.968 35.24 88.192 35.24C53.92 35.24 41.408 62.44 41.408 97.256C41.408 132.888 54.736 160.632 89.008 160.632C109.136 160.632 131.712 151.112 131.712 120.92H94.992V88.28H172.24V108.136C172.24 165.8 140.96 195.72 89.008 195.72Z" />
  <path paint-order="stroke" fill="rgb(102 255 137.95665935264938)" stroke="#080664" stroke-opacity="0.9176470588235294" stroke-width="22.5" stroke-linejoin="round" transform="translate(55.53443071594052 5.306347585115455) scale(0.06666666666666667 0.06666666666666667)" d="M115.472 191V112.664H40.944V191H0.144V0.599987H40.944V78.936H115.472V0.599987H156.272V191H115.472Z" />
  <path paint-order="stroke" fill="rgb(255 224.58201288133768 102)" stroke="#080664" stroke-opacity="0.9176470588235294" stroke-width="22.5" stroke-linejoin="round" transform="translate(70.22463605844078 18.27825917260151) scale(0.06666666666666667 0.06666666666666667)" d="M0.624 191L69.44 0.599987H121.936L190.752 191H148.048L135.808 155.368H55.568L43.328 191H0.624ZM65.904 125.176H125.472L96.912 42.216H94.464L65.904 125.176Z" />
  <path paint-order="stroke" fill="rgb(255 242.83261187602216 102)" stroke="#080664" stroke-opacity="0.9176470588235294" stroke-width="22.5" stroke-linejoin="round" transform="translate(54.83722556261724 20.69525669628365) scale(0.06666666666666667 0.06666666666666667)" d="M89.008 195.72C31.616 195.72 0.0640001 159 0.0640001 98.616C0.0640001 36.056 34.88 0.151986 88.192 0.151986C128.176 0.151986 162.992 19.736 168.704 62.984H128.448C122.736 40.68 103.968 35.24 88.192 35.24C53.92 35.24 41.408 62.44 41.408 97.256C41.408 132.888 54.736 160.632 89.008 160.632C109.136 160.632 131.712 151.112 131.712 120.92H94.992V88.28H172.24V108.136C172.24 165.8 140.96 195.72 89.008 195.72Z" />
  <path paint-order="stroke" fill="rgb(255 227.80333694082103 102)" stroke="#080664" stroke-opacity="0.9176470588235294" stroke-width="22.5" stroke-linejoin="round" transform="translate(108.73201616471961 172.43242765422968) scale(0.06666666666666667 0.06666666666666667)" d="M0.624 191L69.44 0.599987H121.936L190.752 191H148.048L135.808 155.368H55.568L43.328 191H0.624ZM65.904 125.176H125.472L96.912 42.216H94.464L65.904 125.176Z" />
  <path paint-order="stroke" fill="rgb(102 255 251.0139862721669)" stroke="#080664" stroke-opacity="0.9176470588235294" stroke-width="22.5" stroke-linejoin="round" transform="translate(41.42606215749372 15.853210406986301) scale(0.06666666666666667 0.06666666666666667)" d="M115.472 191V112.664H40.944V191H0.144V0.599987H40.944V78.936H115.472V0.599987H156.272V191H115.472Z" />
  <path paint-order="stroke" fill="rgb(102 255 189.4044431805561)" stroke="#080664" stroke-opacity="0.9176470588235294" stroke-width="22.5" stroke-linejoin="round" transform="translate(64.84988627196782 164.4578629327571) scale(0.06666666666666667 0.06666666666666667)" d="M115.472 191V112.664H40.944V191H0.144V0.599987H40.944V78.936H115.472V0.599987H156.272V191H115.472Z" />
  <path paint-order="stroke" fill="rgb(120.2109429886823 102 255)" stroke="#080664" stroke-opacity="0.9176470588235294" stroke-width="22.5" stroke-linejoin="round" transform="translate(30.107157303830604 28.966350635438403) scale(0.06666666666666667 0.06666666666666667)" d="M0.624 191L69.44 0.599987H121.936L190.752 191H148.048L135.808 155.368H55.568L43.328 191H0.624ZM65.904 125.176H125.472L96.912 42.216H94.464L65.904 125.176Z" />
  <path paint-order="stroke" fill="rgb(109.70436343528952 102 255)" stroke="#080664" stroke-opacity="0.9176470588235294" stroke-width="22.5" stroke-linejoin="round" transform="translate(17.426277480932864 70.50798965968139) scale(0.06666666666666667 0.06666666666666667)" d="M115.472 191V112.664H40.944V191H0.144V0.599987H40.944V78.936H115.472V0.599987H156.272V191H115.472Z" />
  <path paint-order="stroke" fill="rgb(255 102 119.96980365850926)" stroke="#080664" stroke-opacity="0.9176470588235294" stroke-width="22.5" stroke-linejoin="round" transform="translate(15.601871310143204 28.037375778940635) scale(0.06666666666666667 0.06666666666666667)" d="M79.988 195.72C30.756 195.72 0.564 172.6 0.564 130.712H42.724C43.54 147.848 53.876 161.992 80.26 161.992C101.748 161.992 114.26 152.744 114.26 137.24C114.26 124.184 105.284 118.2 87.876 114.664L61.22 109.224C31.028 103.512 5.732 89.912 5.732 55.912C5.732 19.192 35.38 0.151986 79.172 0.151986C123.78 0.151986 152.34 19.736 152.34 58.904H110.452C110.996 41.768 97.124 33.88 78.356 33.88C56.324 33.88 48.436 44.76 48.436 55.912C48.436 64.616 53.876 73.048 71.012 76.584L95.492 81.48C140.372 90.728 157.508 108.136 157.508 136.968C157.508 178.04 123.508 195.72 79.988 195.72Z" />
  <path paint-order="stroke" fill="rgb(102 255 113.45728722204593)" stroke="#080664" stroke-opacity="0.9176470588235294" stroke-width="22.5" stroke-linejoin="round" transform="translate(54.12313810010273 177.34185372107817) scale(0.06666666666666667 0.06666666666666667)" d="M0.144 191V0.599987H40.944V191H0.144Z" />
  <path paint-order="stroke" fill="rgb(102 243.7967102385868 255)" stroke="#080664" stroke-opacity="0.9176470588235294" stroke-width="22.5" stroke-linejoin="round" transform="translate(126.36439217354894 159.11181173124973) scale(0.06666666666666667 0.06666666666666667)" d="M0.144 191V0.599987H40.944V191H0.144Z" />
  <path paint-order="stroke" fill="rgb(184.44639793541643 255 102)" stroke="#080664" stroke-opacity="0.9176470588235294" stroke-width="22.5" stroke-linejoin="round" transform="translate(112.9397953789965 156.7388527054681) scale(0.06666666666666667 0.06666666666666667)" d="M115.472 191V112.664H40.944V191H0.144V0.599987H40.944V78.936H115.472V0.599987H156.272V191H115.472Z" />
  <path paint-order="stroke" fill="rgb(102 255 148.99533385908003)" stroke="#080664" stroke-opacity="0.9176470588235294" stroke-width="22.5" stroke-linejoin="round" transform="translate(107.25374410720326 25.92189692270381) scale(0.06666666666666667 0.06666666666666667)" d="M79.988 195.72C30.756 195.72 0.564 172.6 0.564 130.712H42.724C43.54 147.848 53.876 161.992 80.26 161.992C101.748 161.992 114.26 152.744 114.26 137.24C114.26 124.184 105.284 118.2 87.876 114.664L61.22 109.224C31.028 103.512 5.732 89.912 5.732 55.912C5.732 19.192 35.38 0.151986 79.172 0.151986C123.78 0.151986 152.34 19.736 152.34 58.904H110.452C110.996 41.768 97.124 33.88 78.356 33.88C56.324 33.88 48.436 44.76 48.436 55.912C48.436 64.616 53.876 73.048 71.012 76.584L95.492 81.48C140.372 90.728 157.508 108.136 157.508 136.968C157.508 178.04 123.508 195.72 79.988 195.72Z" />
  <path paint-order="stroke" fill="rgb(255 178.11508367428374 102)" stroke="#080664" stroke-opacity="0.9176470588235294" stroke-width="22.5" stroke-linejoin="round" transform="translate(120.36619585085487 16.58940443402913) scale(0.06666666666666667 0.06666666666666667)" d="M89.008 195.72C31.616 195.72 0.0640001 159 0.0640001 98.616C0.0640001 36.056 34.88 0.151986 88.192 0.151986C128.176 0.151986 162.992 19.736 168.704 62.984H128.448C122.736 40.68 103.968 35.24 88.192 35.24C53.92 35.24 41.408 62.44 41.408 97.256C41.408 132.888 54.736 160.632 89.008 160.632C109.136 160.632 131.712 151.112 131.712 120.92H94.992V88.28H172.24V108.136C172.24 165.8 140.96 195.72 89.008 195.72Z" />
  <path paint-order="stroke" fill="rgb(102 112.59752275718772 255)" stroke="#080664" stroke-opacity="0.9176470588235294" stroke-width="22.5" stroke-linejoin="round" transform="translate(130.44344932765924 31.6312222296011) scale(0.06666666666666667 0.06666666666666667)" d="M0.144 191V0.599987H77.12C127.712 0.599987 149.744 26.984 149.744 64.248C149.744 101.24 127.712 127.624 77.12 127.624H40.944V191H0.144ZM40.944 92.264H75.76C98.064 92.264 107.856 81.112 107.856 64.248C107.856 47.112 98.064 35.96 75.76 35.96H40.944V92.264Z" />
  <path paint-order="stroke" fill="rgb(102 255 187.46365829884456)" stroke="#080664" stroke-opacity="0.9176470588235294" stroke-width="22.5" stroke-linejoin="round" transform="translate(116.54916172413397 125.14136589065237) scale(0.06666666666666667 0.06666666666666667)" d="M89.008 195.72C31.616 195.72 0.0640001 159 0.0640001 98.616C0.0640001 36.056 34.88 0.151986 88.192 0.151986C128.176 0.151986 162.992 19.736 168.704 62.984H128.448C122.736 40.68 103.968 35.24 88.192 35.24C53.92 35.24 41.408 62.44 41.408 97.256C41.408 132.888 54.736 160.632 89.008 160.632C109.136 160.632 131.712 151.112 131.712 120.92H94.992V88.28H172.24V108.136C172.24 165.8 140.96 195.72 89.008 195.72Z" />
  <path paint-order="stroke" fill="rgb(255 102 212.75294956713955)" stroke="#080664" stroke-opacity="0.9176470588235294" stroke-width="22.5" stroke-linejoin="round" transform="translate(36.27582626879145 169.5567624720651) scale(0.06666666666666667 0.06666666666666667)" d="M111.392 191L75.216 127.624H40.944V191H0.144V0.599987H77.12C127.712 0.599987 149.744 26.984 149.744 64.248C149.744 91.448 138.048 112.664 111.664 122.184L151.648 191H111.392ZM40.944 92.264H75.76C98.064 92.264 107.856 81.112 107.856 64.248C107.856 47.112 98.064 35.96 75.76 35.96H40.944V92.264Z" />
  <path paint-order="stroke" fill="rgb(102 214.80439759722995 255)" stroke="#080664" stroke-opacity="0.9176470588235294" stroke-width="22.5" stroke-linejoin="round" transform="translate(27.281723859343014 133.6829294681706) scale(0.06666666666666667 0.06666666666666667)" d="M0.624 191L69.44 0.599987H121.936L190.752 191H148.048L135.808 155.368H55.568L43.328 191H0.624ZM65.904 125.176H125.472L96.912 42.216H94.464L65.904 125.176Z" />
  <path paint-order="stroke" fill="rgb(102 222.77445969487553 255)" stroke="#080664" stroke-opacity="0.9176470588235294" stroke-width="22.5" stroke-linejoin="round" transform="translate(136.1659355823157 43.11014113792645) scale(0.06666666666666667 0.06666666666666667)" d="M115.472 191V112.664H40.944V191H0.144V0.599987H40.944V78.936H115.472V0.599987H156.272V191H115.472Z" />
  <path paint-order="stroke" fill="rgb(212.7930356651635 255 102)" stroke="#080664" stroke-opacity="0.9176470588235294" stroke-width="22.5" stroke-linejoin="round" transform="translate(74.53419521224343 96.42943433234254) scale(0.06666666666666667 0.06666666666666667)" d="M79.988 195.72C30.756 195.72 0.564 172.6 0.564 130.712H42.724C43.54 147.848 53.876 161.992 80.26 161.992C101.748 161.992 114.26 152.744 114.26 137.24C114.26 124.184 105.284 118.2 87.876 114.664L61.22 109.224C31.028 103.512 5.732 89.912 5.732 55.912C5.732 19.192 35.38 0.151986 79.172 0.151986C123.78 0.151986 152.34 19.736 152.34 58.904H110.452C110.996 41.768 97.124 33.88 78.356 33.88C56.324 33.88 48.436 44.76 48.436 55.912C48.436 64.616 53.876 73.048 71.012 76.584L95.492 81.48C140.372 90.728 157.508 108.136 157.508 136.968C157.508 178.04 123.508 195.72 79.988 195.72Z" />
  <path paint-order="stroke" fill="rgb(255 244.85334729143696 102)" stroke="#080664" stroke-opacity="0.9176470588235294" stroke-width="22.5" stroke-linejoin="round" transform="translate(116.96927354619055 141.14783731315703) scale(0.06666666666666667 0.06666666666666667)" d="M0.624 191L69.44 0.599987H121.936L190.752 191H148.048L135.808 155.368H55.568L43.328 191H0.624ZM65.904 125.176H125.472L96.912 42.216H94.464L65.904 125.176Z" />
  <path paint-order="stroke" fill="rgb(199.6345820648964 255 102)" stroke="#080664" stroke-opacity="0.9176470588235294" stroke-width="22.5" stroke-linejoin="round" transform="translate(77.51140039106754 179.26794533656116) scale(0.06666666666666667 0.06666666666666667)" d="M111.392 191L75.216 127.624H40.944V191H0.144V0.599987H77.12C127.712 0.599987 149.744 26.984 149.744 64.248C149.744 91.448 138.048 112.664 111.664 122.184L151.648 191H111.392ZM40.944 92.264H75.76C98.064 92.264 107.856 81.112 107.856 64.248C107.856 47.112 98.064 35.96 75.76 35.96H40.944V92.264Z" />
  <path paint-order="stroke" fill="rgb(102 162.69450781594645 255)" stroke="#080664" stroke-opacity="0.9176470588235294" stroke-width="22.5" stroke-linejoin="round" transform="translate(42.08889991875753 71.89233955099428) scale(0.06666666666666667 0.06666666666666667)" d="M79.988 195.72C30.756 195.72 0.564 172.6 0.564 130.712H42.724C43.54 147.848 53.876 161.992 80.26 161.992C101.748 161.992 114.26 152.744 114.26 137.24C114.26 124.184 105.284 118.2 87.876 114.664L61.22 109.224C31.028 103.512 5.732 89.912 5.732 55.912C5.732 19.192 35.38 0.151986 79.172 0.151986C123.78 0.151986 152.34 19.736 152.34 58.904H110.452C110.996 41.768 97.124 33.88 78.356 33.88C56.324 33.88 48.436 44.76 48.436 55.912C48.436 64.616 53.876 73.048 71.012 76.584L95.492 81.48C140.372 90.728 157.508 108.136 157.508 136.968C157.508 178.04 123.508 195.72 79.988 195.72Z" />
  <path paint-order="stroke" fill="rgb(210.84115013011998 102 255)" stroke="#080664" stroke-opacity="0.9176470588235294" stroke-width="22.5" stroke-linejoin="round" transform="translate(143.01057579657703 131.01453778008337) scale(0.06666666666666667 0.06666666666666667)" d="M111.392 191L75.216 127.624H40.944V191H0.144V0.599987H77.12C127.712 0.599987 149.744 26.984 149.744 64.248C149.744 91.448 138.048 112.664 111.664 122.184L151.648 191H111.392ZM40.944 92.264H75.76C98.064 92.264 107.856 81.112 107.856 64.248C107.856 47.112 98.064 35.96 75.76 35.96H40.944V92.264Z" />
  <path paint-order="stroke" fill="rgb(102 255 172.03770312016334)" stroke="#080664" stroke-opacity="0.9176470588235294" stroke-width="22.5" stroke-linejoin="round" transform="translate(132.3652673829409 157.3268854401529) scale(0.06666666666666667 0.06666666666666667)" d="M111.392 191L75.216 127.624H40.944V191H0.144V0.599987H77.12C127.712 0.599987 149.744 26.984 149.744 64.248C149.744 91.448 138.048 112.664 111.664 122.184L151.648 191H111.392ZM40.944 92.264H75.76C98.064 92.264 107.856 81.112 107.856 64.248C107.856 47.112 98.064 35.96 75.76 35.96H40.944V92.264Z" />
  <path paint-order="stroke" fill="rgb(102 223.65448012782 255)" stroke="#080664" stroke-opacity="0.9176470588235294" stroke-width="22.5" stroke-linejoin="round" transform="translate(41.91451627513904 153.8875316233549) scale(0.06666666666666667 0.06666666666666667)" d="M0.144 191V0.599987H77.12C127.712 0.599987 149.744 26.984 149.744 64.248C149.744 101.24 127.712 127.624 77.12 127.624H40.944V191H0.144ZM40.944 92.264H75.76C98.064 92.264 107.856 81.112 107.856 64.248C107.856 47.112 98.064 35.96 75.76 35.96H40.944V92.264Z" />
  <path paint-order="stroke" fill="rgb(241.33613758284523 102 255)" stroke="#080664" stroke-opacity="0.9176470588235294" stroke-width="22.5" stroke-linejoin="round" transform="translate(98.20674555560615 87.02514488662987) scale(0.06666666666666667 0.06666666666666667)" d="M0.144 191V0.599987H77.12C127.712 0.599987 149.744 26.984 149.744 64.248C149.744 101.24 127.712 127.624 77.12 127.624H40.944V191H0.144ZM40.944 92.264H75.76C98.064 92.264 107.856 81.112 107.856 64.248C107.856 47.112 98.064 35.96 75.76 35.96H40.944V92.264Z" />
  <path paint-order="stroke" fill="rgb(102 255 226.27519521109147)" stroke="#080664" stroke-opacity="0.9176470588235294" stroke-width="22.5" stroke-linejoin="round" transform="translate(96.50678746652716 162.0514201296982) scale(0.06666666666666667 0.06666666666666667)" d="M0.624 191L69.44 0.599987H121.936L190.752 191H148.048L135.808 155.368H55.568L43.328 191H0.624ZM65.904 125.176H125.472L96.912 42.216H94.464L65.904 125.176Z" />
  <path paint-order="stroke" fill="rgb(219.8282428433772 255 102)" stroke="#080664" stroke-opacity="0.9176470588235294" stroke-width="22.5" stroke-linejoin="round" transform="translate(34.85590975938396 57.04949638757156) scale(0.06666666666666667 0.06666666666666667)" d="M79.988 195.72C30.756 195.72 0.564 172.6 0.564 130.712H42.724C43.54 147.848 53.876 161.992 80.26 161.992C101.748 161.992 114.26 152.744 114.26 137.24C114.26 124.184 105.284 118.2 87.876 114.664L61.22 109.224C31.028 103.512 5.732 89.912 5.732 55.912C5.732 19.192 35.38 0.151986 79.172 0.151986C123.78 0.151986 152.34 19.736 152.34 58.904H110.452C110.996 41.768 97.124 33.88 78.356 33.88C56.324 33.88 48.436 44.76 48.436 55.912C48.436 64.616 53.876 73.048 71.012 76.584L95.492 81.48C140.372 90.728 157.508 108.136 157.508 136.968C157.508 178.04 123.508 195.72 79.988 195.72Z" />
  <path paint-order="stroke" fill="rgb(255 102 170.34015438194328)" stroke="#080664" stroke-opacity="0.9176470588235294" stroke-width="22.5" stroke-linejoin="round" transform="translate(117.40116267635625 41.39605141682918) scale(0.06666666666666667 0.06666666666666667)" d="M111.392 191L75.216 127.624H40.944V191H0.144V0.599987H77.12C127.712 0.599987 149.744 26.984 149.744 64.248C149.744 91.448 138.048 112.664 111.664 122.184L151.648 191H111.392ZM40.944 92.264H75.76C98.064 92.264 107.856 81.112 107.856 64.248C107.856 47.112 98.064 35.96 75.76 35.96H40.944V92.264Z" />
  <path paint-order="stroke" fill="rgb(102 255 124.2064487424132)" stroke="#080664" stroke-opacity="0.9176470588235294" stroke-width="22.5" stroke-linejoin="round" transform="translate(77.36985315938745 3.63318073167401) scale(0.06666666666666667 0.06666666666666667)" d="M89.008 195.72C31.616 195.72 0.0640001 159 0.0640001 98.616C0.0640001 36.056 34.88 0.151986 88.192 0.151986C128.176 0.151986 162.992 19.736 168.704 62.984H128.448C122.736 40.68 103.968 35.24 88.192 35.24C53.92 35.24 41.408 62.44 41.408 97.256C41.408 132.888 54.736 160.632 89.008 160.632C109.136 160.632 131.712 151.112 131.712 120.92H94.992V88.28H172.24V108.136C172.24 165.8 140.96 195.72 89.008 195.72Z" />
  <path paint-order="stroke" fill="rgb(102 196.2025963946374 255)" stroke="#080664" stroke-opacity="0.9176470588235294" stroke-width="22.5" stroke-linejoin="round" transform="translate(83.73531157466932 83.7664646822677) scale(0.06666666666666667 0.06666666666666667)" d="M89.008 195.72C31.616 195.72 0.0640001 159 0.0640001 98.616C0.0640001 36.056 34.88 0.151986 88.192 0.151986C128.176 0.151986 162.992 19.736 168.704 62.984H128.448C122.736 40.68 103.968 35.24 88.192 35.24C53.92 35.24 41.408 62.44 41.408 97.256C41.408 132.888 54.736 160.632 89.008 160.632C109.136 160.632 131.712 151.112 131.712 120.92H94.992V88.28H172.24V108.136C172.24 165.8 140.96 195.72 89.008 195.72Z" />
  <path paint-order="stroke" fill="rgb(255 102 146.32586430186512)" stroke="#080664" stroke-opacity="0.9176470588235294" stroke-width="22.5" stroke-linejoin="round" transform="translate(129.47078689503587 134.53437647985143) scale(0.06666666666666667 0.06666666666666667)" d="M79.988 195.72C30.756 195.72 0.564 172.6 0.564 130.712H42.724C43.54 147.848 53.876 161.992 80.26 161.992C101.748 161.992 114.26 152.744 114.26 137.24C114.26 124.184 105.284 118.2 87.876 114.664L61.22 109.224C31.028 103.512 5.732 89.912 5.732 55.912C5.732 19.192 35.38 0.151986 79.172 0.151986C123.78 0.151986 152.34 19.736 152.34 58.904H110.452C110.996 41.768 97.124 33.88 78.356 33.88C56.324 33.88 48.436 44.76 48.436 55.912C48.436 64.616 53.876 73.048 71.012 76.584L95.492 81.48C140.372 90.728 157.508 108.136 157.508 136.968C157.508 178.04 123.508 195.72 79.988 195.72Z" />
  <path paint-order="stroke" fill="rgb(255 102 183.97221039953615)" stroke="#080664" stroke-opacity="0.9176470588235294" stroke-width="22.5" stroke-linejoin="round" transform="translate(129.66969227885278 102.65348251838572) scale(0.06666666666666667 0.06666666666666667)" d="M89.008 195.72C31.616 195.72 0.0640001 159 0.0640001 98.616C0.0640001 36.056 34.88 0.151986 88.192 0.151986C128.176 0.151986 162.992 19.736 168.704 62.984H128.448C122.736 40.68 103.968 35.24 88.192 35.24C53.92 35.24 41.408 62.44 41.408 97.256C41.408 132.888 54.736 160.632 89.008 160.632C109.136 160.632 131.712 151.112 131.712 120.92H94.992V88.28H172.24V108.136C172.24 165.8 140.96 195.72 89.008 195.72Z" />
  <path paint-order="stroke" fill="rgb(136.0208064456334 102 255)" stroke="#080664" stroke-opacity="0.9176470588235294" stroke-width="22.5" stroke-linejoin="round" transform="translate(87.41793864929677 18.827500886105696) scale(0.06666666666666667 0.06666666666666667)" d="M0.144 191V0.599987H40.944V191H0.144Z" />
  <path paint-order="stroke" fill="rgb(168.07167246618246 102 255)" stroke="#080664" stroke-opacity="0.9176470588235294" stroke-width="22.5" stroke-linejoin="round" transform="translate(56.12619891284228 77.15745690465901) scale(0.06666666666666667 0.06666666666666667)" d="M79.988 195.72C30.756 195.72 0.564 172.6 0.564 130.712H42.724C43.54 147.848 53.876 161.992 80.26 161.992C101.748 161.992 114.26 152.744 114.26 137.24C114.26 124.184 105.284 118.2 87.876 114.664L61.22 109.224C31.028 103.512 5.732 89.912 5.732 55.912C5.732 19.192 35.38 0.151986 79.172 0.151986C123.78 0.151986 152.34 19.736 152.34 58.904H110.452C110.996 41.768 97.124 33.88 78.356 33.88C56.324 33.88 48.436 44.76 48.436 55.912C48.436 64.616 53.876 73.048 71.012 76.584L95.492 81.48C140.372 90.728 157.508 108.136 157.508 136.968C157.508 178.04 123.508 195.72 79.988 195.72Z" />
  <path paint-order="stroke" fill="rgb(176.27105341153322 255 102)" stroke="#080664" stroke-opacity="0.9176470588235294" stroke-width="22.5" stroke-linejoin="round" transform="translate(23.96861738090474 44.697524141367374) scale(0.06666666666666667 0.06666666666666667)" d="M89.008 195.72C31.616 195.72 0.0640001 159 0.0640001 98.616C0.0640001 36.056 34.88 0.151986 88.192 0.151986C128.176 0.151986 162.992 19.736 168.704 62.984H128.448C122.736 40.68 103.968 35.24 88.192 35.24C53.92 35.24 41.408 62.44 41.408 97.256C41.408 132.888 54.736 160.632 89.008 160.632C109.136 160.632 131.712 151.112 131.712 120.92H94.992V88.28H172.24V108.136C172.24 165.8 140.96 195.72 89.008 195.72Z" />
  <path paint-order="stroke" fill="rgb(139.49080906176113 255 102)" stroke="#080664" stroke-opacity="0.9176470588235294" stroke-width="22.5" stroke-linejoin="round" transform="translate(28.45567394420584 17.187834724207622) scale(0.06666666666666667 0.06666666666666667)" d="M0.144 191V0.599987H77.12C127.712 0.599987 149.744 26.984 149.744 64.248C149.744 101.24 127.712 127.624 77.12 127.624H40.944V191H0.144ZM40.944 92.264H75.76C98.064 92.264 107.856 81.112 107.856 64.248C107.856 47.112 98.064 35.96 75.76 35.96H40.944V92.264Z" />
  <path paint-order="stroke" fill="rgb(133.04469747671413 102 255)" stroke="#080664" stroke-opacity="0.9176470588235294" stroke-width="22.5" stroke-linejoin="round" transform="translate(11.30444537816354 59.13537134335232) scale(0.06666666666666667 0.06666666666666667)" d="M0.144 191V0.599987H77.12C127.712 0.599987 149.744 26.984 149.744 64.248C149.744 101.24 127.712 127.624 77.12 127.624H40.944V191H0.144ZM40.944 92.264H75.76C98.064 92.264 107.856 81.112 107.856 64.248C107.856 47.112 98.064 35.96 75.76 35.96H40.944V92.264Z" />
  <path paint-order="stroke" fill="rgb(102 198.01460552797107 255)" stroke="#080664" stroke-opacity="0.9176470588235294" stroke-width="22.5" stroke-linejoin="round" transform="translate(27.48138169822706 80.21122204577452) scale(0.06666666666666667 0.06666666666666667)" d="M0.624 191L69.44 0.599987H121.936L190.752 191H148.048L135.808 155.368H55.568L43.328 191H0.624ZM65.904 125.176H125.472L96.912 42.216H94.464L65.904 125.176Z" />
  <path paint-order="stroke" fill="rgb(102 255 217.86331338379452)" stroke="#080664" stroke-opacity="0.9176470588235294" stroke-width="22.5" stroke-linejoin="round" transform="translate(49.13565477158923 162.4749551964982) scale(0.06666666666666667 0.06666666666666667)" d="M0.624 191L69.44 0.599987H121.936L190.752 191H148.048L135.808 155.368H55.568L43.328 191H0.624ZM65.904 125.176H125.472L96.912 42.216H94.464L65.904 125.176Z" />
  <path paint-order="stroke" fill="rgb(102 184.8428669763315 255)" stroke="#080664" stroke-opacity="0.9176470588235294" stroke-width="22.5" stroke-linejoin="round" transform="translate(123.9062933490306 95.02825313714519) scale(0.06666666666666667 0.06666666666666667)" d="M0.144 191V0.599987H40.944V191H0.144Z" />
  <path paint-order="stroke" fill="rgb(211.49533804283092 255 102)" stroke="#080664" stroke-opacity="0.9176470588235294" stroke-width="22.5" stroke-linejoin="round" transform="translate(91.81282135212727 178.00780585369986) scale(0.06666666666666667 0.06666666666666667)" d="M79.988 195.72C30.756 195.72 0.564 172.6 0.564 130.712H42.724C43.54 147.848 53.876 161.992 80.26 161.992C101.748 161.992 114.26 152.744 114.26 137.24C114.26 124.184 105.284 118.2 87.876 114.664L61.22 109.224C31.028 103.512 5.732 89.912 5.732 55.912C5.732 19.192 35.38 0.151986 79.172 0.151986C123.78 0.151986 152.34 19.736 152.34 58.904H110.452C110.996 41.768 97.124 33.88 78.356 33.88C56.324 33.88 48.436 44.76 48.436 55.912C48.436 64.616 53.876 73.048 71.012 76.584L95.492 81.48C140.372 90.728 157.508 108.136 157.508 136.968C157.508 178.04 123.508 195.72 79.988 195.72Z" />
  <path paint-order="stroke" fill="rgb(102 203.71075613313582 255)" stroke="#080664" stroke-opacity="0.9176470588235294" stroke-width="22.5" stroke-linejoin="round" transform="translate(28.41167952367854 148.79773732050324) scale(0.06666666666666667 0.06666666666666667)" d="M79.988 195.72C30.756 195.72 0.564 172.6 0.564 130.712H42.724C43.54 147.848 53.876 161.992 80.26 161.992C101.748 161.992 114.26 152.744 114.26 137.24C114.26 124.184 105.284 118.2 87.876 114.664L61.22 109.224C31.028 103.512 5.732 89.912 5.732 55.912C5.732 19.192 35.38 0.151986 79.172 0.151986C123.78 0.151986 152.34 19.736 152.34 58.904H110.452C110.996 41.768 97.124 33.88 78.356 33.88C56.324 33.88 48.436 44.76 48.436 55.912C48.436 64.616 53.876 73.048 71.012 76.584L95.492 81.48C140.372 90.728 157.508 108.136 157.508 136.968C157.508 178.04 123.508 195.72 79.988 195.72Z" />
  <path paint-order="stroke" fill="rgb(255 149.57177978492123 102)" stroke="#080664" stroke-opacity="0.9176470588235294" stroke-width="22.5" stroke-linejoin="round" transform="translate(92.11468895957084 5.185120247993325) scale(0.06666666666666667 0.06666666666666667)" d="M89.008 195.72C31.616 195.72 0.0640001 159 0.0640001 98.616C0.0640001 36.056 34.88 0.151986 88.192 0.151986C128.176 0.151986 162.992 19.736 168.704 62.984H128.448C122.736 40.68 103.968 35.24 88.192 35.24C53.92 35.24 41.408 62.44 41.408 97.256C41.408 132.888 54.736 160.632 89.008 160.632C109.136 160.632 131.712 151.112 131.712 120.92H94.992V88.28H172.24V108.136C172.24 165.8 140.96 195.72 89.008 195.72Z" />
  <path paint-order="stroke" fill="rgb(182.3715366493206 102 255)" stroke="#080664" stroke-opacity="0.9176470588235294" stroke-width="22.5" stroke-linejoin="round" transform="translate(57.13174887052214 93.1195399209123) scale(0.06666666666666667 0.06666666666666667)" d="M79.988 195.72C30.756 195.72 0.564 172.6 0.564 130.712H42.724C43.54 147.848 53.876 161.992 80.26 161.992C101.748 161.992 114.26 152.744 114.26 137.24C114.26 124.184 105.284 118.2 87.876 114.664L61.22 109.224C31.028 103.512 5.732 89.912 5.732 55.912C5.732 19.192 35.38 0.151986 79.172 0.151986C123.78 0.151986 152.34 19.736 152.34 58.904H110.452C110.996 41.768 97.124 33.88 78.356 33.88C56.324 33.88 48.436 44.76 48.436 55.912C48.436 64.616 53.876 73.048 71.012 76.584L95.492 81.48C140.372 90.728 157.508 108.136 157.508 136.968C157.508 178.04 123.508 195.72 79.988 195.72Z" />
  <path paint-order="stroke" fill="rgb(255 102 245.96862377532113)" stroke="#080664" stroke-opacity="0.9176470588235294" stroke-width="22.5" stroke-linejoin="round" transform="translate(10.575706451701942 133.81346970280788) scale(0.06666666666666667 0.06666666666666667)" d="M0.144 191V0.599987H40.944V191H0.144Z" />
  <path paint-order="stroke" fill="rgb(190.01027143273657 102 255)" stroke="#080664" stroke-opacity="0.9176470588235294" stroke-width="22.5" stroke-linejoin="round" transform="translate(138.36736155057298 115.19799855085422) scale(0.06666666666666667 0.06666666666666667)" d="M0.624 191L69.44 0.599987H121.936L190.752 191H148.048L135.808 155.368H55.568L43.328 191H0.624ZM65.904 125.176H125.472L96.912 42.216H94.464L65.904 125.176Z" />
  <path paint-order="stroke" fill="rgb(255 169.00447404397602 102)" stroke="#080664" stroke-opacity="0.9176470588235294" stroke-width="22.5" stroke-linejoin="round" transform="translate(106.87690037584143 10.36167823038111) scale(0.06666666666666667 0.06666666666666667)" d="M115.472 191V112.664H40.944V191H0.144V0.599987H40.944V78.936H115.472V0.599987H156.272V191H115.472Z" />
  <path paint-order="stroke" fill="rgb(255 150.62540574864826 102)" stroke="#080664" stroke-opacity="0.9176470588235294" stroke-width="22.5" stroke-linejoin="round" transform="translate(20.74542038158197 134.55122339667625) scale(0.06666666666666667 0.06666666666666667)" d="M0.144 191V0.599987H40.944V191H0.144Z" />
  <path paint-order="stroke" fill="rgb(102 176.2922661944014 255)" stroke="#080664" stroke-opacity="0.9176470588235294" stroke-width="22.5" stroke-linejoin="round" transform="translate(113.7500201451577 109.46339409657072) scale(0.06666666666666667 0.06666666666666667)" d="M79.988 195.72C30.756 195.72 0.564 172.6 0.564 130.712H42.724C43.54 147.848 53.876 161.992 80.26 161.992C101.748 161.992 114.26 152.744 114.26 137.24C114.26 124.184 105.284 118.2 87.876 114.664L61.22 109.224C31.028 103.512 5.732 89.912 5.732 55.912C5.732 19.192 35.38 0.151986 79.172 0.151986C123.78 0.151986 152.34 19.736 152.34 58.904H110.452C110.996 41.768 97.124 33.88 78.356 33.88C56.324 33.88 48.436 44.76 48.436 55.912C48.436 64.616 53.876 73.048 71.012 76.584L95.492 81.48C140.372 90.728 157.508 108.136 157.508 136.968C157.508 178.04 123.508 195.72 79.988 195.72Z" />
  <path paint-order="stroke" fill="rgb(136.6098351077478 255 102)" stroke="#080664" stroke-opacity="0.9176470588235294" stroke-width="22.5" stroke-linejoin="round" transform="translate(9.955244475021216 43.13095300363252) scale(0.06666666666666667 0.06666666666666667)" d="M79.988 195.72C30.756 195.72 0.564 172.6 0.564 130.712H42.724C43.54 147.848 53.876 161.992 80.26 161.992C101.748 161.992 114.26 152.744 114.26 137.24C114.26 124.184 105.284 118.2 87.876 114.664L61.22 109.224C31.028 103.512 5.732 89.912 5.732 55.912C5.732 19.192 35.38 0.151986 79.172 0.151986C123.78 0.151986 152.34 19.736 152.34 58.904H110.452C110.996 41.768 97.124 33.88 78.356 33.88C56.324 33.88 48.436 44.76 48.436 55.912C48.436 64.616 53.876 73.048 71.012 76.584L95.492 81.48C140.372 90.728 157.508 108.136 157.508 136.968C157.508 178.04 123.508 195.72 79.988 195.72Z" />
  <path paint-order="stroke" fill="rgb(255 102 202.65648905381212)" stroke="#080664" stroke-opacity="0.9176470588235294" stroke-width="22.5" stroke-linejoin="round" transform="translate(69.52485589706176 80.69834724596186) scale(0.06666666666666667 0.06666666666666667)" d="M89.008 195.72C31.616 195.72 0.0640001 159 0.0640001 98.616C0.0640001 36.056 34.88 0.151986 88.192 0.151986C128.176 0.151986 162.992 19.736 168.704 62.984H128.448C122.736 40.68 103.968 35.24 88.192 35.24C53.92 35.24 41.408 62.44 41.408 97.256C41.408 132.888 54.736 160.632 89.008 160.632C109.136 160.632 131.712 151.112 131.712 120.92H94.992V88.28H172.24V108.136C172.24 165.8 140.96 195.72 89.008 195.72Z" />
  <path paint-order="stroke" fill="rgb(255 202.34351893976944 102)" stroke="#080664" stroke-opacity="0.9176470588235294" stroke-width="22.5" stroke-linejoin="round" transform="translate(43.183450653077145 88.4185543717365) scale(0.06666666666666667 0.06666666666666667)" d="M115.472 191V112.664H40.944V191H0.144V0.599987H40.944V78.936H115.472V0.599987H156.272V191H115.472Z" />
  <path paint-order="stroke" fill="rgb(102 219.90464272477928 255)" stroke="#080664" stroke-opacity="0.9176470588235294" stroke-width="22.5" stroke-linejoin="round" transform="translate(22.78156074224919 163.9100544957247) scale(0.06666666666666667 0.06666666666666667)" d="M79.988 195.72C30.756 195.72 0.564 172.6 0.564 130.712H42.724C43.54 147.848 53.876 161.992 80.26 161.992C101.748 161.992 114.26 152.744 114.26 137.24C114.26 124.184 105.284 118.2 87.876 114.664L61.22 109.224C31.028 103.512 5.732 89.912 5.732 55.912C5.732 19.192 35.38 0.151986 79.172 0.151986C123.78 0.151986 152.34 19.736 152.34 58.904H110.452C110.996 41.768 97.124 33.88 78.356 33.88C56.324 33.88 48.436 44.76 48.436 55.912C48.436 64.616 53.876 73.048 71.012 76.584L95.492 81.48C140.372 90.728 157.508 108.136 157.508 136.968C157.508 178.04 123.508 195.72 79.988 195.72Z" />
  <path paint-order="stroke" fill="rgb(230.79005990409374 102 255)" stroke="#080664" stroke-opacity="0.9176470588235294" stroke-width="22.5" stroke-linejoin="round" transform="translate(109.43040286985905 92.02430669866992) scale(0.06666666666666667 0.06666666666666667)" d="M89.008 195.72C31.616 195.72 0.0640001 159 0.0640001 98.616C0.0640001 36.056 34.88 0.151986 88.192 0.151986C128.176 0.151986 162.992 19.736 168.704 62.984H128.448C122.736 40.68 103.968 35.24 88.192 35.24C53.92 35.24 41.408 62.44 41.408 97.256C41.408 132.888 54.736 160.632 89.008 160.632C109.136 160.632 131.712 151.112 131.712 120.92H94.992V88.28H172.24V108.136C172.24 165.8 140.96 195.72 89.008 195.72Z" />
</svg>
